%TF.GenerationSoftware,KiCad,Pcbnew,10.0.1*%
%TF.CreationDate,2026-04-24T19:50:12-04:00*%
%TF.ProjectId,schematic,73636865-6d61-4746-9963-2e6b69636164,rev?*%
%TF.SameCoordinates,Original*%
%TF.FileFunction,Soldermask,Top*%
%TF.FilePolarity,Negative*%
%FSLAX46Y46*%
G04 Gerber Fmt 4.6, Leading zero omitted, Abs format (unit mm)*
G04 Created by KiCad (PCBNEW 10.0.1) date 2026-04-24 19:50:12*
%MOMM*%
%LPD*%
G01*
G04 APERTURE LIST*
G04 APERTURE END LIST*
G36*
X97663268Y-114007612D02*
G01*
X97695711Y-114029289D01*
X97717388Y-114061732D01*
X97725000Y-114100000D01*
X97725000Y-115900000D01*
X97717388Y-115938268D01*
X97695711Y-115970711D01*
X97663268Y-115992388D01*
X97625000Y-116000000D01*
X95825000Y-116000000D01*
X95786732Y-115992388D01*
X95754289Y-115970711D01*
X95732612Y-115938268D01*
X95725000Y-115900000D01*
X95725000Y-114100000D01*
X95732612Y-114061732D01*
X95754289Y-114029289D01*
X95786732Y-114007612D01*
X95825000Y-114000000D01*
X97625000Y-114000000D01*
X97663268Y-114007612D01*
G37*
G36*
X105163268Y-114007612D02*
G01*
X105195711Y-114029289D01*
X105217388Y-114061732D01*
X105225000Y-114100000D01*
X105225000Y-115900000D01*
X105217388Y-115938268D01*
X105195711Y-115970711D01*
X105163268Y-115992388D01*
X105125000Y-116000000D01*
X103325000Y-116000000D01*
X103286732Y-115992388D01*
X103254289Y-115970711D01*
X103232612Y-115938268D01*
X103225000Y-115900000D01*
X103225000Y-114100000D01*
X103232612Y-114061732D01*
X103254289Y-114029289D01*
X103286732Y-114007612D01*
X103325000Y-114000000D01*
X105125000Y-114000000D01*
X105163268Y-114007612D01*
G37*
G36*
X112663268Y-114007612D02*
G01*
X112695711Y-114029289D01*
X112717388Y-114061732D01*
X112725000Y-114100000D01*
X112725000Y-115900000D01*
X112717388Y-115938268D01*
X112695711Y-115970711D01*
X112663268Y-115992388D01*
X112625000Y-116000000D01*
X110825000Y-116000000D01*
X110786732Y-115992388D01*
X110754289Y-115970711D01*
X110732612Y-115938268D01*
X110725000Y-115900000D01*
X110725000Y-114100000D01*
X110732612Y-114061732D01*
X110754289Y-114029289D01*
X110786732Y-114007612D01*
X110825000Y-114000000D01*
X112625000Y-114000000D01*
X112663268Y-114007612D01*
G37*
G36*
X120163268Y-114007612D02*
G01*
X120195711Y-114029289D01*
X120217388Y-114061732D01*
X120225000Y-114100000D01*
X120225000Y-115900000D01*
X120217388Y-115938268D01*
X120195711Y-115970711D01*
X120163268Y-115992388D01*
X120125000Y-116000000D01*
X118325000Y-116000000D01*
X118286732Y-115992388D01*
X118254289Y-115970711D01*
X118232612Y-115938268D01*
X118225000Y-115900000D01*
X118225000Y-114100000D01*
X118232612Y-114061732D01*
X118254289Y-114029289D01*
X118286732Y-114007612D01*
X118325000Y-114000000D01*
X120125000Y-114000000D01*
X120163268Y-114007612D01*
G37*
G36*
X127663268Y-114007612D02*
G01*
X127695711Y-114029289D01*
X127717388Y-114061732D01*
X127725000Y-114100000D01*
X127725000Y-115900000D01*
X127717388Y-115938268D01*
X127695711Y-115970711D01*
X127663268Y-115992388D01*
X127625000Y-116000000D01*
X125825000Y-116000000D01*
X125786732Y-115992388D01*
X125754289Y-115970711D01*
X125732612Y-115938268D01*
X125725000Y-115900000D01*
X125725000Y-114100000D01*
X125732612Y-114061732D01*
X125754289Y-114029289D01*
X125786732Y-114007612D01*
X125825000Y-114000000D01*
X127625000Y-114000000D01*
X127663268Y-114007612D01*
G37*
G36*
X135163268Y-114007612D02*
G01*
X135195711Y-114029289D01*
X135217388Y-114061732D01*
X135225000Y-114100000D01*
X135225000Y-115900000D01*
X135217388Y-115938268D01*
X135195711Y-115970711D01*
X135163268Y-115992388D01*
X135125000Y-116000000D01*
X133325000Y-116000000D01*
X133286732Y-115992388D01*
X133254289Y-115970711D01*
X133232612Y-115938268D01*
X133225000Y-115900000D01*
X133225000Y-114100000D01*
X133232612Y-114061732D01*
X133254289Y-114029289D01*
X133286732Y-114007612D01*
X133325000Y-114000000D01*
X135125000Y-114000000D01*
X135163268Y-114007612D01*
G37*
G36*
X142663268Y-114007612D02*
G01*
X142695711Y-114029289D01*
X142717388Y-114061732D01*
X142725000Y-114100000D01*
X142725000Y-115900000D01*
X142717388Y-115938268D01*
X142695711Y-115970711D01*
X142663268Y-115992388D01*
X142625000Y-116000000D01*
X140825000Y-116000000D01*
X140786732Y-115992388D01*
X140754289Y-115970711D01*
X140732612Y-115938268D01*
X140725000Y-115900000D01*
X140725000Y-114100000D01*
X140732612Y-114061732D01*
X140754289Y-114029289D01*
X140786732Y-114007612D01*
X140825000Y-114000000D01*
X142625000Y-114000000D01*
X142663268Y-114007612D01*
G37*
G36*
X150163268Y-114007612D02*
G01*
X150195711Y-114029289D01*
X150217388Y-114061732D01*
X150225000Y-114100000D01*
X150225000Y-115900000D01*
X150217388Y-115938268D01*
X150195711Y-115970711D01*
X150163268Y-115992388D01*
X150125000Y-116000000D01*
X148325000Y-116000000D01*
X148286732Y-115992388D01*
X148254289Y-115970711D01*
X148232612Y-115938268D01*
X148225000Y-115900000D01*
X148225000Y-114100000D01*
X148232612Y-114061732D01*
X148254289Y-114029289D01*
X148286732Y-114007612D01*
X148325000Y-114000000D01*
X150125000Y-114000000D01*
X150163268Y-114007612D01*
G37*
G36*
X99555285Y-114043060D02*
G01*
X99736397Y-114118079D01*
X99899393Y-114226990D01*
X100038010Y-114365607D01*
X100146921Y-114528603D01*
X100221940Y-114709715D01*
X100260185Y-114901983D01*
X100260185Y-115098017D01*
X100221940Y-115290285D01*
X100146921Y-115471397D01*
X100038010Y-115634393D01*
X99899393Y-115773010D01*
X99736397Y-115881921D01*
X99555285Y-115956940D01*
X99363017Y-115995185D01*
X99166983Y-115995185D01*
X98974715Y-115956940D01*
X98793603Y-115881921D01*
X98630607Y-115773010D01*
X98491990Y-115634393D01*
X98383079Y-115471397D01*
X98308060Y-115290285D01*
X98269815Y-115098017D01*
X98269815Y-114901983D01*
X98308060Y-114709715D01*
X98383079Y-114528603D01*
X98491990Y-114365607D01*
X98630607Y-114226990D01*
X98793603Y-114118079D01*
X98974715Y-114043060D01*
X99166983Y-114004815D01*
X99363017Y-114004815D01*
X99555285Y-114043060D01*
G37*
G36*
X107055285Y-114043060D02*
G01*
X107236397Y-114118079D01*
X107399393Y-114226990D01*
X107538010Y-114365607D01*
X107646921Y-114528603D01*
X107721940Y-114709715D01*
X107760185Y-114901983D01*
X107760185Y-115098017D01*
X107721940Y-115290285D01*
X107646921Y-115471397D01*
X107538010Y-115634393D01*
X107399393Y-115773010D01*
X107236397Y-115881921D01*
X107055285Y-115956940D01*
X106863017Y-115995185D01*
X106666983Y-115995185D01*
X106474715Y-115956940D01*
X106293603Y-115881921D01*
X106130607Y-115773010D01*
X105991990Y-115634393D01*
X105883079Y-115471397D01*
X105808060Y-115290285D01*
X105769815Y-115098017D01*
X105769815Y-114901983D01*
X105808060Y-114709715D01*
X105883079Y-114528603D01*
X105991990Y-114365607D01*
X106130607Y-114226990D01*
X106293603Y-114118079D01*
X106474715Y-114043060D01*
X106666983Y-114004815D01*
X106863017Y-114004815D01*
X107055285Y-114043060D01*
G37*
G36*
X114555285Y-114043060D02*
G01*
X114736397Y-114118079D01*
X114899393Y-114226990D01*
X115038010Y-114365607D01*
X115146921Y-114528603D01*
X115221940Y-114709715D01*
X115260185Y-114901983D01*
X115260185Y-115098017D01*
X115221940Y-115290285D01*
X115146921Y-115471397D01*
X115038010Y-115634393D01*
X114899393Y-115773010D01*
X114736397Y-115881921D01*
X114555285Y-115956940D01*
X114363017Y-115995185D01*
X114166983Y-115995185D01*
X113974715Y-115956940D01*
X113793603Y-115881921D01*
X113630607Y-115773010D01*
X113491990Y-115634393D01*
X113383079Y-115471397D01*
X113308060Y-115290285D01*
X113269815Y-115098017D01*
X113269815Y-114901983D01*
X113308060Y-114709715D01*
X113383079Y-114528603D01*
X113491990Y-114365607D01*
X113630607Y-114226990D01*
X113793603Y-114118079D01*
X113974715Y-114043060D01*
X114166983Y-114004815D01*
X114363017Y-114004815D01*
X114555285Y-114043060D01*
G37*
G36*
X122055285Y-114043060D02*
G01*
X122236397Y-114118079D01*
X122399393Y-114226990D01*
X122538010Y-114365607D01*
X122646921Y-114528603D01*
X122721940Y-114709715D01*
X122760185Y-114901983D01*
X122760185Y-115098017D01*
X122721940Y-115290285D01*
X122646921Y-115471397D01*
X122538010Y-115634393D01*
X122399393Y-115773010D01*
X122236397Y-115881921D01*
X122055285Y-115956940D01*
X121863017Y-115995185D01*
X121666983Y-115995185D01*
X121474715Y-115956940D01*
X121293603Y-115881921D01*
X121130607Y-115773010D01*
X120991990Y-115634393D01*
X120883079Y-115471397D01*
X120808060Y-115290285D01*
X120769815Y-115098017D01*
X120769815Y-114901983D01*
X120808060Y-114709715D01*
X120883079Y-114528603D01*
X120991990Y-114365607D01*
X121130607Y-114226990D01*
X121293603Y-114118079D01*
X121474715Y-114043060D01*
X121666983Y-114004815D01*
X121863017Y-114004815D01*
X122055285Y-114043060D01*
G37*
G36*
X129555285Y-114043060D02*
G01*
X129736397Y-114118079D01*
X129899393Y-114226990D01*
X130038010Y-114365607D01*
X130146921Y-114528603D01*
X130221940Y-114709715D01*
X130260185Y-114901983D01*
X130260185Y-115098017D01*
X130221940Y-115290285D01*
X130146921Y-115471397D01*
X130038010Y-115634393D01*
X129899393Y-115773010D01*
X129736397Y-115881921D01*
X129555285Y-115956940D01*
X129363017Y-115995185D01*
X129166983Y-115995185D01*
X128974715Y-115956940D01*
X128793603Y-115881921D01*
X128630607Y-115773010D01*
X128491990Y-115634393D01*
X128383079Y-115471397D01*
X128308060Y-115290285D01*
X128269815Y-115098017D01*
X128269815Y-114901983D01*
X128308060Y-114709715D01*
X128383079Y-114528603D01*
X128491990Y-114365607D01*
X128630607Y-114226990D01*
X128793603Y-114118079D01*
X128974715Y-114043060D01*
X129166983Y-114004815D01*
X129363017Y-114004815D01*
X129555285Y-114043060D01*
G37*
G36*
X137055285Y-114043060D02*
G01*
X137236397Y-114118079D01*
X137399393Y-114226990D01*
X137538010Y-114365607D01*
X137646921Y-114528603D01*
X137721940Y-114709715D01*
X137760185Y-114901983D01*
X137760185Y-115098017D01*
X137721940Y-115290285D01*
X137646921Y-115471397D01*
X137538010Y-115634393D01*
X137399393Y-115773010D01*
X137236397Y-115881921D01*
X137055285Y-115956940D01*
X136863017Y-115995185D01*
X136666983Y-115995185D01*
X136474715Y-115956940D01*
X136293603Y-115881921D01*
X136130607Y-115773010D01*
X135991990Y-115634393D01*
X135883079Y-115471397D01*
X135808060Y-115290285D01*
X135769815Y-115098017D01*
X135769815Y-114901983D01*
X135808060Y-114709715D01*
X135883079Y-114528603D01*
X135991990Y-114365607D01*
X136130607Y-114226990D01*
X136293603Y-114118079D01*
X136474715Y-114043060D01*
X136666983Y-114004815D01*
X136863017Y-114004815D01*
X137055285Y-114043060D01*
G37*
G36*
X144555285Y-114043060D02*
G01*
X144736397Y-114118079D01*
X144899393Y-114226990D01*
X145038010Y-114365607D01*
X145146921Y-114528603D01*
X145221940Y-114709715D01*
X145260185Y-114901983D01*
X145260185Y-115098017D01*
X145221940Y-115290285D01*
X145146921Y-115471397D01*
X145038010Y-115634393D01*
X144899393Y-115773010D01*
X144736397Y-115881921D01*
X144555285Y-115956940D01*
X144363017Y-115995185D01*
X144166983Y-115995185D01*
X143974715Y-115956940D01*
X143793603Y-115881921D01*
X143630607Y-115773010D01*
X143491990Y-115634393D01*
X143383079Y-115471397D01*
X143308060Y-115290285D01*
X143269815Y-115098017D01*
X143269815Y-114901983D01*
X143308060Y-114709715D01*
X143383079Y-114528603D01*
X143491990Y-114365607D01*
X143630607Y-114226990D01*
X143793603Y-114118079D01*
X143974715Y-114043060D01*
X144166983Y-114004815D01*
X144363017Y-114004815D01*
X144555285Y-114043060D01*
G37*
G36*
X152055285Y-114043060D02*
G01*
X152236397Y-114118079D01*
X152399393Y-114226990D01*
X152538010Y-114365607D01*
X152646921Y-114528603D01*
X152721940Y-114709715D01*
X152760185Y-114901983D01*
X152760185Y-115098017D01*
X152721940Y-115290285D01*
X152646921Y-115471397D01*
X152538010Y-115634393D01*
X152399393Y-115773010D01*
X152236397Y-115881921D01*
X152055285Y-115956940D01*
X151863017Y-115995185D01*
X151666983Y-115995185D01*
X151474715Y-115956940D01*
X151293603Y-115881921D01*
X151130607Y-115773010D01*
X150991990Y-115634393D01*
X150883079Y-115471397D01*
X150808060Y-115290285D01*
X150769815Y-115098017D01*
X150769815Y-114901983D01*
X150808060Y-114709715D01*
X150883079Y-114528603D01*
X150991990Y-114365607D01*
X151130607Y-114226990D01*
X151293603Y-114118079D01*
X151474715Y-114043060D01*
X151666983Y-114004815D01*
X151863017Y-114004815D01*
X152055285Y-114043060D01*
G37*
G36*
X97939851Y-106836500D02*
G01*
X97949457Y-106840979D01*
X97956601Y-106842111D01*
X98007493Y-106868041D01*
X98046082Y-106886036D01*
X98049482Y-106889436D01*
X98050508Y-106889959D01*
X98125040Y-106964491D01*
X98125562Y-106965516D01*
X98128964Y-106968918D01*
X98146960Y-107007512D01*
X98159361Y-107031849D01*
X98220639Y-107031849D01*
X98233043Y-107007504D01*
X98251036Y-106968918D01*
X98254435Y-106965518D01*
X98254959Y-106964491D01*
X98329491Y-106889959D01*
X98330518Y-106889435D01*
X98333918Y-106886036D01*
X98372500Y-106868044D01*
X98423399Y-106842111D01*
X98430542Y-106840979D01*
X98440149Y-106836500D01*
X98527500Y-106825000D01*
X99002500Y-106825000D01*
X99089851Y-106836500D01*
X99099457Y-106840979D01*
X99106601Y-106842111D01*
X99157493Y-106868041D01*
X99196082Y-106886036D01*
X99199482Y-106889436D01*
X99200508Y-106889959D01*
X99275040Y-106964491D01*
X99275562Y-106965516D01*
X99278964Y-106968918D01*
X99296965Y-107007523D01*
X99322888Y-107058399D01*
X99324018Y-107065539D01*
X99328500Y-107075149D01*
X99340000Y-107162500D01*
X99340000Y-108837500D01*
X99328500Y-108924851D01*
X99324018Y-108934460D01*
X99322888Y-108941601D01*
X99296968Y-108992470D01*
X99278964Y-109031082D01*
X99275561Y-109034484D01*
X99275040Y-109035508D01*
X99200508Y-109110040D01*
X99199484Y-109110561D01*
X99196082Y-109113964D01*
X99157464Y-109131971D01*
X99106600Y-109157888D01*
X99099461Y-109159018D01*
X99089851Y-109163500D01*
X99002500Y-109175000D01*
X98527500Y-109175000D01*
X98440149Y-109163500D01*
X98430539Y-109159019D01*
X98423398Y-109157888D01*
X98372518Y-109131963D01*
X98333918Y-109113964D01*
X98330516Y-109110562D01*
X98329491Y-109110040D01*
X98254961Y-109035510D01*
X98254438Y-109034484D01*
X98251036Y-109031082D01*
X98233026Y-108992461D01*
X98220640Y-108968150D01*
X98159360Y-108968150D01*
X98146976Y-108992452D01*
X98128964Y-109031082D01*
X98125559Y-109034486D01*
X98125038Y-109035510D01*
X98050508Y-109110040D01*
X98049484Y-109110561D01*
X98046082Y-109113964D01*
X98007464Y-109131971D01*
X97956600Y-109157888D01*
X97949461Y-109159018D01*
X97939851Y-109163500D01*
X97852500Y-109175000D01*
X97377500Y-109175000D01*
X97290149Y-109163500D01*
X97280539Y-109159019D01*
X97273398Y-109157888D01*
X97222518Y-109131963D01*
X97183918Y-109113964D01*
X97180516Y-109110562D01*
X97179491Y-109110040D01*
X97104959Y-109035508D01*
X97104436Y-109034482D01*
X97101036Y-109031082D01*
X97083039Y-108992487D01*
X97057111Y-108941600D01*
X97055979Y-108934458D01*
X97051500Y-108924851D01*
X97040000Y-108837500D01*
X97040000Y-107162500D01*
X97051500Y-107075149D01*
X97055979Y-107065542D01*
X97057111Y-107058398D01*
X97083047Y-107007495D01*
X97101036Y-106968918D01*
X97104435Y-106965518D01*
X97104959Y-106964491D01*
X97179491Y-106889959D01*
X97180518Y-106889435D01*
X97183918Y-106886036D01*
X97222500Y-106868044D01*
X97273399Y-106842111D01*
X97280542Y-106840979D01*
X97290149Y-106836500D01*
X97377500Y-106825000D01*
X97852500Y-106825000D01*
X97939851Y-106836500D01*
G37*
G36*
X105439851Y-106836500D02*
G01*
X105449457Y-106840979D01*
X105456601Y-106842111D01*
X105507493Y-106868041D01*
X105546082Y-106886036D01*
X105549482Y-106889436D01*
X105550508Y-106889959D01*
X105625040Y-106964491D01*
X105625562Y-106965516D01*
X105628964Y-106968918D01*
X105646960Y-107007512D01*
X105659361Y-107031849D01*
X105720639Y-107031849D01*
X105733043Y-107007504D01*
X105751036Y-106968918D01*
X105754435Y-106965518D01*
X105754959Y-106964491D01*
X105829491Y-106889959D01*
X105830518Y-106889435D01*
X105833918Y-106886036D01*
X105872500Y-106868044D01*
X105923399Y-106842111D01*
X105930542Y-106840979D01*
X105940149Y-106836500D01*
X106027500Y-106825000D01*
X106502500Y-106825000D01*
X106589851Y-106836500D01*
X106599457Y-106840979D01*
X106606601Y-106842111D01*
X106657493Y-106868041D01*
X106696082Y-106886036D01*
X106699482Y-106889436D01*
X106700508Y-106889959D01*
X106775040Y-106964491D01*
X106775562Y-106965516D01*
X106778964Y-106968918D01*
X106796965Y-107007523D01*
X106822888Y-107058399D01*
X106824018Y-107065539D01*
X106828500Y-107075149D01*
X106840000Y-107162500D01*
X106840000Y-108837500D01*
X106828500Y-108924851D01*
X106824018Y-108934460D01*
X106822888Y-108941601D01*
X106796968Y-108992470D01*
X106778964Y-109031082D01*
X106775561Y-109034484D01*
X106775040Y-109035508D01*
X106700508Y-109110040D01*
X106699484Y-109110561D01*
X106696082Y-109113964D01*
X106657464Y-109131971D01*
X106606600Y-109157888D01*
X106599461Y-109159018D01*
X106589851Y-109163500D01*
X106502500Y-109175000D01*
X106027500Y-109175000D01*
X105940149Y-109163500D01*
X105930539Y-109159019D01*
X105923398Y-109157888D01*
X105872518Y-109131963D01*
X105833918Y-109113964D01*
X105830516Y-109110562D01*
X105829491Y-109110040D01*
X105754961Y-109035510D01*
X105754438Y-109034484D01*
X105751036Y-109031082D01*
X105733026Y-108992461D01*
X105720640Y-108968150D01*
X105659360Y-108968150D01*
X105646976Y-108992452D01*
X105628964Y-109031082D01*
X105625559Y-109034486D01*
X105625038Y-109035510D01*
X105550508Y-109110040D01*
X105549484Y-109110561D01*
X105546082Y-109113964D01*
X105507464Y-109131971D01*
X105456600Y-109157888D01*
X105449461Y-109159018D01*
X105439851Y-109163500D01*
X105352500Y-109175000D01*
X104877500Y-109175000D01*
X104790149Y-109163500D01*
X104780539Y-109159019D01*
X104773398Y-109157888D01*
X104722518Y-109131963D01*
X104683918Y-109113964D01*
X104680516Y-109110562D01*
X104679491Y-109110040D01*
X104604959Y-109035508D01*
X104604436Y-109034482D01*
X104601036Y-109031082D01*
X104583039Y-108992487D01*
X104557111Y-108941600D01*
X104555979Y-108934458D01*
X104551500Y-108924851D01*
X104540000Y-108837500D01*
X104540000Y-107162500D01*
X104551500Y-107075149D01*
X104555979Y-107065542D01*
X104557111Y-107058398D01*
X104583047Y-107007495D01*
X104601036Y-106968918D01*
X104604435Y-106965518D01*
X104604959Y-106964491D01*
X104679491Y-106889959D01*
X104680518Y-106889435D01*
X104683918Y-106886036D01*
X104722500Y-106868044D01*
X104773399Y-106842111D01*
X104780542Y-106840979D01*
X104790149Y-106836500D01*
X104877500Y-106825000D01*
X105352500Y-106825000D01*
X105439851Y-106836500D01*
G37*
G36*
X112939851Y-106836500D02*
G01*
X112949457Y-106840979D01*
X112956601Y-106842111D01*
X113007493Y-106868041D01*
X113046082Y-106886036D01*
X113049482Y-106889436D01*
X113050508Y-106889959D01*
X113125040Y-106964491D01*
X113125562Y-106965516D01*
X113128964Y-106968918D01*
X113146960Y-107007512D01*
X113159361Y-107031849D01*
X113220639Y-107031849D01*
X113233043Y-107007504D01*
X113251036Y-106968918D01*
X113254435Y-106965518D01*
X113254959Y-106964491D01*
X113329491Y-106889959D01*
X113330518Y-106889435D01*
X113333918Y-106886036D01*
X113372500Y-106868044D01*
X113423399Y-106842111D01*
X113430542Y-106840979D01*
X113440149Y-106836500D01*
X113527500Y-106825000D01*
X114002500Y-106825000D01*
X114089851Y-106836500D01*
X114099457Y-106840979D01*
X114106601Y-106842111D01*
X114157493Y-106868041D01*
X114196082Y-106886036D01*
X114199482Y-106889436D01*
X114200508Y-106889959D01*
X114275040Y-106964491D01*
X114275562Y-106965516D01*
X114278964Y-106968918D01*
X114296965Y-107007523D01*
X114322888Y-107058399D01*
X114324018Y-107065539D01*
X114328500Y-107075149D01*
X114340000Y-107162500D01*
X114340000Y-108837500D01*
X114328500Y-108924851D01*
X114324018Y-108934460D01*
X114322888Y-108941601D01*
X114296968Y-108992470D01*
X114278964Y-109031082D01*
X114275561Y-109034484D01*
X114275040Y-109035508D01*
X114200508Y-109110040D01*
X114199484Y-109110561D01*
X114196082Y-109113964D01*
X114157464Y-109131971D01*
X114106600Y-109157888D01*
X114099461Y-109159018D01*
X114089851Y-109163500D01*
X114002500Y-109175000D01*
X113527500Y-109175000D01*
X113440149Y-109163500D01*
X113430539Y-109159019D01*
X113423398Y-109157888D01*
X113372518Y-109131963D01*
X113333918Y-109113964D01*
X113330516Y-109110562D01*
X113329491Y-109110040D01*
X113254961Y-109035510D01*
X113254438Y-109034484D01*
X113251036Y-109031082D01*
X113233026Y-108992461D01*
X113220640Y-108968150D01*
X113159360Y-108968150D01*
X113146976Y-108992452D01*
X113128964Y-109031082D01*
X113125559Y-109034486D01*
X113125038Y-109035510D01*
X113050508Y-109110040D01*
X113049484Y-109110561D01*
X113046082Y-109113964D01*
X113007464Y-109131971D01*
X112956600Y-109157888D01*
X112949461Y-109159018D01*
X112939851Y-109163500D01*
X112852500Y-109175000D01*
X112377500Y-109175000D01*
X112290149Y-109163500D01*
X112280539Y-109159019D01*
X112273398Y-109157888D01*
X112222518Y-109131963D01*
X112183918Y-109113964D01*
X112180516Y-109110562D01*
X112179491Y-109110040D01*
X112104959Y-109035508D01*
X112104436Y-109034482D01*
X112101036Y-109031082D01*
X112083039Y-108992487D01*
X112057111Y-108941600D01*
X112055979Y-108934458D01*
X112051500Y-108924851D01*
X112040000Y-108837500D01*
X112040000Y-107162500D01*
X112051500Y-107075149D01*
X112055979Y-107065542D01*
X112057111Y-107058398D01*
X112083047Y-107007495D01*
X112101036Y-106968918D01*
X112104435Y-106965518D01*
X112104959Y-106964491D01*
X112179491Y-106889959D01*
X112180518Y-106889435D01*
X112183918Y-106886036D01*
X112222500Y-106868044D01*
X112273399Y-106842111D01*
X112280542Y-106840979D01*
X112290149Y-106836500D01*
X112377500Y-106825000D01*
X112852500Y-106825000D01*
X112939851Y-106836500D01*
G37*
G36*
X120439851Y-106836500D02*
G01*
X120449457Y-106840979D01*
X120456601Y-106842111D01*
X120507493Y-106868041D01*
X120546082Y-106886036D01*
X120549482Y-106889436D01*
X120550508Y-106889959D01*
X120625040Y-106964491D01*
X120625562Y-106965516D01*
X120628964Y-106968918D01*
X120646960Y-107007512D01*
X120659361Y-107031849D01*
X120720639Y-107031849D01*
X120733043Y-107007504D01*
X120751036Y-106968918D01*
X120754435Y-106965518D01*
X120754959Y-106964491D01*
X120829491Y-106889959D01*
X120830518Y-106889435D01*
X120833918Y-106886036D01*
X120872500Y-106868044D01*
X120923399Y-106842111D01*
X120930542Y-106840979D01*
X120940149Y-106836500D01*
X121027500Y-106825000D01*
X121502500Y-106825000D01*
X121589851Y-106836500D01*
X121599457Y-106840979D01*
X121606601Y-106842111D01*
X121657493Y-106868041D01*
X121696082Y-106886036D01*
X121699482Y-106889436D01*
X121700508Y-106889959D01*
X121775040Y-106964491D01*
X121775562Y-106965516D01*
X121778964Y-106968918D01*
X121796965Y-107007523D01*
X121822888Y-107058399D01*
X121824018Y-107065539D01*
X121828500Y-107075149D01*
X121840000Y-107162500D01*
X121840000Y-108837500D01*
X121828500Y-108924851D01*
X121824018Y-108934460D01*
X121822888Y-108941601D01*
X121796968Y-108992470D01*
X121778964Y-109031082D01*
X121775561Y-109034484D01*
X121775040Y-109035508D01*
X121700508Y-109110040D01*
X121699484Y-109110561D01*
X121696082Y-109113964D01*
X121657464Y-109131971D01*
X121606600Y-109157888D01*
X121599461Y-109159018D01*
X121589851Y-109163500D01*
X121502500Y-109175000D01*
X121027500Y-109175000D01*
X120940149Y-109163500D01*
X120930539Y-109159019D01*
X120923398Y-109157888D01*
X120872518Y-109131963D01*
X120833918Y-109113964D01*
X120830516Y-109110562D01*
X120829491Y-109110040D01*
X120754961Y-109035510D01*
X120754438Y-109034484D01*
X120751036Y-109031082D01*
X120733026Y-108992461D01*
X120720640Y-108968150D01*
X120659360Y-108968150D01*
X120646976Y-108992452D01*
X120628964Y-109031082D01*
X120625559Y-109034486D01*
X120625038Y-109035510D01*
X120550508Y-109110040D01*
X120549484Y-109110561D01*
X120546082Y-109113964D01*
X120507464Y-109131971D01*
X120456600Y-109157888D01*
X120449461Y-109159018D01*
X120439851Y-109163500D01*
X120352500Y-109175000D01*
X119877500Y-109175000D01*
X119790149Y-109163500D01*
X119780539Y-109159019D01*
X119773398Y-109157888D01*
X119722518Y-109131963D01*
X119683918Y-109113964D01*
X119680516Y-109110562D01*
X119679491Y-109110040D01*
X119604959Y-109035508D01*
X119604436Y-109034482D01*
X119601036Y-109031082D01*
X119583039Y-108992487D01*
X119557111Y-108941600D01*
X119555979Y-108934458D01*
X119551500Y-108924851D01*
X119540000Y-108837500D01*
X119540000Y-107162500D01*
X119551500Y-107075149D01*
X119555979Y-107065542D01*
X119557111Y-107058398D01*
X119583047Y-107007495D01*
X119601036Y-106968918D01*
X119604435Y-106965518D01*
X119604959Y-106964491D01*
X119679491Y-106889959D01*
X119680518Y-106889435D01*
X119683918Y-106886036D01*
X119722500Y-106868044D01*
X119773399Y-106842111D01*
X119780542Y-106840979D01*
X119790149Y-106836500D01*
X119877500Y-106825000D01*
X120352500Y-106825000D01*
X120439851Y-106836500D01*
G37*
G36*
X127939851Y-106836500D02*
G01*
X127949457Y-106840979D01*
X127956601Y-106842111D01*
X128007493Y-106868041D01*
X128046082Y-106886036D01*
X128049482Y-106889436D01*
X128050508Y-106889959D01*
X128125040Y-106964491D01*
X128125562Y-106965516D01*
X128128964Y-106968918D01*
X128146960Y-107007512D01*
X128159361Y-107031849D01*
X128220639Y-107031849D01*
X128233043Y-107007504D01*
X128251036Y-106968918D01*
X128254435Y-106965518D01*
X128254959Y-106964491D01*
X128329491Y-106889959D01*
X128330518Y-106889435D01*
X128333918Y-106886036D01*
X128372500Y-106868044D01*
X128423399Y-106842111D01*
X128430542Y-106840979D01*
X128440149Y-106836500D01*
X128527500Y-106825000D01*
X129002500Y-106825000D01*
X129089851Y-106836500D01*
X129099457Y-106840979D01*
X129106601Y-106842111D01*
X129157493Y-106868041D01*
X129196082Y-106886036D01*
X129199482Y-106889436D01*
X129200508Y-106889959D01*
X129275040Y-106964491D01*
X129275562Y-106965516D01*
X129278964Y-106968918D01*
X129296965Y-107007523D01*
X129322888Y-107058399D01*
X129324018Y-107065539D01*
X129328500Y-107075149D01*
X129340000Y-107162500D01*
X129340000Y-108837500D01*
X129328500Y-108924851D01*
X129324018Y-108934460D01*
X129322888Y-108941601D01*
X129296968Y-108992470D01*
X129278964Y-109031082D01*
X129275561Y-109034484D01*
X129275040Y-109035508D01*
X129200508Y-109110040D01*
X129199484Y-109110561D01*
X129196082Y-109113964D01*
X129157464Y-109131971D01*
X129106600Y-109157888D01*
X129099461Y-109159018D01*
X129089851Y-109163500D01*
X129002500Y-109175000D01*
X128527500Y-109175000D01*
X128440149Y-109163500D01*
X128430539Y-109159019D01*
X128423398Y-109157888D01*
X128372518Y-109131963D01*
X128333918Y-109113964D01*
X128330516Y-109110562D01*
X128329491Y-109110040D01*
X128254961Y-109035510D01*
X128254438Y-109034484D01*
X128251036Y-109031082D01*
X128233026Y-108992461D01*
X128220640Y-108968150D01*
X128159360Y-108968150D01*
X128146976Y-108992452D01*
X128128964Y-109031082D01*
X128125559Y-109034486D01*
X128125038Y-109035510D01*
X128050508Y-109110040D01*
X128049484Y-109110561D01*
X128046082Y-109113964D01*
X128007464Y-109131971D01*
X127956600Y-109157888D01*
X127949461Y-109159018D01*
X127939851Y-109163500D01*
X127852500Y-109175000D01*
X127377500Y-109175000D01*
X127290149Y-109163500D01*
X127280539Y-109159019D01*
X127273398Y-109157888D01*
X127222518Y-109131963D01*
X127183918Y-109113964D01*
X127180516Y-109110562D01*
X127179491Y-109110040D01*
X127104959Y-109035508D01*
X127104436Y-109034482D01*
X127101036Y-109031082D01*
X127083039Y-108992487D01*
X127057111Y-108941600D01*
X127055979Y-108934458D01*
X127051500Y-108924851D01*
X127040000Y-108837500D01*
X127040000Y-107162500D01*
X127051500Y-107075149D01*
X127055979Y-107065542D01*
X127057111Y-107058398D01*
X127083047Y-107007495D01*
X127101036Y-106968918D01*
X127104435Y-106965518D01*
X127104959Y-106964491D01*
X127179491Y-106889959D01*
X127180518Y-106889435D01*
X127183918Y-106886036D01*
X127222500Y-106868044D01*
X127273399Y-106842111D01*
X127280542Y-106840979D01*
X127290149Y-106836500D01*
X127377500Y-106825000D01*
X127852500Y-106825000D01*
X127939851Y-106836500D01*
G37*
G36*
X135439851Y-106836500D02*
G01*
X135449457Y-106840979D01*
X135456601Y-106842111D01*
X135507493Y-106868041D01*
X135546082Y-106886036D01*
X135549482Y-106889436D01*
X135550508Y-106889959D01*
X135625040Y-106964491D01*
X135625562Y-106965516D01*
X135628964Y-106968918D01*
X135646960Y-107007512D01*
X135659361Y-107031849D01*
X135720639Y-107031849D01*
X135733043Y-107007504D01*
X135751036Y-106968918D01*
X135754435Y-106965518D01*
X135754959Y-106964491D01*
X135829491Y-106889959D01*
X135830518Y-106889435D01*
X135833918Y-106886036D01*
X135872500Y-106868044D01*
X135923399Y-106842111D01*
X135930542Y-106840979D01*
X135940149Y-106836500D01*
X136027500Y-106825000D01*
X136502500Y-106825000D01*
X136589851Y-106836500D01*
X136599457Y-106840979D01*
X136606601Y-106842111D01*
X136657493Y-106868041D01*
X136696082Y-106886036D01*
X136699482Y-106889436D01*
X136700508Y-106889959D01*
X136775040Y-106964491D01*
X136775562Y-106965516D01*
X136778964Y-106968918D01*
X136796965Y-107007523D01*
X136822888Y-107058399D01*
X136824018Y-107065539D01*
X136828500Y-107075149D01*
X136840000Y-107162500D01*
X136840000Y-108837500D01*
X136828500Y-108924851D01*
X136824018Y-108934460D01*
X136822888Y-108941601D01*
X136796968Y-108992470D01*
X136778964Y-109031082D01*
X136775561Y-109034484D01*
X136775040Y-109035508D01*
X136700508Y-109110040D01*
X136699484Y-109110561D01*
X136696082Y-109113964D01*
X136657464Y-109131971D01*
X136606600Y-109157888D01*
X136599461Y-109159018D01*
X136589851Y-109163500D01*
X136502500Y-109175000D01*
X136027500Y-109175000D01*
X135940149Y-109163500D01*
X135930539Y-109159019D01*
X135923398Y-109157888D01*
X135872518Y-109131963D01*
X135833918Y-109113964D01*
X135830516Y-109110562D01*
X135829491Y-109110040D01*
X135754961Y-109035510D01*
X135754438Y-109034484D01*
X135751036Y-109031082D01*
X135733026Y-108992461D01*
X135720640Y-108968150D01*
X135659360Y-108968150D01*
X135646976Y-108992452D01*
X135628964Y-109031082D01*
X135625559Y-109034486D01*
X135625038Y-109035510D01*
X135550508Y-109110040D01*
X135549484Y-109110561D01*
X135546082Y-109113964D01*
X135507464Y-109131971D01*
X135456600Y-109157888D01*
X135449461Y-109159018D01*
X135439851Y-109163500D01*
X135352500Y-109175000D01*
X134877500Y-109175000D01*
X134790149Y-109163500D01*
X134780539Y-109159019D01*
X134773398Y-109157888D01*
X134722518Y-109131963D01*
X134683918Y-109113964D01*
X134680516Y-109110562D01*
X134679491Y-109110040D01*
X134604959Y-109035508D01*
X134604436Y-109034482D01*
X134601036Y-109031082D01*
X134583039Y-108992487D01*
X134557111Y-108941600D01*
X134555979Y-108934458D01*
X134551500Y-108924851D01*
X134540000Y-108837500D01*
X134540000Y-107162500D01*
X134551500Y-107075149D01*
X134555979Y-107065542D01*
X134557111Y-107058398D01*
X134583047Y-107007495D01*
X134601036Y-106968918D01*
X134604435Y-106965518D01*
X134604959Y-106964491D01*
X134679491Y-106889959D01*
X134680518Y-106889435D01*
X134683918Y-106886036D01*
X134722500Y-106868044D01*
X134773399Y-106842111D01*
X134780542Y-106840979D01*
X134790149Y-106836500D01*
X134877500Y-106825000D01*
X135352500Y-106825000D01*
X135439851Y-106836500D01*
G37*
G36*
X142939851Y-106836500D02*
G01*
X142949457Y-106840979D01*
X142956601Y-106842111D01*
X143007493Y-106868041D01*
X143046082Y-106886036D01*
X143049482Y-106889436D01*
X143050508Y-106889959D01*
X143125040Y-106964491D01*
X143125562Y-106965516D01*
X143128964Y-106968918D01*
X143146960Y-107007512D01*
X143159361Y-107031849D01*
X143220639Y-107031849D01*
X143233043Y-107007504D01*
X143251036Y-106968918D01*
X143254435Y-106965518D01*
X143254959Y-106964491D01*
X143329491Y-106889959D01*
X143330518Y-106889435D01*
X143333918Y-106886036D01*
X143372500Y-106868044D01*
X143423399Y-106842111D01*
X143430542Y-106840979D01*
X143440149Y-106836500D01*
X143527500Y-106825000D01*
X144002500Y-106825000D01*
X144089851Y-106836500D01*
X144099457Y-106840979D01*
X144106601Y-106842111D01*
X144157493Y-106868041D01*
X144196082Y-106886036D01*
X144199482Y-106889436D01*
X144200508Y-106889959D01*
X144275040Y-106964491D01*
X144275562Y-106965516D01*
X144278964Y-106968918D01*
X144296965Y-107007523D01*
X144322888Y-107058399D01*
X144324018Y-107065539D01*
X144328500Y-107075149D01*
X144340000Y-107162500D01*
X144340000Y-108837500D01*
X144328500Y-108924851D01*
X144324018Y-108934460D01*
X144322888Y-108941601D01*
X144296968Y-108992470D01*
X144278964Y-109031082D01*
X144275561Y-109034484D01*
X144275040Y-109035508D01*
X144200508Y-109110040D01*
X144199484Y-109110561D01*
X144196082Y-109113964D01*
X144157464Y-109131971D01*
X144106600Y-109157888D01*
X144099461Y-109159018D01*
X144089851Y-109163500D01*
X144002500Y-109175000D01*
X143527500Y-109175000D01*
X143440149Y-109163500D01*
X143430539Y-109159019D01*
X143423398Y-109157888D01*
X143372518Y-109131963D01*
X143333918Y-109113964D01*
X143330516Y-109110562D01*
X143329491Y-109110040D01*
X143254961Y-109035510D01*
X143254438Y-109034484D01*
X143251036Y-109031082D01*
X143233026Y-108992461D01*
X143220640Y-108968150D01*
X143159360Y-108968150D01*
X143146976Y-108992452D01*
X143128964Y-109031082D01*
X143125559Y-109034486D01*
X143125038Y-109035510D01*
X143050508Y-109110040D01*
X143049484Y-109110561D01*
X143046082Y-109113964D01*
X143007464Y-109131971D01*
X142956600Y-109157888D01*
X142949461Y-109159018D01*
X142939851Y-109163500D01*
X142852500Y-109175000D01*
X142377500Y-109175000D01*
X142290149Y-109163500D01*
X142280539Y-109159019D01*
X142273398Y-109157888D01*
X142222518Y-109131963D01*
X142183918Y-109113964D01*
X142180516Y-109110562D01*
X142179491Y-109110040D01*
X142104959Y-109035508D01*
X142104436Y-109034482D01*
X142101036Y-109031082D01*
X142083039Y-108992487D01*
X142057111Y-108941600D01*
X142055979Y-108934458D01*
X142051500Y-108924851D01*
X142040000Y-108837500D01*
X142040000Y-107162500D01*
X142051500Y-107075149D01*
X142055979Y-107065542D01*
X142057111Y-107058398D01*
X142083047Y-107007495D01*
X142101036Y-106968918D01*
X142104435Y-106965518D01*
X142104959Y-106964491D01*
X142179491Y-106889959D01*
X142180518Y-106889435D01*
X142183918Y-106886036D01*
X142222500Y-106868044D01*
X142273399Y-106842111D01*
X142280542Y-106840979D01*
X142290149Y-106836500D01*
X142377500Y-106825000D01*
X142852500Y-106825000D01*
X142939851Y-106836500D01*
G37*
G36*
X150439851Y-106836500D02*
G01*
X150449457Y-106840979D01*
X150456601Y-106842111D01*
X150507493Y-106868041D01*
X150546082Y-106886036D01*
X150549482Y-106889436D01*
X150550508Y-106889959D01*
X150625040Y-106964491D01*
X150625562Y-106965516D01*
X150628964Y-106968918D01*
X150646960Y-107007512D01*
X150659361Y-107031849D01*
X150720639Y-107031849D01*
X150733043Y-107007504D01*
X150751036Y-106968918D01*
X150754435Y-106965518D01*
X150754959Y-106964491D01*
X150829491Y-106889959D01*
X150830518Y-106889435D01*
X150833918Y-106886036D01*
X150872500Y-106868044D01*
X150923399Y-106842111D01*
X150930542Y-106840979D01*
X150940149Y-106836500D01*
X151027500Y-106825000D01*
X151502500Y-106825000D01*
X151589851Y-106836500D01*
X151599457Y-106840979D01*
X151606601Y-106842111D01*
X151657493Y-106868041D01*
X151696082Y-106886036D01*
X151699482Y-106889436D01*
X151700508Y-106889959D01*
X151775040Y-106964491D01*
X151775562Y-106965516D01*
X151778964Y-106968918D01*
X151796965Y-107007523D01*
X151822888Y-107058399D01*
X151824018Y-107065539D01*
X151828500Y-107075149D01*
X151840000Y-107162500D01*
X151840000Y-108837500D01*
X151828500Y-108924851D01*
X151824018Y-108934460D01*
X151822888Y-108941601D01*
X151796968Y-108992470D01*
X151778964Y-109031082D01*
X151775561Y-109034484D01*
X151775040Y-109035508D01*
X151700508Y-109110040D01*
X151699484Y-109110561D01*
X151696082Y-109113964D01*
X151657464Y-109131971D01*
X151606600Y-109157888D01*
X151599461Y-109159018D01*
X151589851Y-109163500D01*
X151502500Y-109175000D01*
X151027500Y-109175000D01*
X150940149Y-109163500D01*
X150930539Y-109159019D01*
X150923398Y-109157888D01*
X150872518Y-109131963D01*
X150833918Y-109113964D01*
X150830516Y-109110562D01*
X150829491Y-109110040D01*
X150754961Y-109035510D01*
X150754438Y-109034484D01*
X150751036Y-109031082D01*
X150733026Y-108992461D01*
X150720640Y-108968150D01*
X150659360Y-108968150D01*
X150646976Y-108992452D01*
X150628964Y-109031082D01*
X150625559Y-109034486D01*
X150625038Y-109035510D01*
X150550508Y-109110040D01*
X150549484Y-109110561D01*
X150546082Y-109113964D01*
X150507464Y-109131971D01*
X150456600Y-109157888D01*
X150449461Y-109159018D01*
X150439851Y-109163500D01*
X150352500Y-109175000D01*
X149877500Y-109175000D01*
X149790149Y-109163500D01*
X149780539Y-109159019D01*
X149773398Y-109157888D01*
X149722518Y-109131963D01*
X149683918Y-109113964D01*
X149680516Y-109110562D01*
X149679491Y-109110040D01*
X149604959Y-109035508D01*
X149604436Y-109034482D01*
X149601036Y-109031082D01*
X149583039Y-108992487D01*
X149557111Y-108941600D01*
X149555979Y-108934458D01*
X149551500Y-108924851D01*
X149540000Y-108837500D01*
X149540000Y-107162500D01*
X149551500Y-107075149D01*
X149555979Y-107065542D01*
X149557111Y-107058398D01*
X149583047Y-107007495D01*
X149601036Y-106968918D01*
X149604435Y-106965518D01*
X149604959Y-106964491D01*
X149679491Y-106889959D01*
X149680518Y-106889435D01*
X149683918Y-106886036D01*
X149722500Y-106868044D01*
X149773399Y-106842111D01*
X149780542Y-106840979D01*
X149790149Y-106836500D01*
X149877500Y-106825000D01*
X150352500Y-106825000D01*
X150439851Y-106836500D01*
G37*
G36*
X144141256Y-98758754D02*
G01*
X144304257Y-98826271D01*
X144450954Y-98924291D01*
X144575709Y-99049046D01*
X144673729Y-99195743D01*
X144741246Y-99358744D01*
X144775666Y-99531785D01*
X144775666Y-99708215D01*
X144741246Y-99881256D01*
X144673729Y-100044257D01*
X144575709Y-100190954D01*
X144450954Y-100315709D01*
X144304257Y-100413729D01*
X144141256Y-100481246D01*
X143968215Y-100515666D01*
X143791785Y-100515666D01*
X143618744Y-100481246D01*
X143455743Y-100413729D01*
X143309046Y-100315709D01*
X143184291Y-100190954D01*
X143086271Y-100044257D01*
X143018754Y-99881256D01*
X142984334Y-99708215D01*
X142984334Y-99531785D01*
X143018754Y-99358744D01*
X143086271Y-99195743D01*
X143184291Y-99049046D01*
X143309046Y-98924291D01*
X143455743Y-98826271D01*
X143618744Y-98758754D01*
X143791785Y-98724334D01*
X143968215Y-98724334D01*
X144141256Y-98758754D01*
G37*
G36*
X151761256Y-98758754D02*
G01*
X151924257Y-98826271D01*
X152070954Y-98924291D01*
X152195709Y-99049046D01*
X152293729Y-99195743D01*
X152361246Y-99358744D01*
X152395666Y-99531785D01*
X152395666Y-99708215D01*
X152361246Y-99881256D01*
X152293729Y-100044257D01*
X152195709Y-100190954D01*
X152070954Y-100315709D01*
X151924257Y-100413729D01*
X151761256Y-100481246D01*
X151588215Y-100515666D01*
X151411785Y-100515666D01*
X151238744Y-100481246D01*
X151075743Y-100413729D01*
X150929046Y-100315709D01*
X150804291Y-100190954D01*
X150706271Y-100044257D01*
X150638754Y-99881256D01*
X150604334Y-99708215D01*
X150604334Y-99531785D01*
X150638754Y-99358744D01*
X150706271Y-99195743D01*
X150804291Y-99049046D01*
X150929046Y-98924291D01*
X151075743Y-98826271D01*
X151238744Y-98758754D01*
X151411785Y-98724334D01*
X151588215Y-98724334D01*
X151761256Y-98758754D01*
G37*
G36*
X100861256Y-96878754D02*
G01*
X101024257Y-96946271D01*
X101170954Y-97044291D01*
X101295709Y-97169046D01*
X101393729Y-97315743D01*
X101461246Y-97478744D01*
X101495666Y-97651785D01*
X101495666Y-97828215D01*
X101461246Y-98001256D01*
X101393729Y-98164257D01*
X101295709Y-98310954D01*
X101170954Y-98435709D01*
X101024257Y-98533729D01*
X100861256Y-98601246D01*
X100688215Y-98635666D01*
X100511785Y-98635666D01*
X100338744Y-98601246D01*
X100175743Y-98533729D01*
X100029046Y-98435709D01*
X99904291Y-98310954D01*
X99806271Y-98164257D01*
X99738754Y-98001256D01*
X99704334Y-97828215D01*
X99704334Y-97651785D01*
X99738754Y-97478744D01*
X99806271Y-97315743D01*
X99904291Y-97169046D01*
X100029046Y-97044291D01*
X100175743Y-96946271D01*
X100338744Y-96878754D01*
X100511785Y-96844334D01*
X100688215Y-96844334D01*
X100861256Y-96878754D01*
G37*
G36*
X103401256Y-96878754D02*
G01*
X103564257Y-96946271D01*
X103710954Y-97044291D01*
X103835709Y-97169046D01*
X103933729Y-97315743D01*
X104001246Y-97478744D01*
X104035666Y-97651785D01*
X104035666Y-97828215D01*
X104001246Y-98001256D01*
X103933729Y-98164257D01*
X103835709Y-98310954D01*
X103710954Y-98435709D01*
X103564257Y-98533729D01*
X103401256Y-98601246D01*
X103228215Y-98635666D01*
X103051785Y-98635666D01*
X102878744Y-98601246D01*
X102715743Y-98533729D01*
X102569046Y-98435709D01*
X102444291Y-98310954D01*
X102346271Y-98164257D01*
X102278754Y-98001256D01*
X102244334Y-97828215D01*
X102244334Y-97651785D01*
X102278754Y-97478744D01*
X102346271Y-97315743D01*
X102444291Y-97169046D01*
X102569046Y-97044291D01*
X102715743Y-96946271D01*
X102878744Y-96878754D01*
X103051785Y-96844334D01*
X103228215Y-96844334D01*
X103401256Y-96878754D01*
G37*
G36*
X105941256Y-96878754D02*
G01*
X106104257Y-96946271D01*
X106250954Y-97044291D01*
X106375709Y-97169046D01*
X106473729Y-97315743D01*
X106541246Y-97478744D01*
X106575666Y-97651785D01*
X106575666Y-97828215D01*
X106541246Y-98001256D01*
X106473729Y-98164257D01*
X106375709Y-98310954D01*
X106250954Y-98435709D01*
X106104257Y-98533729D01*
X105941256Y-98601246D01*
X105768215Y-98635666D01*
X105591785Y-98635666D01*
X105418744Y-98601246D01*
X105255743Y-98533729D01*
X105109046Y-98435709D01*
X104984291Y-98310954D01*
X104886271Y-98164257D01*
X104818754Y-98001256D01*
X104784334Y-97828215D01*
X104784334Y-97651785D01*
X104818754Y-97478744D01*
X104886271Y-97315743D01*
X104984291Y-97169046D01*
X105109046Y-97044291D01*
X105255743Y-96946271D01*
X105418744Y-96878754D01*
X105591785Y-96844334D01*
X105768215Y-96844334D01*
X105941256Y-96878754D01*
G37*
G36*
X108481256Y-96878754D02*
G01*
X108644257Y-96946271D01*
X108790954Y-97044291D01*
X108915709Y-97169046D01*
X109013729Y-97315743D01*
X109081246Y-97478744D01*
X109115666Y-97651785D01*
X109115666Y-97828215D01*
X109081246Y-98001256D01*
X109013729Y-98164257D01*
X108915709Y-98310954D01*
X108790954Y-98435709D01*
X108644257Y-98533729D01*
X108481256Y-98601246D01*
X108308215Y-98635666D01*
X108131785Y-98635666D01*
X107958744Y-98601246D01*
X107795743Y-98533729D01*
X107649046Y-98435709D01*
X107524291Y-98310954D01*
X107426271Y-98164257D01*
X107358754Y-98001256D01*
X107324334Y-97828215D01*
X107324334Y-97651785D01*
X107358754Y-97478744D01*
X107426271Y-97315743D01*
X107524291Y-97169046D01*
X107649046Y-97044291D01*
X107795743Y-96946271D01*
X107958744Y-96878754D01*
X108131785Y-96844334D01*
X108308215Y-96844334D01*
X108481256Y-96878754D01*
G37*
G36*
X111021256Y-96878754D02*
G01*
X111184257Y-96946271D01*
X111330954Y-97044291D01*
X111455709Y-97169046D01*
X111553729Y-97315743D01*
X111621246Y-97478744D01*
X111655666Y-97651785D01*
X111655666Y-97828215D01*
X111621246Y-98001256D01*
X111553729Y-98164257D01*
X111455709Y-98310954D01*
X111330954Y-98435709D01*
X111184257Y-98533729D01*
X111021256Y-98601246D01*
X110848215Y-98635666D01*
X110671785Y-98635666D01*
X110498744Y-98601246D01*
X110335743Y-98533729D01*
X110189046Y-98435709D01*
X110064291Y-98310954D01*
X109966271Y-98164257D01*
X109898754Y-98001256D01*
X109864334Y-97828215D01*
X109864334Y-97651785D01*
X109898754Y-97478744D01*
X109966271Y-97315743D01*
X110064291Y-97169046D01*
X110189046Y-97044291D01*
X110335743Y-96946271D01*
X110498744Y-96878754D01*
X110671785Y-96844334D01*
X110848215Y-96844334D01*
X111021256Y-96878754D01*
G37*
G36*
X113561256Y-96878754D02*
G01*
X113724257Y-96946271D01*
X113870954Y-97044291D01*
X113995709Y-97169046D01*
X114093729Y-97315743D01*
X114161246Y-97478744D01*
X114195666Y-97651785D01*
X114195666Y-97828215D01*
X114161246Y-98001256D01*
X114093729Y-98164257D01*
X113995709Y-98310954D01*
X113870954Y-98435709D01*
X113724257Y-98533729D01*
X113561256Y-98601246D01*
X113388215Y-98635666D01*
X113211785Y-98635666D01*
X113038744Y-98601246D01*
X112875743Y-98533729D01*
X112729046Y-98435709D01*
X112604291Y-98310954D01*
X112506271Y-98164257D01*
X112438754Y-98001256D01*
X112404334Y-97828215D01*
X112404334Y-97651785D01*
X112438754Y-97478744D01*
X112506271Y-97315743D01*
X112604291Y-97169046D01*
X112729046Y-97044291D01*
X112875743Y-96946271D01*
X113038744Y-96878754D01*
X113211785Y-96844334D01*
X113388215Y-96844334D01*
X113561256Y-96878754D01*
G37*
G36*
X116101256Y-96878754D02*
G01*
X116264257Y-96946271D01*
X116410954Y-97044291D01*
X116535709Y-97169046D01*
X116633729Y-97315743D01*
X116701246Y-97478744D01*
X116735666Y-97651785D01*
X116735666Y-97828215D01*
X116701246Y-98001256D01*
X116633729Y-98164257D01*
X116535709Y-98310954D01*
X116410954Y-98435709D01*
X116264257Y-98533729D01*
X116101256Y-98601246D01*
X115928215Y-98635666D01*
X115751785Y-98635666D01*
X115578744Y-98601246D01*
X115415743Y-98533729D01*
X115269046Y-98435709D01*
X115144291Y-98310954D01*
X115046271Y-98164257D01*
X114978754Y-98001256D01*
X114944334Y-97828215D01*
X114944334Y-97651785D01*
X114978754Y-97478744D01*
X115046271Y-97315743D01*
X115144291Y-97169046D01*
X115269046Y-97044291D01*
X115415743Y-96946271D01*
X115578744Y-96878754D01*
X115751785Y-96844334D01*
X115928215Y-96844334D01*
X116101256Y-96878754D01*
G37*
G36*
X118641256Y-96878754D02*
G01*
X118804257Y-96946271D01*
X118950954Y-97044291D01*
X119075709Y-97169046D01*
X119173729Y-97315743D01*
X119241246Y-97478744D01*
X119275666Y-97651785D01*
X119275666Y-97828215D01*
X119241246Y-98001256D01*
X119173729Y-98164257D01*
X119075709Y-98310954D01*
X118950954Y-98435709D01*
X118804257Y-98533729D01*
X118641256Y-98601246D01*
X118468215Y-98635666D01*
X118291785Y-98635666D01*
X118118744Y-98601246D01*
X117955743Y-98533729D01*
X117809046Y-98435709D01*
X117684291Y-98310954D01*
X117586271Y-98164257D01*
X117518754Y-98001256D01*
X117484334Y-97828215D01*
X117484334Y-97651785D01*
X117518754Y-97478744D01*
X117586271Y-97315743D01*
X117684291Y-97169046D01*
X117809046Y-97044291D01*
X117955743Y-96946271D01*
X118118744Y-96878754D01*
X118291785Y-96844334D01*
X118468215Y-96844334D01*
X118641256Y-96878754D01*
G37*
G36*
X121181256Y-96878754D02*
G01*
X121344257Y-96946271D01*
X121490954Y-97044291D01*
X121615709Y-97169046D01*
X121713729Y-97315743D01*
X121781246Y-97478744D01*
X121815666Y-97651785D01*
X121815666Y-97828215D01*
X121781246Y-98001256D01*
X121713729Y-98164257D01*
X121615709Y-98310954D01*
X121490954Y-98435709D01*
X121344257Y-98533729D01*
X121181256Y-98601246D01*
X121008215Y-98635666D01*
X120831785Y-98635666D01*
X120658744Y-98601246D01*
X120495743Y-98533729D01*
X120349046Y-98435709D01*
X120224291Y-98310954D01*
X120126271Y-98164257D01*
X120058754Y-98001256D01*
X120024334Y-97828215D01*
X120024334Y-97651785D01*
X120058754Y-97478744D01*
X120126271Y-97315743D01*
X120224291Y-97169046D01*
X120349046Y-97044291D01*
X120495743Y-96946271D01*
X120658744Y-96878754D01*
X120831785Y-96844334D01*
X121008215Y-96844334D01*
X121181256Y-96878754D01*
G37*
G36*
X123721256Y-96878754D02*
G01*
X123884257Y-96946271D01*
X124030954Y-97044291D01*
X124155709Y-97169046D01*
X124253729Y-97315743D01*
X124321246Y-97478744D01*
X124355666Y-97651785D01*
X124355666Y-97828215D01*
X124321246Y-98001256D01*
X124253729Y-98164257D01*
X124155709Y-98310954D01*
X124030954Y-98435709D01*
X123884257Y-98533729D01*
X123721256Y-98601246D01*
X123548215Y-98635666D01*
X123371785Y-98635666D01*
X123198744Y-98601246D01*
X123035743Y-98533729D01*
X122889046Y-98435709D01*
X122764291Y-98310954D01*
X122666271Y-98164257D01*
X122598754Y-98001256D01*
X122564334Y-97828215D01*
X122564334Y-97651785D01*
X122598754Y-97478744D01*
X122666271Y-97315743D01*
X122764291Y-97169046D01*
X122889046Y-97044291D01*
X123035743Y-96946271D01*
X123198744Y-96878754D01*
X123371785Y-96844334D01*
X123548215Y-96844334D01*
X123721256Y-96878754D01*
G37*
G36*
X126261256Y-96878754D02*
G01*
X126424257Y-96946271D01*
X126570954Y-97044291D01*
X126695709Y-97169046D01*
X126793729Y-97315743D01*
X126861246Y-97478744D01*
X126895666Y-97651785D01*
X126895666Y-97828215D01*
X126861246Y-98001256D01*
X126793729Y-98164257D01*
X126695709Y-98310954D01*
X126570954Y-98435709D01*
X126424257Y-98533729D01*
X126261256Y-98601246D01*
X126088215Y-98635666D01*
X125911785Y-98635666D01*
X125738744Y-98601246D01*
X125575743Y-98533729D01*
X125429046Y-98435709D01*
X125304291Y-98310954D01*
X125206271Y-98164257D01*
X125138754Y-98001256D01*
X125104334Y-97828215D01*
X125104334Y-97651785D01*
X125138754Y-97478744D01*
X125206271Y-97315743D01*
X125304291Y-97169046D01*
X125429046Y-97044291D01*
X125575743Y-96946271D01*
X125738744Y-96878754D01*
X125911785Y-96844334D01*
X126088215Y-96844334D01*
X126261256Y-96878754D01*
G37*
G36*
X128801256Y-96878754D02*
G01*
X128964257Y-96946271D01*
X129110954Y-97044291D01*
X129235709Y-97169046D01*
X129333729Y-97315743D01*
X129401246Y-97478744D01*
X129435666Y-97651785D01*
X129435666Y-97828215D01*
X129401246Y-98001256D01*
X129333729Y-98164257D01*
X129235709Y-98310954D01*
X129110954Y-98435709D01*
X128964257Y-98533729D01*
X128801256Y-98601246D01*
X128628215Y-98635666D01*
X128451785Y-98635666D01*
X128278744Y-98601246D01*
X128115743Y-98533729D01*
X127969046Y-98435709D01*
X127844291Y-98310954D01*
X127746271Y-98164257D01*
X127678754Y-98001256D01*
X127644334Y-97828215D01*
X127644334Y-97651785D01*
X127678754Y-97478744D01*
X127746271Y-97315743D01*
X127844291Y-97169046D01*
X127969046Y-97044291D01*
X128115743Y-96946271D01*
X128278744Y-96878754D01*
X128451785Y-96844334D01*
X128628215Y-96844334D01*
X128801256Y-96878754D01*
G37*
G36*
X131341256Y-96878754D02*
G01*
X131504257Y-96946271D01*
X131650954Y-97044291D01*
X131775709Y-97169046D01*
X131873729Y-97315743D01*
X131941246Y-97478744D01*
X131975666Y-97651785D01*
X131975666Y-97828215D01*
X131941246Y-98001256D01*
X131873729Y-98164257D01*
X131775709Y-98310954D01*
X131650954Y-98435709D01*
X131504257Y-98533729D01*
X131341256Y-98601246D01*
X131168215Y-98635666D01*
X130991785Y-98635666D01*
X130818744Y-98601246D01*
X130655743Y-98533729D01*
X130509046Y-98435709D01*
X130384291Y-98310954D01*
X130286271Y-98164257D01*
X130218754Y-98001256D01*
X130184334Y-97828215D01*
X130184334Y-97651785D01*
X130218754Y-97478744D01*
X130286271Y-97315743D01*
X130384291Y-97169046D01*
X130509046Y-97044291D01*
X130655743Y-96946271D01*
X130818744Y-96878754D01*
X130991785Y-96844334D01*
X131168215Y-96844334D01*
X131341256Y-96878754D01*
G37*
G36*
X133881256Y-96878754D02*
G01*
X134044257Y-96946271D01*
X134190954Y-97044291D01*
X134315709Y-97169046D01*
X134413729Y-97315743D01*
X134481246Y-97478744D01*
X134515666Y-97651785D01*
X134515666Y-97828215D01*
X134481246Y-98001256D01*
X134413729Y-98164257D01*
X134315709Y-98310954D01*
X134190954Y-98435709D01*
X134044257Y-98533729D01*
X133881256Y-98601246D01*
X133708215Y-98635666D01*
X133531785Y-98635666D01*
X133358744Y-98601246D01*
X133195743Y-98533729D01*
X133049046Y-98435709D01*
X132924291Y-98310954D01*
X132826271Y-98164257D01*
X132758754Y-98001256D01*
X132724334Y-97828215D01*
X132724334Y-97651785D01*
X132758754Y-97478744D01*
X132826271Y-97315743D01*
X132924291Y-97169046D01*
X133049046Y-97044291D01*
X133195743Y-96946271D01*
X133358744Y-96878754D01*
X133531785Y-96844334D01*
X133708215Y-96844334D01*
X133881256Y-96878754D01*
G37*
G36*
X136421256Y-96878754D02*
G01*
X136584257Y-96946271D01*
X136730954Y-97044291D01*
X136855709Y-97169046D01*
X136953729Y-97315743D01*
X137021246Y-97478744D01*
X137055666Y-97651785D01*
X137055666Y-97828215D01*
X137021246Y-98001256D01*
X136953729Y-98164257D01*
X136855709Y-98310954D01*
X136730954Y-98435709D01*
X136584257Y-98533729D01*
X136421256Y-98601246D01*
X136248215Y-98635666D01*
X136071785Y-98635666D01*
X135898744Y-98601246D01*
X135735743Y-98533729D01*
X135589046Y-98435709D01*
X135464291Y-98310954D01*
X135366271Y-98164257D01*
X135298754Y-98001256D01*
X135264334Y-97828215D01*
X135264334Y-97651785D01*
X135298754Y-97478744D01*
X135366271Y-97315743D01*
X135464291Y-97169046D01*
X135589046Y-97044291D01*
X135735743Y-96946271D01*
X135898744Y-96878754D01*
X136071785Y-96844334D01*
X136248215Y-96844334D01*
X136421256Y-96878754D01*
G37*
G36*
X144141256Y-96218754D02*
G01*
X144304257Y-96286271D01*
X144450954Y-96384291D01*
X144575709Y-96509046D01*
X144673729Y-96655743D01*
X144741246Y-96818744D01*
X144775666Y-96991785D01*
X144775666Y-97168215D01*
X144741246Y-97341256D01*
X144673729Y-97504257D01*
X144575709Y-97650954D01*
X144450954Y-97775709D01*
X144304257Y-97873729D01*
X144141256Y-97941246D01*
X143968215Y-97975666D01*
X143791785Y-97975666D01*
X143618744Y-97941246D01*
X143455743Y-97873729D01*
X143309046Y-97775709D01*
X143184291Y-97650954D01*
X143086271Y-97504257D01*
X143018754Y-97341256D01*
X142984334Y-97168215D01*
X142984334Y-96991785D01*
X143018754Y-96818744D01*
X143086271Y-96655743D01*
X143184291Y-96509046D01*
X143309046Y-96384291D01*
X143455743Y-96286271D01*
X143618744Y-96218754D01*
X143791785Y-96184334D01*
X143968215Y-96184334D01*
X144141256Y-96218754D01*
G37*
G36*
X151761256Y-96218754D02*
G01*
X151924257Y-96286271D01*
X152070954Y-96384291D01*
X152195709Y-96509046D01*
X152293729Y-96655743D01*
X152361246Y-96818744D01*
X152395666Y-96991785D01*
X152395666Y-97168215D01*
X152361246Y-97341256D01*
X152293729Y-97504257D01*
X152195709Y-97650954D01*
X152070954Y-97775709D01*
X151924257Y-97873729D01*
X151761256Y-97941246D01*
X151588215Y-97975666D01*
X151411785Y-97975666D01*
X151238744Y-97941246D01*
X151075743Y-97873729D01*
X150929046Y-97775709D01*
X150804291Y-97650954D01*
X150706271Y-97504257D01*
X150638754Y-97341256D01*
X150604334Y-97168215D01*
X150604334Y-96991785D01*
X150638754Y-96818744D01*
X150706271Y-96655743D01*
X150804291Y-96509046D01*
X150929046Y-96384291D01*
X151075743Y-96286271D01*
X151238744Y-96218754D01*
X151411785Y-96184334D01*
X151588215Y-96184334D01*
X151761256Y-96218754D01*
G37*
G36*
X144141256Y-93678754D02*
G01*
X144304257Y-93746271D01*
X144450954Y-93844291D01*
X144575709Y-93969046D01*
X144673729Y-94115743D01*
X144741246Y-94278744D01*
X144775666Y-94451785D01*
X144775666Y-94628215D01*
X144741246Y-94801256D01*
X144673729Y-94964257D01*
X144575709Y-95110954D01*
X144450954Y-95235709D01*
X144304257Y-95333729D01*
X144141256Y-95401246D01*
X143968215Y-95435666D01*
X143791785Y-95435666D01*
X143618744Y-95401246D01*
X143455743Y-95333729D01*
X143309046Y-95235709D01*
X143184291Y-95110954D01*
X143086271Y-94964257D01*
X143018754Y-94801256D01*
X142984334Y-94628215D01*
X142984334Y-94451785D01*
X143018754Y-94278744D01*
X143086271Y-94115743D01*
X143184291Y-93969046D01*
X143309046Y-93844291D01*
X143455743Y-93746271D01*
X143618744Y-93678754D01*
X143791785Y-93644334D01*
X143968215Y-93644334D01*
X144141256Y-93678754D01*
G37*
G36*
X151761256Y-93678754D02*
G01*
X151924257Y-93746271D01*
X152070954Y-93844291D01*
X152195709Y-93969046D01*
X152293729Y-94115743D01*
X152361246Y-94278744D01*
X152395666Y-94451785D01*
X152395666Y-94628215D01*
X152361246Y-94801256D01*
X152293729Y-94964257D01*
X152195709Y-95110954D01*
X152070954Y-95235709D01*
X151924257Y-95333729D01*
X151761256Y-95401246D01*
X151588215Y-95435666D01*
X151411785Y-95435666D01*
X151238744Y-95401246D01*
X151075743Y-95333729D01*
X150929046Y-95235709D01*
X150804291Y-95110954D01*
X150706271Y-94964257D01*
X150638754Y-94801256D01*
X150604334Y-94628215D01*
X150604334Y-94451785D01*
X150638754Y-94278744D01*
X150706271Y-94115743D01*
X150804291Y-93969046D01*
X150929046Y-93844291D01*
X151075743Y-93746271D01*
X151238744Y-93678754D01*
X151411785Y-93644334D01*
X151588215Y-93644334D01*
X151761256Y-93678754D01*
G37*
G36*
X144141256Y-91138754D02*
G01*
X144304257Y-91206271D01*
X144450954Y-91304291D01*
X144575709Y-91429046D01*
X144673729Y-91575743D01*
X144741246Y-91738744D01*
X144775666Y-91911785D01*
X144775666Y-92088215D01*
X144741246Y-92261256D01*
X144673729Y-92424257D01*
X144575709Y-92570954D01*
X144450954Y-92695709D01*
X144304257Y-92793729D01*
X144141256Y-92861246D01*
X143968215Y-92895666D01*
X143791785Y-92895666D01*
X143618744Y-92861246D01*
X143455743Y-92793729D01*
X143309046Y-92695709D01*
X143184291Y-92570954D01*
X143086271Y-92424257D01*
X143018754Y-92261256D01*
X142984334Y-92088215D01*
X142984334Y-91911785D01*
X143018754Y-91738744D01*
X143086271Y-91575743D01*
X143184291Y-91429046D01*
X143309046Y-91304291D01*
X143455743Y-91206271D01*
X143618744Y-91138754D01*
X143791785Y-91104334D01*
X143968215Y-91104334D01*
X144141256Y-91138754D01*
G37*
G36*
X151761256Y-91138754D02*
G01*
X151924257Y-91206271D01*
X152070954Y-91304291D01*
X152195709Y-91429046D01*
X152293729Y-91575743D01*
X152361246Y-91738744D01*
X152395666Y-91911785D01*
X152395666Y-92088215D01*
X152361246Y-92261256D01*
X152293729Y-92424257D01*
X152195709Y-92570954D01*
X152070954Y-92695709D01*
X151924257Y-92793729D01*
X151761256Y-92861246D01*
X151588215Y-92895666D01*
X151411785Y-92895666D01*
X151238744Y-92861246D01*
X151075743Y-92793729D01*
X150929046Y-92695709D01*
X150804291Y-92570954D01*
X150706271Y-92424257D01*
X150638754Y-92261256D01*
X150604334Y-92088215D01*
X150604334Y-91911785D01*
X150638754Y-91738744D01*
X150706271Y-91575743D01*
X150804291Y-91429046D01*
X150929046Y-91304291D01*
X151075743Y-91206271D01*
X151238744Y-91138754D01*
X151411785Y-91104334D01*
X151588215Y-91104334D01*
X151761256Y-91138754D01*
G37*
G36*
X144141256Y-88598754D02*
G01*
X144304257Y-88666271D01*
X144450954Y-88764291D01*
X144575709Y-88889046D01*
X144673729Y-89035743D01*
X144741246Y-89198744D01*
X144775666Y-89371785D01*
X144775666Y-89548215D01*
X144741246Y-89721256D01*
X144673729Y-89884257D01*
X144575709Y-90030954D01*
X144450954Y-90155709D01*
X144304257Y-90253729D01*
X144141256Y-90321246D01*
X143968215Y-90355666D01*
X143791785Y-90355666D01*
X143618744Y-90321246D01*
X143455743Y-90253729D01*
X143309046Y-90155709D01*
X143184291Y-90030954D01*
X143086271Y-89884257D01*
X143018754Y-89721256D01*
X142984334Y-89548215D01*
X142984334Y-89371785D01*
X143018754Y-89198744D01*
X143086271Y-89035743D01*
X143184291Y-88889046D01*
X143309046Y-88764291D01*
X143455743Y-88666271D01*
X143618744Y-88598754D01*
X143791785Y-88564334D01*
X143968215Y-88564334D01*
X144141256Y-88598754D01*
G37*
G36*
X151761256Y-88598754D02*
G01*
X151924257Y-88666271D01*
X152070954Y-88764291D01*
X152195709Y-88889046D01*
X152293729Y-89035743D01*
X152361246Y-89198744D01*
X152395666Y-89371785D01*
X152395666Y-89548215D01*
X152361246Y-89721256D01*
X152293729Y-89884257D01*
X152195709Y-90030954D01*
X152070954Y-90155709D01*
X151924257Y-90253729D01*
X151761256Y-90321246D01*
X151588215Y-90355666D01*
X151411785Y-90355666D01*
X151238744Y-90321246D01*
X151075743Y-90253729D01*
X150929046Y-90155709D01*
X150804291Y-90030954D01*
X150706271Y-89884257D01*
X150638754Y-89721256D01*
X150604334Y-89548215D01*
X150604334Y-89371785D01*
X150638754Y-89198744D01*
X150706271Y-89035743D01*
X150804291Y-88889046D01*
X150929046Y-88764291D01*
X151075743Y-88666271D01*
X151238744Y-88598754D01*
X151411785Y-88564334D01*
X151588215Y-88564334D01*
X151761256Y-88598754D01*
G37*
G36*
X144141256Y-86058754D02*
G01*
X144304257Y-86126271D01*
X144450954Y-86224291D01*
X144575709Y-86349046D01*
X144673729Y-86495743D01*
X144741246Y-86658744D01*
X144775666Y-86831785D01*
X144775666Y-87008215D01*
X144741246Y-87181256D01*
X144673729Y-87344257D01*
X144575709Y-87490954D01*
X144450954Y-87615709D01*
X144304257Y-87713729D01*
X144141256Y-87781246D01*
X143968215Y-87815666D01*
X143791785Y-87815666D01*
X143618744Y-87781246D01*
X143455743Y-87713729D01*
X143309046Y-87615709D01*
X143184291Y-87490954D01*
X143086271Y-87344257D01*
X143018754Y-87181256D01*
X142984334Y-87008215D01*
X142984334Y-86831785D01*
X143018754Y-86658744D01*
X143086271Y-86495743D01*
X143184291Y-86349046D01*
X143309046Y-86224291D01*
X143455743Y-86126271D01*
X143618744Y-86058754D01*
X143791785Y-86024334D01*
X143968215Y-86024334D01*
X144141256Y-86058754D01*
G37*
G36*
X151761256Y-86058754D02*
G01*
X151924257Y-86126271D01*
X152070954Y-86224291D01*
X152195709Y-86349046D01*
X152293729Y-86495743D01*
X152361246Y-86658744D01*
X152395666Y-86831785D01*
X152395666Y-87008215D01*
X152361246Y-87181256D01*
X152293729Y-87344257D01*
X152195709Y-87490954D01*
X152070954Y-87615709D01*
X151924257Y-87713729D01*
X151761256Y-87781246D01*
X151588215Y-87815666D01*
X151411785Y-87815666D01*
X151238744Y-87781246D01*
X151075743Y-87713729D01*
X150929046Y-87615709D01*
X150804291Y-87490954D01*
X150706271Y-87344257D01*
X150638754Y-87181256D01*
X150604334Y-87008215D01*
X150604334Y-86831785D01*
X150638754Y-86658744D01*
X150706271Y-86495743D01*
X150804291Y-86349046D01*
X150929046Y-86224291D01*
X151075743Y-86126271D01*
X151238744Y-86058754D01*
X151411785Y-86024334D01*
X151588215Y-86024334D01*
X151761256Y-86058754D01*
G37*
G36*
X144141256Y-83518754D02*
G01*
X144304257Y-83586271D01*
X144450954Y-83684291D01*
X144575709Y-83809046D01*
X144673729Y-83955743D01*
X144741246Y-84118744D01*
X144775666Y-84291785D01*
X144775666Y-84468215D01*
X144741246Y-84641256D01*
X144673729Y-84804257D01*
X144575709Y-84950954D01*
X144450954Y-85075709D01*
X144304257Y-85173729D01*
X144141256Y-85241246D01*
X143968215Y-85275666D01*
X143791785Y-85275666D01*
X143618744Y-85241246D01*
X143455743Y-85173729D01*
X143309046Y-85075709D01*
X143184291Y-84950954D01*
X143086271Y-84804257D01*
X143018754Y-84641256D01*
X142984334Y-84468215D01*
X142984334Y-84291785D01*
X143018754Y-84118744D01*
X143086271Y-83955743D01*
X143184291Y-83809046D01*
X143309046Y-83684291D01*
X143455743Y-83586271D01*
X143618744Y-83518754D01*
X143791785Y-83484334D01*
X143968215Y-83484334D01*
X144141256Y-83518754D01*
G37*
G36*
X151761256Y-83518754D02*
G01*
X151924257Y-83586271D01*
X152070954Y-83684291D01*
X152195709Y-83809046D01*
X152293729Y-83955743D01*
X152361246Y-84118744D01*
X152395666Y-84291785D01*
X152395666Y-84468215D01*
X152361246Y-84641256D01*
X152293729Y-84804257D01*
X152195709Y-84950954D01*
X152070954Y-85075709D01*
X151924257Y-85173729D01*
X151761256Y-85241246D01*
X151588215Y-85275666D01*
X151411785Y-85275666D01*
X151238744Y-85241246D01*
X151075743Y-85173729D01*
X150929046Y-85075709D01*
X150804291Y-84950954D01*
X150706271Y-84804257D01*
X150638754Y-84641256D01*
X150604334Y-84468215D01*
X150604334Y-84291785D01*
X150638754Y-84118744D01*
X150706271Y-83955743D01*
X150804291Y-83809046D01*
X150929046Y-83684291D01*
X151075743Y-83586271D01*
X151238744Y-83518754D01*
X151411785Y-83484334D01*
X151588215Y-83484334D01*
X151761256Y-83518754D01*
G37*
G36*
X136998268Y-81607612D02*
G01*
X137030711Y-81629289D01*
X137052388Y-81661732D01*
X137060000Y-81700000D01*
X137060000Y-83300000D01*
X137052388Y-83338268D01*
X137030711Y-83370711D01*
X136998268Y-83392388D01*
X136960000Y-83400000D01*
X135360000Y-83400000D01*
X135321732Y-83392388D01*
X135289289Y-83370711D01*
X135267612Y-83338268D01*
X135260000Y-83300000D01*
X135260000Y-81700000D01*
X135267612Y-81661732D01*
X135289289Y-81629289D01*
X135321732Y-81607612D01*
X135360000Y-81600000D01*
X136960000Y-81600000D01*
X136998268Y-81607612D01*
G37*
G36*
X100861256Y-81638754D02*
G01*
X101024257Y-81706271D01*
X101170954Y-81804291D01*
X101295709Y-81929046D01*
X101393729Y-82075743D01*
X101461246Y-82238744D01*
X101495666Y-82411785D01*
X101495666Y-82588215D01*
X101461246Y-82761256D01*
X101393729Y-82924257D01*
X101295709Y-83070954D01*
X101170954Y-83195709D01*
X101024257Y-83293729D01*
X100861256Y-83361246D01*
X100688215Y-83395666D01*
X100511785Y-83395666D01*
X100338744Y-83361246D01*
X100175743Y-83293729D01*
X100029046Y-83195709D01*
X99904291Y-83070954D01*
X99806271Y-82924257D01*
X99738754Y-82761256D01*
X99704334Y-82588215D01*
X99704334Y-82411785D01*
X99738754Y-82238744D01*
X99806271Y-82075743D01*
X99904291Y-81929046D01*
X100029046Y-81804291D01*
X100175743Y-81706271D01*
X100338744Y-81638754D01*
X100511785Y-81604334D01*
X100688215Y-81604334D01*
X100861256Y-81638754D01*
G37*
G36*
X103401256Y-81638754D02*
G01*
X103564257Y-81706271D01*
X103710954Y-81804291D01*
X103835709Y-81929046D01*
X103933729Y-82075743D01*
X104001246Y-82238744D01*
X104035666Y-82411785D01*
X104035666Y-82588215D01*
X104001246Y-82761256D01*
X103933729Y-82924257D01*
X103835709Y-83070954D01*
X103710954Y-83195709D01*
X103564257Y-83293729D01*
X103401256Y-83361246D01*
X103228215Y-83395666D01*
X103051785Y-83395666D01*
X102878744Y-83361246D01*
X102715743Y-83293729D01*
X102569046Y-83195709D01*
X102444291Y-83070954D01*
X102346271Y-82924257D01*
X102278754Y-82761256D01*
X102244334Y-82588215D01*
X102244334Y-82411785D01*
X102278754Y-82238744D01*
X102346271Y-82075743D01*
X102444291Y-81929046D01*
X102569046Y-81804291D01*
X102715743Y-81706271D01*
X102878744Y-81638754D01*
X103051785Y-81604334D01*
X103228215Y-81604334D01*
X103401256Y-81638754D01*
G37*
G36*
X105941256Y-81638754D02*
G01*
X106104257Y-81706271D01*
X106250954Y-81804291D01*
X106375709Y-81929046D01*
X106473729Y-82075743D01*
X106541246Y-82238744D01*
X106575666Y-82411785D01*
X106575666Y-82588215D01*
X106541246Y-82761256D01*
X106473729Y-82924257D01*
X106375709Y-83070954D01*
X106250954Y-83195709D01*
X106104257Y-83293729D01*
X105941256Y-83361246D01*
X105768215Y-83395666D01*
X105591785Y-83395666D01*
X105418744Y-83361246D01*
X105255743Y-83293729D01*
X105109046Y-83195709D01*
X104984291Y-83070954D01*
X104886271Y-82924257D01*
X104818754Y-82761256D01*
X104784334Y-82588215D01*
X104784334Y-82411785D01*
X104818754Y-82238744D01*
X104886271Y-82075743D01*
X104984291Y-81929046D01*
X105109046Y-81804291D01*
X105255743Y-81706271D01*
X105418744Y-81638754D01*
X105591785Y-81604334D01*
X105768215Y-81604334D01*
X105941256Y-81638754D01*
G37*
G36*
X108481256Y-81638754D02*
G01*
X108644257Y-81706271D01*
X108790954Y-81804291D01*
X108915709Y-81929046D01*
X109013729Y-82075743D01*
X109081246Y-82238744D01*
X109115666Y-82411785D01*
X109115666Y-82588215D01*
X109081246Y-82761256D01*
X109013729Y-82924257D01*
X108915709Y-83070954D01*
X108790954Y-83195709D01*
X108644257Y-83293729D01*
X108481256Y-83361246D01*
X108308215Y-83395666D01*
X108131785Y-83395666D01*
X107958744Y-83361246D01*
X107795743Y-83293729D01*
X107649046Y-83195709D01*
X107524291Y-83070954D01*
X107426271Y-82924257D01*
X107358754Y-82761256D01*
X107324334Y-82588215D01*
X107324334Y-82411785D01*
X107358754Y-82238744D01*
X107426271Y-82075743D01*
X107524291Y-81929046D01*
X107649046Y-81804291D01*
X107795743Y-81706271D01*
X107958744Y-81638754D01*
X108131785Y-81604334D01*
X108308215Y-81604334D01*
X108481256Y-81638754D01*
G37*
G36*
X111021256Y-81638754D02*
G01*
X111184257Y-81706271D01*
X111330954Y-81804291D01*
X111455709Y-81929046D01*
X111553729Y-82075743D01*
X111621246Y-82238744D01*
X111655666Y-82411785D01*
X111655666Y-82588215D01*
X111621246Y-82761256D01*
X111553729Y-82924257D01*
X111455709Y-83070954D01*
X111330954Y-83195709D01*
X111184257Y-83293729D01*
X111021256Y-83361246D01*
X110848215Y-83395666D01*
X110671785Y-83395666D01*
X110498744Y-83361246D01*
X110335743Y-83293729D01*
X110189046Y-83195709D01*
X110064291Y-83070954D01*
X109966271Y-82924257D01*
X109898754Y-82761256D01*
X109864334Y-82588215D01*
X109864334Y-82411785D01*
X109898754Y-82238744D01*
X109966271Y-82075743D01*
X110064291Y-81929046D01*
X110189046Y-81804291D01*
X110335743Y-81706271D01*
X110498744Y-81638754D01*
X110671785Y-81604334D01*
X110848215Y-81604334D01*
X111021256Y-81638754D01*
G37*
G36*
X113561256Y-81638754D02*
G01*
X113724257Y-81706271D01*
X113870954Y-81804291D01*
X113995709Y-81929046D01*
X114093729Y-82075743D01*
X114161246Y-82238744D01*
X114195666Y-82411785D01*
X114195666Y-82588215D01*
X114161246Y-82761256D01*
X114093729Y-82924257D01*
X113995709Y-83070954D01*
X113870954Y-83195709D01*
X113724257Y-83293729D01*
X113561256Y-83361246D01*
X113388215Y-83395666D01*
X113211785Y-83395666D01*
X113038744Y-83361246D01*
X112875743Y-83293729D01*
X112729046Y-83195709D01*
X112604291Y-83070954D01*
X112506271Y-82924257D01*
X112438754Y-82761256D01*
X112404334Y-82588215D01*
X112404334Y-82411785D01*
X112438754Y-82238744D01*
X112506271Y-82075743D01*
X112604291Y-81929046D01*
X112729046Y-81804291D01*
X112875743Y-81706271D01*
X113038744Y-81638754D01*
X113211785Y-81604334D01*
X113388215Y-81604334D01*
X113561256Y-81638754D01*
G37*
G36*
X116101256Y-81638754D02*
G01*
X116264257Y-81706271D01*
X116410954Y-81804291D01*
X116535709Y-81929046D01*
X116633729Y-82075743D01*
X116701246Y-82238744D01*
X116735666Y-82411785D01*
X116735666Y-82588215D01*
X116701246Y-82761256D01*
X116633729Y-82924257D01*
X116535709Y-83070954D01*
X116410954Y-83195709D01*
X116264257Y-83293729D01*
X116101256Y-83361246D01*
X115928215Y-83395666D01*
X115751785Y-83395666D01*
X115578744Y-83361246D01*
X115415743Y-83293729D01*
X115269046Y-83195709D01*
X115144291Y-83070954D01*
X115046271Y-82924257D01*
X114978754Y-82761256D01*
X114944334Y-82588215D01*
X114944334Y-82411785D01*
X114978754Y-82238744D01*
X115046271Y-82075743D01*
X115144291Y-81929046D01*
X115269046Y-81804291D01*
X115415743Y-81706271D01*
X115578744Y-81638754D01*
X115751785Y-81604334D01*
X115928215Y-81604334D01*
X116101256Y-81638754D01*
G37*
G36*
X118641256Y-81638754D02*
G01*
X118804257Y-81706271D01*
X118950954Y-81804291D01*
X119075709Y-81929046D01*
X119173729Y-82075743D01*
X119241246Y-82238744D01*
X119275666Y-82411785D01*
X119275666Y-82588215D01*
X119241246Y-82761256D01*
X119173729Y-82924257D01*
X119075709Y-83070954D01*
X118950954Y-83195709D01*
X118804257Y-83293729D01*
X118641256Y-83361246D01*
X118468215Y-83395666D01*
X118291785Y-83395666D01*
X118118744Y-83361246D01*
X117955743Y-83293729D01*
X117809046Y-83195709D01*
X117684291Y-83070954D01*
X117586271Y-82924257D01*
X117518754Y-82761256D01*
X117484334Y-82588215D01*
X117484334Y-82411785D01*
X117518754Y-82238744D01*
X117586271Y-82075743D01*
X117684291Y-81929046D01*
X117809046Y-81804291D01*
X117955743Y-81706271D01*
X118118744Y-81638754D01*
X118291785Y-81604334D01*
X118468215Y-81604334D01*
X118641256Y-81638754D01*
G37*
G36*
X121181256Y-81638754D02*
G01*
X121344257Y-81706271D01*
X121490954Y-81804291D01*
X121615709Y-81929046D01*
X121713729Y-82075743D01*
X121781246Y-82238744D01*
X121815666Y-82411785D01*
X121815666Y-82588215D01*
X121781246Y-82761256D01*
X121713729Y-82924257D01*
X121615709Y-83070954D01*
X121490954Y-83195709D01*
X121344257Y-83293729D01*
X121181256Y-83361246D01*
X121008215Y-83395666D01*
X120831785Y-83395666D01*
X120658744Y-83361246D01*
X120495743Y-83293729D01*
X120349046Y-83195709D01*
X120224291Y-83070954D01*
X120126271Y-82924257D01*
X120058754Y-82761256D01*
X120024334Y-82588215D01*
X120024334Y-82411785D01*
X120058754Y-82238744D01*
X120126271Y-82075743D01*
X120224291Y-81929046D01*
X120349046Y-81804291D01*
X120495743Y-81706271D01*
X120658744Y-81638754D01*
X120831785Y-81604334D01*
X121008215Y-81604334D01*
X121181256Y-81638754D01*
G37*
G36*
X123721256Y-81638754D02*
G01*
X123884257Y-81706271D01*
X124030954Y-81804291D01*
X124155709Y-81929046D01*
X124253729Y-82075743D01*
X124321246Y-82238744D01*
X124355666Y-82411785D01*
X124355666Y-82588215D01*
X124321246Y-82761256D01*
X124253729Y-82924257D01*
X124155709Y-83070954D01*
X124030954Y-83195709D01*
X123884257Y-83293729D01*
X123721256Y-83361246D01*
X123548215Y-83395666D01*
X123371785Y-83395666D01*
X123198744Y-83361246D01*
X123035743Y-83293729D01*
X122889046Y-83195709D01*
X122764291Y-83070954D01*
X122666271Y-82924257D01*
X122598754Y-82761256D01*
X122564334Y-82588215D01*
X122564334Y-82411785D01*
X122598754Y-82238744D01*
X122666271Y-82075743D01*
X122764291Y-81929046D01*
X122889046Y-81804291D01*
X123035743Y-81706271D01*
X123198744Y-81638754D01*
X123371785Y-81604334D01*
X123548215Y-81604334D01*
X123721256Y-81638754D01*
G37*
G36*
X126261256Y-81638754D02*
G01*
X126424257Y-81706271D01*
X126570954Y-81804291D01*
X126695709Y-81929046D01*
X126793729Y-82075743D01*
X126861246Y-82238744D01*
X126895666Y-82411785D01*
X126895666Y-82588215D01*
X126861246Y-82761256D01*
X126793729Y-82924257D01*
X126695709Y-83070954D01*
X126570954Y-83195709D01*
X126424257Y-83293729D01*
X126261256Y-83361246D01*
X126088215Y-83395666D01*
X125911785Y-83395666D01*
X125738744Y-83361246D01*
X125575743Y-83293729D01*
X125429046Y-83195709D01*
X125304291Y-83070954D01*
X125206271Y-82924257D01*
X125138754Y-82761256D01*
X125104334Y-82588215D01*
X125104334Y-82411785D01*
X125138754Y-82238744D01*
X125206271Y-82075743D01*
X125304291Y-81929046D01*
X125429046Y-81804291D01*
X125575743Y-81706271D01*
X125738744Y-81638754D01*
X125911785Y-81604334D01*
X126088215Y-81604334D01*
X126261256Y-81638754D01*
G37*
G36*
X128801256Y-81638754D02*
G01*
X128964257Y-81706271D01*
X129110954Y-81804291D01*
X129235709Y-81929046D01*
X129333729Y-82075743D01*
X129401246Y-82238744D01*
X129435666Y-82411785D01*
X129435666Y-82588215D01*
X129401246Y-82761256D01*
X129333729Y-82924257D01*
X129235709Y-83070954D01*
X129110954Y-83195709D01*
X128964257Y-83293729D01*
X128801256Y-83361246D01*
X128628215Y-83395666D01*
X128451785Y-83395666D01*
X128278744Y-83361246D01*
X128115743Y-83293729D01*
X127969046Y-83195709D01*
X127844291Y-83070954D01*
X127746271Y-82924257D01*
X127678754Y-82761256D01*
X127644334Y-82588215D01*
X127644334Y-82411785D01*
X127678754Y-82238744D01*
X127746271Y-82075743D01*
X127844291Y-81929046D01*
X127969046Y-81804291D01*
X128115743Y-81706271D01*
X128278744Y-81638754D01*
X128451785Y-81604334D01*
X128628215Y-81604334D01*
X128801256Y-81638754D01*
G37*
G36*
X131341256Y-81638754D02*
G01*
X131504257Y-81706271D01*
X131650954Y-81804291D01*
X131775709Y-81929046D01*
X131873729Y-82075743D01*
X131941246Y-82238744D01*
X131975666Y-82411785D01*
X131975666Y-82588215D01*
X131941246Y-82761256D01*
X131873729Y-82924257D01*
X131775709Y-83070954D01*
X131650954Y-83195709D01*
X131504257Y-83293729D01*
X131341256Y-83361246D01*
X131168215Y-83395666D01*
X130991785Y-83395666D01*
X130818744Y-83361246D01*
X130655743Y-83293729D01*
X130509046Y-83195709D01*
X130384291Y-83070954D01*
X130286271Y-82924257D01*
X130218754Y-82761256D01*
X130184334Y-82588215D01*
X130184334Y-82411785D01*
X130218754Y-82238744D01*
X130286271Y-82075743D01*
X130384291Y-81929046D01*
X130509046Y-81804291D01*
X130655743Y-81706271D01*
X130818744Y-81638754D01*
X130991785Y-81604334D01*
X131168215Y-81604334D01*
X131341256Y-81638754D01*
G37*
G36*
X133881256Y-81638754D02*
G01*
X134044257Y-81706271D01*
X134190954Y-81804291D01*
X134315709Y-81929046D01*
X134413729Y-82075743D01*
X134481246Y-82238744D01*
X134515666Y-82411785D01*
X134515666Y-82588215D01*
X134481246Y-82761256D01*
X134413729Y-82924257D01*
X134315709Y-83070954D01*
X134190954Y-83195709D01*
X134044257Y-83293729D01*
X133881256Y-83361246D01*
X133708215Y-83395666D01*
X133531785Y-83395666D01*
X133358744Y-83361246D01*
X133195743Y-83293729D01*
X133049046Y-83195709D01*
X132924291Y-83070954D01*
X132826271Y-82924257D01*
X132758754Y-82761256D01*
X132724334Y-82588215D01*
X132724334Y-82411785D01*
X132758754Y-82238744D01*
X132826271Y-82075743D01*
X132924291Y-81929046D01*
X133049046Y-81804291D01*
X133195743Y-81706271D01*
X133358744Y-81638754D01*
X133531785Y-81604334D01*
X133708215Y-81604334D01*
X133881256Y-81638754D01*
G37*
G36*
X144529868Y-80954550D02*
G01*
X144535586Y-80957345D01*
X144537962Y-80957722D01*
X144575987Y-80977096D01*
X144633377Y-81005153D01*
X144714847Y-81086623D01*
X144742907Y-81144020D01*
X144762276Y-81182034D01*
X144762652Y-81184408D01*
X144765450Y-81190132D01*
X144780000Y-81290000D01*
X144780000Y-82390000D01*
X144765450Y-82489868D01*
X144762652Y-82495589D01*
X144762277Y-82497962D01*
X144742926Y-82535939D01*
X144714847Y-82593377D01*
X144633377Y-82674847D01*
X144575955Y-82702919D01*
X144537965Y-82722276D01*
X144535591Y-82722651D01*
X144529868Y-82725450D01*
X144430000Y-82740000D01*
X143330000Y-82740000D01*
X143230132Y-82725450D01*
X143224410Y-82722652D01*
X143222037Y-82722277D01*
X143184035Y-82702914D01*
X143126623Y-82674847D01*
X143045153Y-82593377D01*
X143017104Y-82536003D01*
X142997723Y-82497965D01*
X142997346Y-82495588D01*
X142994550Y-82489868D01*
X142980000Y-82390000D01*
X142980000Y-81290000D01*
X142994550Y-81190132D01*
X142997345Y-81184413D01*
X142997722Y-81182037D01*
X143017108Y-81143987D01*
X143045153Y-81086623D01*
X143126623Y-81005153D01*
X143183971Y-80977116D01*
X143222034Y-80957723D01*
X143224411Y-80957346D01*
X143230132Y-80954550D01*
X143330000Y-80940000D01*
X144430000Y-80940000D01*
X144529868Y-80954550D01*
G37*
G36*
X151761256Y-80978754D02*
G01*
X151924257Y-81046271D01*
X152070954Y-81144291D01*
X152195709Y-81269046D01*
X152293729Y-81415743D01*
X152361246Y-81578744D01*
X152395666Y-81751785D01*
X152395666Y-81928215D01*
X152361246Y-82101256D01*
X152293729Y-82264257D01*
X152195709Y-82410954D01*
X152070954Y-82535709D01*
X151924257Y-82633729D01*
X151761256Y-82701246D01*
X151588215Y-82735666D01*
X151411785Y-82735666D01*
X151238744Y-82701246D01*
X151075743Y-82633729D01*
X150929046Y-82535709D01*
X150804291Y-82410954D01*
X150706271Y-82264257D01*
X150638754Y-82101256D01*
X150604334Y-81928215D01*
X150604334Y-81751785D01*
X150638754Y-81578744D01*
X150706271Y-81415743D01*
X150804291Y-81269046D01*
X150929046Y-81144291D01*
X151075743Y-81046271D01*
X151238744Y-80978754D01*
X151411785Y-80944334D01*
X151588215Y-80944334D01*
X151761256Y-80978754D01*
G37*
M02*
