%TF.GenerationSoftware,KiCad,Pcbnew,10.0.1*%
%TF.CreationDate,2026-05-05T10:28:59-04:00*%
%TF.ProjectId,schematic,73636865-6d61-4746-9963-2e6b69636164,rev?*%
%TF.SameCoordinates,Original*%
%TF.FileFunction,Copper,L1,Top*%
%TF.FilePolarity,Positive*%
%FSLAX46Y46*%
G04 Gerber Fmt 4.6, Leading zero omitted, Abs format (unit mm)*
G04 Created by KiCad (PCBNEW 10.0.1) date 2026-05-05 10:28:59*
%MOMM*%
%LPD*%
G01*
G04 APERTURE LIST*
G04 Aperture macros list*
%AMRoundRect*
0 Rectangle with rounded corners*
0 $1 Rounding radius*
0 $2 $3 $4 $5 $6 $7 $8 $9 X,Y pos of 4 corners*
0 Add a 4 corners polygon primitive as box body*
4,1,4,$2,$3,$4,$5,$6,$7,$8,$9,$2,$3,0*
0 Add four circle primitives for the rounded corners*
1,1,$1+$1,$2,$3*
1,1,$1+$1,$4,$5*
1,1,$1+$1,$6,$7*
1,1,$1+$1,$8,$9*
0 Add four rect primitives between the rounded corners*
20,1,$1+$1,$2,$3,$4,$5,0*
20,1,$1+$1,$4,$5,$6,$7,0*
20,1,$1+$1,$6,$7,$8,$9,0*
20,1,$1+$1,$8,$9,$2,$3,0*%
G04 Aperture macros list end*
%TA.AperFunction,ComponentPad*%
%ADD10C,1.800000*%
%TD*%
%TA.AperFunction,ComponentPad*%
%ADD11R,1.800000X1.800000*%
%TD*%
%TA.AperFunction,ComponentPad*%
%ADD12C,1.600000*%
%TD*%
%TA.AperFunction,ComponentPad*%
%ADD13R,1.600000X1.600000*%
%TD*%
%TA.AperFunction,ComponentPad*%
%ADD14O,1.600000X1.600000*%
%TD*%
%TA.AperFunction,ComponentPad*%
%ADD15RoundRect,0.250000X-0.550000X-0.550000X0.550000X-0.550000X0.550000X0.550000X-0.550000X0.550000X0*%
%TD*%
%TA.AperFunction,Conductor*%
%ADD16C,0.750000*%
%TD*%
%TA.AperFunction,Conductor*%
%ADD17C,1.000000*%
%TD*%
G04 APERTURE END LIST*
D10*
%TO.P,D15,2,A_2*%
%TO.N,Net-(D15-A)*%
X144265000Y-116250000D03*
D11*
%TO.P,D15,1,K_1*%
%TO.N,Net-(D10-K)*%
X141725000Y-116250000D03*
%TD*%
D10*
%TO.P,D10,2,A_2*%
%TO.N,Net-(D10-A)*%
X106765000Y-116250000D03*
D11*
%TO.P,D10,1,K_1*%
%TO.N,Net-(D10-K)*%
X104225000Y-116250000D03*
%TD*%
D10*
%TO.P,D13,2,A_2*%
%TO.N,Net-(D13-A)*%
X129265000Y-116250000D03*
D11*
%TO.P,D13,1,K_1*%
%TO.N,Net-(D10-K)*%
X126725000Y-116250000D03*
%TD*%
D10*
%TO.P,D14,2,A_2*%
%TO.N,Net-(D14-A)*%
X136765000Y-116250000D03*
D11*
%TO.P,D14,1,K_1*%
%TO.N,Net-(D10-K)*%
X134225000Y-116250000D03*
%TD*%
D10*
%TO.P,D9,2,A_2*%
%TO.N,Net-(D9-A)*%
X99265000Y-116250000D03*
D11*
%TO.P,D9,1,K_1*%
%TO.N,Net-(D10-K)*%
X96725000Y-116250000D03*
%TD*%
D10*
%TO.P,D16,2,A_2*%
%TO.N,Net-(D16-A)*%
X151765000Y-116250000D03*
D11*
%TO.P,D16,1,K_1*%
%TO.N,Net-(D10-K)*%
X149225000Y-116250000D03*
%TD*%
D10*
%TO.P,D11,2,A_2*%
%TO.N,Net-(D11-A)*%
X114265000Y-116250000D03*
D11*
%TO.P,D11,1,K_1*%
%TO.N,Net-(D10-K)*%
X111725000Y-116250000D03*
%TD*%
D10*
%TO.P,D12,2,A_2*%
%TO.N,Net-(D12-A)*%
X121765000Y-116250000D03*
D11*
%TO.P,D12,1,K_1*%
%TO.N,Net-(D10-K)*%
X119225000Y-116250000D03*
%TD*%
D12*
%TO.P,R16,1*%
%TO.N,Net-(U2-QH)*%
X150690000Y-103690000D03*
%TO.P,R16,2*%
%TO.N,Net-(D16-A)*%
X150690000Y-111310000D03*
%TD*%
%TO.P,R15,1*%
%TO.N,Net-(U2-QG)*%
X143190000Y-103690000D03*
%TO.P,R15,2*%
%TO.N,Net-(D15-A)*%
X143190000Y-111310000D03*
%TD*%
%TO.P,R14,1*%
%TO.N,Net-(U2-QF)*%
X135690000Y-103690000D03*
%TO.P,R14,2*%
%TO.N,Net-(D14-A)*%
X135690000Y-111310000D03*
%TD*%
%TO.P,R13,1*%
%TO.N,Net-(U2-QE)*%
X128000000Y-103690000D03*
%TO.P,R13,2*%
%TO.N,Net-(D13-A)*%
X128000000Y-111310000D03*
%TD*%
%TO.P,R12,1*%
%TO.N,Net-(U2-QD)*%
X120500000Y-103690000D03*
%TO.P,R12,2*%
%TO.N,Net-(D12-A)*%
X120500000Y-111310000D03*
%TD*%
%TO.P,R11,1*%
%TO.N,Net-(U2-QC)*%
X113000000Y-103690000D03*
%TO.P,R11,2*%
%TO.N,Net-(D11-A)*%
X113000000Y-111310000D03*
%TD*%
%TO.P,R10,1*%
%TO.N,Net-(U2-QB)*%
X105500000Y-103690000D03*
%TO.P,R10,2*%
%TO.N,Net-(D10-A)*%
X105500000Y-111310000D03*
%TD*%
%TO.P,R9,1*%
%TO.N,Net-(U2-QA)*%
X98500000Y-103690000D03*
%TO.P,R9,2*%
%TO.N,Net-(D9-A)*%
X98500000Y-111310000D03*
%TD*%
D13*
%TO.P,A1,1,D1/TX_1*%
%TO.N,unconnected-(A1-D1{slash}TX-Pad1)*%
X136160000Y-82500000D03*
D14*
%TO.P,A1,2,D0/RX_2*%
%TO.N,unconnected-(A1-D0{slash}RX-Pad2)*%
X133620000Y-82500000D03*
%TO.P,A1,3,~{RESET}_3*%
%TO.N,unconnected-(A1-~{RESET}-Pad3)*%
X131080000Y-82500000D03*
%TO.P,A1,4,GND_4*%
%TO.N,Net-(D10-K)*%
X128540000Y-82500000D03*
%TO.P,A1,5,D2_5*%
%TO.N,unconnected-(A1-D2-Pad5)*%
X126000000Y-82500000D03*
%TO.P,A1,6,D3_6*%
%TO.N,unconnected-(A1-D3-Pad6)*%
X123460000Y-82500000D03*
%TO.P,A1,7,D4_7*%
%TO.N,unconnected-(A1-D4-Pad7)*%
X120920000Y-82500000D03*
%TO.P,A1,8,D5_8*%
%TO.N,Net-(A1-D5)*%
X118380000Y-82500000D03*
%TO.P,A1,9,D6_9*%
%TO.N,Net-(A1-D6)*%
X115840000Y-82500000D03*
%TO.P,A1,10,D7_10*%
%TO.N,Net-(A1-D7)*%
X113300000Y-82500000D03*
%TO.P,A1,11,D8_11*%
%TO.N,unconnected-(A1-D8-Pad11)*%
X110760000Y-82500000D03*
%TO.P,A1,12,D9_12*%
%TO.N,unconnected-(A1-D9-Pad12)*%
X108220000Y-82500000D03*
%TO.P,A1,13,D10/CS_13*%
%TO.N,unconnected-(A1-D10{slash}CS-Pad13)*%
X105680000Y-82500000D03*
%TO.P,A1,14,D11/COPI_14*%
%TO.N,unconnected-(A1-D11{slash}COPI-Pad14)*%
X103140000Y-82500000D03*
%TO.P,A1,15,D12/CIPO_15*%
%TO.N,unconnected-(A1-D12{slash}CIPO-Pad15)*%
X100600000Y-82500000D03*
%TO.P,A1,16,D13/SCK_16*%
%TO.N,unconnected-(A1-D13{slash}SCK-Pad16)*%
X100600000Y-97740000D03*
%TO.P,A1,17,3V3_17*%
%TO.N,Net-(A1-3V3)*%
X103140000Y-97740000D03*
%TO.P,A1,18,B0_18*%
%TO.N,unconnected-(A1-B0-Pad18)*%
X105680000Y-97740000D03*
%TO.P,A1,19,A0_19*%
%TO.N,unconnected-(A1-A0-Pad19)*%
X108220000Y-97740000D03*
%TO.P,A1,20,A1_20*%
%TO.N,unconnected-(A1-A1-Pad20)*%
X110760000Y-97740000D03*
%TO.P,A1,21,A2_21*%
%TO.N,unconnected-(A1-A2-Pad21)*%
X113300000Y-97740000D03*
%TO.P,A1,22,A3_22*%
%TO.N,unconnected-(A1-A3-Pad22)*%
X115840000Y-97740000D03*
%TO.P,A1,23,SDA/A4_23*%
%TO.N,unconnected-(A1-SDA{slash}A4-Pad23)*%
X118380000Y-97740000D03*
%TO.P,A1,24,SCL/A5_24*%
%TO.N,unconnected-(A1-SCL{slash}A5-Pad24)*%
X120920000Y-97740000D03*
%TO.P,A1,25,A6_25*%
%TO.N,unconnected-(A1-A6-Pad25)*%
X123460000Y-97740000D03*
%TO.P,A1,26,A7_26*%
%TO.N,unconnected-(A1-A7-Pad26)*%
X126000000Y-97740000D03*
%TO.P,A1,27,VUSB/5V_27*%
%TO.N,unconnected-(A1-VUSB{slash}5V-Pad27)*%
X128540000Y-97740000D03*
%TO.P,A1,28,B1_28*%
%TO.N,unconnected-(A1-B1-Pad28)*%
X131080000Y-97740000D03*
%TO.P,A1,29,GND_29*%
%TO.N,Net-(D10-K)*%
X133620000Y-97740000D03*
%TO.P,A1,30,VIN_30*%
%TO.N,unconnected-(A1-VIN-Pad30)*%
X136160000Y-97740000D03*
%TD*%
D15*
%TO.P,U2,1,QB_1*%
%TO.N,Net-(U2-QB)*%
X143880000Y-81840000D03*
D12*
%TO.P,U2,2,QC_2*%
%TO.N,Net-(U2-QC)*%
X143880000Y-84380000D03*
%TO.P,U2,3,QD_3*%
%TO.N,Net-(U2-QD)*%
X143880000Y-86920000D03*
%TO.P,U2,4,QE_4*%
%TO.N,Net-(U2-QE)*%
X143880000Y-89460000D03*
%TO.P,U2,5,QF_5*%
%TO.N,Net-(U2-QF)*%
X143880000Y-92000000D03*
%TO.P,U2,6,QG_6*%
%TO.N,Net-(U2-QG)*%
X143880000Y-94540000D03*
%TO.P,U2,7,QH_7*%
%TO.N,Net-(U2-QH)*%
X143880000Y-97080000D03*
%TO.P,U2,8,GND_8*%
%TO.N,Net-(D10-K)*%
X143880000Y-99620000D03*
%TO.P,U2,9,QH'_9*%
%TO.N,unconnected-(U2-QH'-Pad9)*%
X151500000Y-99620000D03*
%TO.P,U2,10,~{SRCLR}_10*%
%TO.N,Net-(A1-3V3)*%
X151500000Y-97080000D03*
%TO.P,U2,11,SRCLK_11*%
%TO.N,Net-(A1-D6)*%
X151500000Y-94540000D03*
%TO.P,U2,12,RCLK_12*%
%TO.N,Net-(A1-D5)*%
X151500000Y-92000000D03*
%TO.P,U2,13,~{OE}_13*%
%TO.N,Net-(D10-K)*%
X151500000Y-89460000D03*
%TO.P,U2,14,SER_14*%
%TO.N,Net-(A1-D7)*%
X151500000Y-86920000D03*
%TO.P,U2,15,QA_15*%
%TO.N,Net-(U2-QA)*%
X151500000Y-84380000D03*
%TO.P,U2,16,VCC_16*%
%TO.N,Net-(A1-3V3)*%
X151500000Y-81840000D03*
%TD*%
%TO.N,Net-(D9-A)*%
D16*
X99265000Y-112075000D02*
X98500000Y-111310000D01*
X99265000Y-116250000D02*
X99265000Y-112075000D01*
%TO.N,Net-(D10-A)*%
X106765000Y-112575000D02*
X105500000Y-111310000D01*
X106765000Y-116250000D02*
X106765000Y-112575000D01*
%TO.N,Net-(D11-A)*%
X114265000Y-112575000D02*
X113000000Y-111310000D01*
X114265000Y-116250000D02*
X114265000Y-112575000D01*
%TO.N,Net-(U2-QA)*%
X98190000Y-103380000D02*
X98500000Y-103690000D01*
X97615000Y-101115000D02*
X98190000Y-101690000D01*
X98190000Y-101690000D02*
X98190000Y-103380000D01*
X97615000Y-97436953D02*
X97615000Y-101115000D01*
X126860000Y-94550000D02*
X100501953Y-94550000D01*
X140945000Y-80465000D02*
X126860000Y-94550000D01*
X100501953Y-94550000D02*
X97615000Y-97436953D01*
X147585000Y-80465000D02*
X140945000Y-80465000D01*
X151500000Y-84380000D02*
X147585000Y-80465000D01*
%TO.N,Net-(U2-QB)*%
X105115000Y-99115000D02*
X105500000Y-99500000D01*
X99225000Y-98309544D02*
X100030456Y-99115000D01*
X99225000Y-97170456D02*
X99225000Y-98309544D01*
X100895456Y-95500000D02*
X99225000Y-97170456D01*
X100030456Y-99115000D02*
X105115000Y-99115000D01*
X130220000Y-95500000D02*
X100895456Y-95500000D01*
X143880000Y-81840000D02*
X130220000Y-95500000D01*
X105500000Y-99500000D02*
X105500000Y-103690000D01*
%TO.N,Net-(U2-QC)*%
X113000000Y-101690000D02*
X113000000Y-103690000D01*
X114690000Y-100000000D02*
X113000000Y-101690000D01*
X138000000Y-100000000D02*
X114690000Y-100000000D01*
X138000000Y-90260000D02*
X138000000Y-100000000D01*
X143880000Y-84380000D02*
X138000000Y-90260000D01*
%TO.N,Net-(U2-QD)*%
X121190000Y-101000000D02*
X120500000Y-101690000D01*
X138500000Y-101000000D02*
X121190000Y-101000000D01*
X139050000Y-100450000D02*
X138500000Y-101000000D01*
X120500000Y-101690000D02*
X120500000Y-103690000D01*
X139050000Y-91750000D02*
X139050000Y-100450000D01*
X143880000Y-86920000D02*
X139050000Y-91750000D01*
%TO.N,Net-(D12-A)*%
X121765000Y-112575000D02*
X120500000Y-111310000D01*
X121765000Y-116250000D02*
X121765000Y-112575000D01*
%TO.N,Net-(D13-A)*%
X129265000Y-112575000D02*
X128000000Y-111310000D01*
X129265000Y-116250000D02*
X129265000Y-112575000D01*
%TO.N,Net-(U2-QE)*%
X138893502Y-101950000D02*
X128740000Y-101950000D01*
X128740000Y-101950000D02*
X128000000Y-102690000D01*
X140000000Y-100843503D02*
X138893502Y-101950000D01*
X128000000Y-102690000D02*
X128000000Y-103690000D01*
X140000000Y-93340000D02*
X140000000Y-100843503D01*
X143880000Y-89460000D02*
X140000000Y-93340000D01*
%TO.N,Net-(D14-A)*%
X136765000Y-116250000D02*
X136765000Y-112385000D01*
X136765000Y-112385000D02*
X135690000Y-111310000D01*
%TO.N,Net-(U2-QF)*%
X136380000Y-103000000D02*
X135690000Y-103690000D01*
X139500000Y-103000000D02*
X136380000Y-103000000D01*
X141000000Y-94880000D02*
X141000000Y-101500000D01*
X141000000Y-101500000D02*
X139500000Y-103000000D01*
X143880000Y-92000000D02*
X141000000Y-94880000D01*
%TO.N,Net-(D15-A)*%
X144265000Y-116250000D02*
X144265000Y-112385000D01*
X144265000Y-112385000D02*
X143190000Y-111310000D01*
%TO.N,Net-(U2-QG)*%
X142000000Y-103500000D02*
X142190000Y-103690000D01*
X142000000Y-96420000D02*
X142000000Y-103500000D01*
X143880000Y-94540000D02*
X142000000Y-96420000D01*
X142190000Y-103690000D02*
X143190000Y-103690000D01*
%TO.N,Net-(D16-A)*%
X151765000Y-112385000D02*
X150690000Y-111310000D01*
X151765000Y-116250000D02*
X151765000Y-112385000D01*
%TO.N,Net-(U2-QH)*%
X147700000Y-100700000D02*
X150690000Y-103690000D01*
X147500000Y-100700000D02*
X147700000Y-100700000D01*
X143880000Y-97080000D02*
X147500000Y-100700000D01*
%TO.N,Net-(A1-D5)*%
D17*
X150000000Y-100241321D02*
X150000000Y-93500000D01*
X150878679Y-101120000D02*
X150000000Y-100241321D01*
X97900000Y-83618377D02*
X97900000Y-81381623D01*
X152121321Y-101120000D02*
X150878679Y-101120000D01*
X99481623Y-85200000D02*
X97900000Y-83618377D01*
X155400000Y-97841321D02*
X152121321Y-101120000D01*
X155400000Y-80224567D02*
X155400000Y-97841321D01*
X150000000Y-93500000D02*
X151500000Y-92000000D01*
X97900000Y-81381623D02*
X102291623Y-76990000D01*
X115680000Y-85200000D02*
X99481623Y-85200000D01*
X102291623Y-76990000D02*
X152165433Y-76990000D01*
X118380000Y-82500000D02*
X115680000Y-85200000D01*
X152165433Y-76990000D02*
X155400000Y-80224567D01*
%TO.N,Net-(A1-D6)*%
X99100000Y-83121321D02*
X99100000Y-81878679D01*
X154200000Y-80721623D02*
X154200000Y-91840000D01*
X99100000Y-81878679D02*
X102788679Y-78190000D01*
X154200000Y-91840000D02*
X151500000Y-94540000D01*
X99978679Y-84000000D02*
X99100000Y-83121321D01*
X151668377Y-78190000D02*
X154200000Y-80721623D01*
X114340000Y-84000000D02*
X99978679Y-84000000D01*
X115840000Y-82500000D02*
X114340000Y-84000000D01*
X102788679Y-78190000D02*
X151668377Y-78190000D01*
%TO.N,Net-(A1-D7)*%
X153000000Y-85420000D02*
X151500000Y-86920000D01*
X153000000Y-81218679D02*
X153000000Y-85420000D01*
X151171321Y-79390000D02*
X153000000Y-81218679D01*
X113300000Y-82500000D02*
X116410000Y-79390000D01*
X116410000Y-79390000D02*
X151171321Y-79390000D01*
%TD*%
M02*
