M48
; DRILL file KiCad 10.0.1 date 2026-04-24T19:50:36
; FORMAT={-:-/ absolute / metric / decimal}
; #@! TF.CreationDate,2026-04-24T19:50:36-04:00
; #@! TF.GenerationSoftware,Kicad,Pcbnew,10.0.1
; #@! TF.FileFunction,Plated,1,2,PTH
FMAT,2
METRIC
; #@! TA.AperFunction,Plated,PTH,ComponentDrill
T1C0.800
; #@! TA.AperFunction,Plated,PTH,ComponentDrill
T2C0.900
; #@! TA.AperFunction,Plated,PTH,ComponentDrill
T3C1.000
%
G90
G05
T1
X143.88Y-81.84
X143.88Y-84.38
X143.88Y-86.92
X143.88Y-89.46
X143.88Y-92.0
X143.88Y-94.54
X143.88Y-97.08
X143.88Y-99.62
X151.5Y-81.84
X151.5Y-84.38
X151.5Y-86.92
X151.5Y-89.46
X151.5Y-92.0
X151.5Y-94.54
X151.5Y-97.08
X151.5Y-99.62
T2
X96.725Y-115.0
X99.265Y-115.0
X104.225Y-115.0
X106.765Y-115.0
X111.725Y-115.0
X114.265Y-115.0
X119.225Y-115.0
X121.765Y-115.0
X126.725Y-115.0
X129.265Y-115.0
X134.225Y-115.0
X136.765Y-115.0
X141.725Y-115.0
X144.265Y-115.0
X149.225Y-115.0
X151.765Y-115.0
T3
X100.6Y-82.5
X100.6Y-97.74
X103.14Y-82.5
X103.14Y-97.74
X105.68Y-82.5
X105.68Y-97.74
X108.22Y-82.5
X108.22Y-97.74
X110.76Y-82.5
X110.76Y-97.74
X113.3Y-82.5
X113.3Y-97.74
X115.84Y-82.5
X115.84Y-97.74
X118.38Y-82.5
X118.38Y-97.74
X120.92Y-82.5
X120.92Y-97.74
X123.46Y-82.5
X123.46Y-97.74
X126.0Y-82.5
X126.0Y-97.74
X128.54Y-82.5
X128.54Y-97.74
X131.08Y-82.5
X131.08Y-97.74
X133.62Y-82.5
X133.62Y-97.74
X136.16Y-82.5
X136.16Y-97.74
M30
