%TF.GenerationSoftware,KiCad,Pcbnew,10.0.1*%
%TF.CreationDate,2026-05-05T10:28:59-04:00*%
%TF.ProjectId,schematic,73636865-6d61-4746-9963-2e6b69636164,rev?*%
%TF.SameCoordinates,Original*%
%TF.FileFunction,Legend,Top*%
%TF.FilePolarity,Positive*%
%FSLAX46Y46*%
G04 Gerber Fmt 4.6, Leading zero omitted, Abs format (unit mm)*
G04 Created by KiCad (PCBNEW 10.0.1) date 2026-05-05 10:28:59*
%MOMM*%
%LPD*%
G01*
G04 APERTURE LIST*
%ADD10C,0.150000*%
%ADD11C,0.120000*%
G04 APERTURE END LIST*
D10*
X141780714Y-112744819D02*
X141780714Y-111744819D01*
X141780714Y-111744819D02*
X142018809Y-111744819D01*
X142018809Y-111744819D02*
X142161666Y-111792438D01*
X142161666Y-111792438D02*
X142256904Y-111887676D01*
X142256904Y-111887676D02*
X142304523Y-111982914D01*
X142304523Y-111982914D02*
X142352142Y-112173390D01*
X142352142Y-112173390D02*
X142352142Y-112316247D01*
X142352142Y-112316247D02*
X142304523Y-112506723D01*
X142304523Y-112506723D02*
X142256904Y-112601961D01*
X142256904Y-112601961D02*
X142161666Y-112697200D01*
X142161666Y-112697200D02*
X142018809Y-112744819D01*
X142018809Y-112744819D02*
X141780714Y-112744819D01*
X143304523Y-112744819D02*
X142733095Y-112744819D01*
X143018809Y-112744819D02*
X143018809Y-111744819D01*
X143018809Y-111744819D02*
X142923571Y-111887676D01*
X142923571Y-111887676D02*
X142828333Y-111982914D01*
X142828333Y-111982914D02*
X142733095Y-112030533D01*
X144209285Y-111744819D02*
X143733095Y-111744819D01*
X143733095Y-111744819D02*
X143685476Y-112221009D01*
X143685476Y-112221009D02*
X143733095Y-112173390D01*
X143733095Y-112173390D02*
X143828333Y-112125771D01*
X143828333Y-112125771D02*
X144066428Y-112125771D01*
X144066428Y-112125771D02*
X144161666Y-112173390D01*
X144161666Y-112173390D02*
X144209285Y-112221009D01*
X144209285Y-112221009D02*
X144256904Y-112316247D01*
X144256904Y-112316247D02*
X144256904Y-112554342D01*
X144256904Y-112554342D02*
X144209285Y-112649580D01*
X144209285Y-112649580D02*
X144161666Y-112697200D01*
X144161666Y-112697200D02*
X144066428Y-112744819D01*
X144066428Y-112744819D02*
X143828333Y-112744819D01*
X143828333Y-112744819D02*
X143733095Y-112697200D01*
X143733095Y-112697200D02*
X143685476Y-112649580D01*
X104280714Y-112744819D02*
X104280714Y-111744819D01*
X104280714Y-111744819D02*
X104518809Y-111744819D01*
X104518809Y-111744819D02*
X104661666Y-111792438D01*
X104661666Y-111792438D02*
X104756904Y-111887676D01*
X104756904Y-111887676D02*
X104804523Y-111982914D01*
X104804523Y-111982914D02*
X104852142Y-112173390D01*
X104852142Y-112173390D02*
X104852142Y-112316247D01*
X104852142Y-112316247D02*
X104804523Y-112506723D01*
X104804523Y-112506723D02*
X104756904Y-112601961D01*
X104756904Y-112601961D02*
X104661666Y-112697200D01*
X104661666Y-112697200D02*
X104518809Y-112744819D01*
X104518809Y-112744819D02*
X104280714Y-112744819D01*
X105804523Y-112744819D02*
X105233095Y-112744819D01*
X105518809Y-112744819D02*
X105518809Y-111744819D01*
X105518809Y-111744819D02*
X105423571Y-111887676D01*
X105423571Y-111887676D02*
X105328333Y-111982914D01*
X105328333Y-111982914D02*
X105233095Y-112030533D01*
X106423571Y-111744819D02*
X106518809Y-111744819D01*
X106518809Y-111744819D02*
X106614047Y-111792438D01*
X106614047Y-111792438D02*
X106661666Y-111840057D01*
X106661666Y-111840057D02*
X106709285Y-111935295D01*
X106709285Y-111935295D02*
X106756904Y-112125771D01*
X106756904Y-112125771D02*
X106756904Y-112363866D01*
X106756904Y-112363866D02*
X106709285Y-112554342D01*
X106709285Y-112554342D02*
X106661666Y-112649580D01*
X106661666Y-112649580D02*
X106614047Y-112697200D01*
X106614047Y-112697200D02*
X106518809Y-112744819D01*
X106518809Y-112744819D02*
X106423571Y-112744819D01*
X106423571Y-112744819D02*
X106328333Y-112697200D01*
X106328333Y-112697200D02*
X106280714Y-112649580D01*
X106280714Y-112649580D02*
X106233095Y-112554342D01*
X106233095Y-112554342D02*
X106185476Y-112363866D01*
X106185476Y-112363866D02*
X106185476Y-112125771D01*
X106185476Y-112125771D02*
X106233095Y-111935295D01*
X106233095Y-111935295D02*
X106280714Y-111840057D01*
X106280714Y-111840057D02*
X106328333Y-111792438D01*
X106328333Y-111792438D02*
X106423571Y-111744819D01*
X126780714Y-112744819D02*
X126780714Y-111744819D01*
X126780714Y-111744819D02*
X127018809Y-111744819D01*
X127018809Y-111744819D02*
X127161666Y-111792438D01*
X127161666Y-111792438D02*
X127256904Y-111887676D01*
X127256904Y-111887676D02*
X127304523Y-111982914D01*
X127304523Y-111982914D02*
X127352142Y-112173390D01*
X127352142Y-112173390D02*
X127352142Y-112316247D01*
X127352142Y-112316247D02*
X127304523Y-112506723D01*
X127304523Y-112506723D02*
X127256904Y-112601961D01*
X127256904Y-112601961D02*
X127161666Y-112697200D01*
X127161666Y-112697200D02*
X127018809Y-112744819D01*
X127018809Y-112744819D02*
X126780714Y-112744819D01*
X128304523Y-112744819D02*
X127733095Y-112744819D01*
X128018809Y-112744819D02*
X128018809Y-111744819D01*
X128018809Y-111744819D02*
X127923571Y-111887676D01*
X127923571Y-111887676D02*
X127828333Y-111982914D01*
X127828333Y-111982914D02*
X127733095Y-112030533D01*
X128637857Y-111744819D02*
X129256904Y-111744819D01*
X129256904Y-111744819D02*
X128923571Y-112125771D01*
X128923571Y-112125771D02*
X129066428Y-112125771D01*
X129066428Y-112125771D02*
X129161666Y-112173390D01*
X129161666Y-112173390D02*
X129209285Y-112221009D01*
X129209285Y-112221009D02*
X129256904Y-112316247D01*
X129256904Y-112316247D02*
X129256904Y-112554342D01*
X129256904Y-112554342D02*
X129209285Y-112649580D01*
X129209285Y-112649580D02*
X129161666Y-112697200D01*
X129161666Y-112697200D02*
X129066428Y-112744819D01*
X129066428Y-112744819D02*
X128780714Y-112744819D01*
X128780714Y-112744819D02*
X128685476Y-112697200D01*
X128685476Y-112697200D02*
X128637857Y-112649580D01*
X134280714Y-112744819D02*
X134280714Y-111744819D01*
X134280714Y-111744819D02*
X134518809Y-111744819D01*
X134518809Y-111744819D02*
X134661666Y-111792438D01*
X134661666Y-111792438D02*
X134756904Y-111887676D01*
X134756904Y-111887676D02*
X134804523Y-111982914D01*
X134804523Y-111982914D02*
X134852142Y-112173390D01*
X134852142Y-112173390D02*
X134852142Y-112316247D01*
X134852142Y-112316247D02*
X134804523Y-112506723D01*
X134804523Y-112506723D02*
X134756904Y-112601961D01*
X134756904Y-112601961D02*
X134661666Y-112697200D01*
X134661666Y-112697200D02*
X134518809Y-112744819D01*
X134518809Y-112744819D02*
X134280714Y-112744819D01*
X135804523Y-112744819D02*
X135233095Y-112744819D01*
X135518809Y-112744819D02*
X135518809Y-111744819D01*
X135518809Y-111744819D02*
X135423571Y-111887676D01*
X135423571Y-111887676D02*
X135328333Y-111982914D01*
X135328333Y-111982914D02*
X135233095Y-112030533D01*
X136661666Y-112078152D02*
X136661666Y-112744819D01*
X136423571Y-111697200D02*
X136185476Y-112411485D01*
X136185476Y-112411485D02*
X136804523Y-112411485D01*
X97256905Y-112744819D02*
X97256905Y-111744819D01*
X97256905Y-111744819D02*
X97495000Y-111744819D01*
X97495000Y-111744819D02*
X97637857Y-111792438D01*
X97637857Y-111792438D02*
X97733095Y-111887676D01*
X97733095Y-111887676D02*
X97780714Y-111982914D01*
X97780714Y-111982914D02*
X97828333Y-112173390D01*
X97828333Y-112173390D02*
X97828333Y-112316247D01*
X97828333Y-112316247D02*
X97780714Y-112506723D01*
X97780714Y-112506723D02*
X97733095Y-112601961D01*
X97733095Y-112601961D02*
X97637857Y-112697200D01*
X97637857Y-112697200D02*
X97495000Y-112744819D01*
X97495000Y-112744819D02*
X97256905Y-112744819D01*
X98304524Y-112744819D02*
X98495000Y-112744819D01*
X98495000Y-112744819D02*
X98590238Y-112697200D01*
X98590238Y-112697200D02*
X98637857Y-112649580D01*
X98637857Y-112649580D02*
X98733095Y-112506723D01*
X98733095Y-112506723D02*
X98780714Y-112316247D01*
X98780714Y-112316247D02*
X98780714Y-111935295D01*
X98780714Y-111935295D02*
X98733095Y-111840057D01*
X98733095Y-111840057D02*
X98685476Y-111792438D01*
X98685476Y-111792438D02*
X98590238Y-111744819D01*
X98590238Y-111744819D02*
X98399762Y-111744819D01*
X98399762Y-111744819D02*
X98304524Y-111792438D01*
X98304524Y-111792438D02*
X98256905Y-111840057D01*
X98256905Y-111840057D02*
X98209286Y-111935295D01*
X98209286Y-111935295D02*
X98209286Y-112173390D01*
X98209286Y-112173390D02*
X98256905Y-112268628D01*
X98256905Y-112268628D02*
X98304524Y-112316247D01*
X98304524Y-112316247D02*
X98399762Y-112363866D01*
X98399762Y-112363866D02*
X98590238Y-112363866D01*
X98590238Y-112363866D02*
X98685476Y-112316247D01*
X98685476Y-112316247D02*
X98733095Y-112268628D01*
X98733095Y-112268628D02*
X98780714Y-112173390D01*
X149280714Y-112744819D02*
X149280714Y-111744819D01*
X149280714Y-111744819D02*
X149518809Y-111744819D01*
X149518809Y-111744819D02*
X149661666Y-111792438D01*
X149661666Y-111792438D02*
X149756904Y-111887676D01*
X149756904Y-111887676D02*
X149804523Y-111982914D01*
X149804523Y-111982914D02*
X149852142Y-112173390D01*
X149852142Y-112173390D02*
X149852142Y-112316247D01*
X149852142Y-112316247D02*
X149804523Y-112506723D01*
X149804523Y-112506723D02*
X149756904Y-112601961D01*
X149756904Y-112601961D02*
X149661666Y-112697200D01*
X149661666Y-112697200D02*
X149518809Y-112744819D01*
X149518809Y-112744819D02*
X149280714Y-112744819D01*
X150804523Y-112744819D02*
X150233095Y-112744819D01*
X150518809Y-112744819D02*
X150518809Y-111744819D01*
X150518809Y-111744819D02*
X150423571Y-111887676D01*
X150423571Y-111887676D02*
X150328333Y-111982914D01*
X150328333Y-111982914D02*
X150233095Y-112030533D01*
X151661666Y-111744819D02*
X151471190Y-111744819D01*
X151471190Y-111744819D02*
X151375952Y-111792438D01*
X151375952Y-111792438D02*
X151328333Y-111840057D01*
X151328333Y-111840057D02*
X151233095Y-111982914D01*
X151233095Y-111982914D02*
X151185476Y-112173390D01*
X151185476Y-112173390D02*
X151185476Y-112554342D01*
X151185476Y-112554342D02*
X151233095Y-112649580D01*
X151233095Y-112649580D02*
X151280714Y-112697200D01*
X151280714Y-112697200D02*
X151375952Y-112744819D01*
X151375952Y-112744819D02*
X151566428Y-112744819D01*
X151566428Y-112744819D02*
X151661666Y-112697200D01*
X151661666Y-112697200D02*
X151709285Y-112649580D01*
X151709285Y-112649580D02*
X151756904Y-112554342D01*
X151756904Y-112554342D02*
X151756904Y-112316247D01*
X151756904Y-112316247D02*
X151709285Y-112221009D01*
X151709285Y-112221009D02*
X151661666Y-112173390D01*
X151661666Y-112173390D02*
X151566428Y-112125771D01*
X151566428Y-112125771D02*
X151375952Y-112125771D01*
X151375952Y-112125771D02*
X151280714Y-112173390D01*
X151280714Y-112173390D02*
X151233095Y-112221009D01*
X151233095Y-112221009D02*
X151185476Y-112316247D01*
X111780714Y-112744819D02*
X111780714Y-111744819D01*
X111780714Y-111744819D02*
X112018809Y-111744819D01*
X112018809Y-111744819D02*
X112161666Y-111792438D01*
X112161666Y-111792438D02*
X112256904Y-111887676D01*
X112256904Y-111887676D02*
X112304523Y-111982914D01*
X112304523Y-111982914D02*
X112352142Y-112173390D01*
X112352142Y-112173390D02*
X112352142Y-112316247D01*
X112352142Y-112316247D02*
X112304523Y-112506723D01*
X112304523Y-112506723D02*
X112256904Y-112601961D01*
X112256904Y-112601961D02*
X112161666Y-112697200D01*
X112161666Y-112697200D02*
X112018809Y-112744819D01*
X112018809Y-112744819D02*
X111780714Y-112744819D01*
X113304523Y-112744819D02*
X112733095Y-112744819D01*
X113018809Y-112744819D02*
X113018809Y-111744819D01*
X113018809Y-111744819D02*
X112923571Y-111887676D01*
X112923571Y-111887676D02*
X112828333Y-111982914D01*
X112828333Y-111982914D02*
X112733095Y-112030533D01*
X114256904Y-112744819D02*
X113685476Y-112744819D01*
X113971190Y-112744819D02*
X113971190Y-111744819D01*
X113971190Y-111744819D02*
X113875952Y-111887676D01*
X113875952Y-111887676D02*
X113780714Y-111982914D01*
X113780714Y-111982914D02*
X113685476Y-112030533D01*
X119280714Y-112744819D02*
X119280714Y-111744819D01*
X119280714Y-111744819D02*
X119518809Y-111744819D01*
X119518809Y-111744819D02*
X119661666Y-111792438D01*
X119661666Y-111792438D02*
X119756904Y-111887676D01*
X119756904Y-111887676D02*
X119804523Y-111982914D01*
X119804523Y-111982914D02*
X119852142Y-112173390D01*
X119852142Y-112173390D02*
X119852142Y-112316247D01*
X119852142Y-112316247D02*
X119804523Y-112506723D01*
X119804523Y-112506723D02*
X119756904Y-112601961D01*
X119756904Y-112601961D02*
X119661666Y-112697200D01*
X119661666Y-112697200D02*
X119518809Y-112744819D01*
X119518809Y-112744819D02*
X119280714Y-112744819D01*
X120804523Y-112744819D02*
X120233095Y-112744819D01*
X120518809Y-112744819D02*
X120518809Y-111744819D01*
X120518809Y-111744819D02*
X120423571Y-111887676D01*
X120423571Y-111887676D02*
X120328333Y-111982914D01*
X120328333Y-111982914D02*
X120233095Y-112030533D01*
X121185476Y-111840057D02*
X121233095Y-111792438D01*
X121233095Y-111792438D02*
X121328333Y-111744819D01*
X121328333Y-111744819D02*
X121566428Y-111744819D01*
X121566428Y-111744819D02*
X121661666Y-111792438D01*
X121661666Y-111792438D02*
X121709285Y-111840057D01*
X121709285Y-111840057D02*
X121756904Y-111935295D01*
X121756904Y-111935295D02*
X121756904Y-112030533D01*
X121756904Y-112030533D02*
X121709285Y-112173390D01*
X121709285Y-112173390D02*
X121137857Y-112744819D01*
X121137857Y-112744819D02*
X121756904Y-112744819D01*
X153514819Y-108142857D02*
X153038628Y-108476190D01*
X153514819Y-108714285D02*
X152514819Y-108714285D01*
X152514819Y-108714285D02*
X152514819Y-108333333D01*
X152514819Y-108333333D02*
X152562438Y-108238095D01*
X152562438Y-108238095D02*
X152610057Y-108190476D01*
X152610057Y-108190476D02*
X152705295Y-108142857D01*
X152705295Y-108142857D02*
X152848152Y-108142857D01*
X152848152Y-108142857D02*
X152943390Y-108190476D01*
X152943390Y-108190476D02*
X152991009Y-108238095D01*
X152991009Y-108238095D02*
X153038628Y-108333333D01*
X153038628Y-108333333D02*
X153038628Y-108714285D01*
X153514819Y-107190476D02*
X153514819Y-107761904D01*
X153514819Y-107476190D02*
X152514819Y-107476190D01*
X152514819Y-107476190D02*
X152657676Y-107571428D01*
X152657676Y-107571428D02*
X152752914Y-107666666D01*
X152752914Y-107666666D02*
X152800533Y-107761904D01*
X152514819Y-106333333D02*
X152514819Y-106523809D01*
X152514819Y-106523809D02*
X152562438Y-106619047D01*
X152562438Y-106619047D02*
X152610057Y-106666666D01*
X152610057Y-106666666D02*
X152752914Y-106761904D01*
X152752914Y-106761904D02*
X152943390Y-106809523D01*
X152943390Y-106809523D02*
X153324342Y-106809523D01*
X153324342Y-106809523D02*
X153419580Y-106761904D01*
X153419580Y-106761904D02*
X153467200Y-106714285D01*
X153467200Y-106714285D02*
X153514819Y-106619047D01*
X153514819Y-106619047D02*
X153514819Y-106428571D01*
X153514819Y-106428571D02*
X153467200Y-106333333D01*
X153467200Y-106333333D02*
X153419580Y-106285714D01*
X153419580Y-106285714D02*
X153324342Y-106238095D01*
X153324342Y-106238095D02*
X153086247Y-106238095D01*
X153086247Y-106238095D02*
X152991009Y-106285714D01*
X152991009Y-106285714D02*
X152943390Y-106333333D01*
X152943390Y-106333333D02*
X152895771Y-106428571D01*
X152895771Y-106428571D02*
X152895771Y-106619047D01*
X152895771Y-106619047D02*
X152943390Y-106714285D01*
X152943390Y-106714285D02*
X152991009Y-106761904D01*
X152991009Y-106761904D02*
X153086247Y-106809523D01*
X146014819Y-108142857D02*
X145538628Y-108476190D01*
X146014819Y-108714285D02*
X145014819Y-108714285D01*
X145014819Y-108714285D02*
X145014819Y-108333333D01*
X145014819Y-108333333D02*
X145062438Y-108238095D01*
X145062438Y-108238095D02*
X145110057Y-108190476D01*
X145110057Y-108190476D02*
X145205295Y-108142857D01*
X145205295Y-108142857D02*
X145348152Y-108142857D01*
X145348152Y-108142857D02*
X145443390Y-108190476D01*
X145443390Y-108190476D02*
X145491009Y-108238095D01*
X145491009Y-108238095D02*
X145538628Y-108333333D01*
X145538628Y-108333333D02*
X145538628Y-108714285D01*
X146014819Y-107190476D02*
X146014819Y-107761904D01*
X146014819Y-107476190D02*
X145014819Y-107476190D01*
X145014819Y-107476190D02*
X145157676Y-107571428D01*
X145157676Y-107571428D02*
X145252914Y-107666666D01*
X145252914Y-107666666D02*
X145300533Y-107761904D01*
X145014819Y-106285714D02*
X145014819Y-106761904D01*
X145014819Y-106761904D02*
X145491009Y-106809523D01*
X145491009Y-106809523D02*
X145443390Y-106761904D01*
X145443390Y-106761904D02*
X145395771Y-106666666D01*
X145395771Y-106666666D02*
X145395771Y-106428571D01*
X145395771Y-106428571D02*
X145443390Y-106333333D01*
X145443390Y-106333333D02*
X145491009Y-106285714D01*
X145491009Y-106285714D02*
X145586247Y-106238095D01*
X145586247Y-106238095D02*
X145824342Y-106238095D01*
X145824342Y-106238095D02*
X145919580Y-106285714D01*
X145919580Y-106285714D02*
X145967200Y-106333333D01*
X145967200Y-106333333D02*
X146014819Y-106428571D01*
X146014819Y-106428571D02*
X146014819Y-106666666D01*
X146014819Y-106666666D02*
X145967200Y-106761904D01*
X145967200Y-106761904D02*
X145919580Y-106809523D01*
X138514819Y-108142857D02*
X138038628Y-108476190D01*
X138514819Y-108714285D02*
X137514819Y-108714285D01*
X137514819Y-108714285D02*
X137514819Y-108333333D01*
X137514819Y-108333333D02*
X137562438Y-108238095D01*
X137562438Y-108238095D02*
X137610057Y-108190476D01*
X137610057Y-108190476D02*
X137705295Y-108142857D01*
X137705295Y-108142857D02*
X137848152Y-108142857D01*
X137848152Y-108142857D02*
X137943390Y-108190476D01*
X137943390Y-108190476D02*
X137991009Y-108238095D01*
X137991009Y-108238095D02*
X138038628Y-108333333D01*
X138038628Y-108333333D02*
X138038628Y-108714285D01*
X138514819Y-107190476D02*
X138514819Y-107761904D01*
X138514819Y-107476190D02*
X137514819Y-107476190D01*
X137514819Y-107476190D02*
X137657676Y-107571428D01*
X137657676Y-107571428D02*
X137752914Y-107666666D01*
X137752914Y-107666666D02*
X137800533Y-107761904D01*
X137848152Y-106333333D02*
X138514819Y-106333333D01*
X137467200Y-106571428D02*
X138181485Y-106809523D01*
X138181485Y-106809523D02*
X138181485Y-106190476D01*
X130824819Y-108142857D02*
X130348628Y-108476190D01*
X130824819Y-108714285D02*
X129824819Y-108714285D01*
X129824819Y-108714285D02*
X129824819Y-108333333D01*
X129824819Y-108333333D02*
X129872438Y-108238095D01*
X129872438Y-108238095D02*
X129920057Y-108190476D01*
X129920057Y-108190476D02*
X130015295Y-108142857D01*
X130015295Y-108142857D02*
X130158152Y-108142857D01*
X130158152Y-108142857D02*
X130253390Y-108190476D01*
X130253390Y-108190476D02*
X130301009Y-108238095D01*
X130301009Y-108238095D02*
X130348628Y-108333333D01*
X130348628Y-108333333D02*
X130348628Y-108714285D01*
X130824819Y-107190476D02*
X130824819Y-107761904D01*
X130824819Y-107476190D02*
X129824819Y-107476190D01*
X129824819Y-107476190D02*
X129967676Y-107571428D01*
X129967676Y-107571428D02*
X130062914Y-107666666D01*
X130062914Y-107666666D02*
X130110533Y-107761904D01*
X129824819Y-106857142D02*
X129824819Y-106238095D01*
X129824819Y-106238095D02*
X130205771Y-106571428D01*
X130205771Y-106571428D02*
X130205771Y-106428571D01*
X130205771Y-106428571D02*
X130253390Y-106333333D01*
X130253390Y-106333333D02*
X130301009Y-106285714D01*
X130301009Y-106285714D02*
X130396247Y-106238095D01*
X130396247Y-106238095D02*
X130634342Y-106238095D01*
X130634342Y-106238095D02*
X130729580Y-106285714D01*
X130729580Y-106285714D02*
X130777200Y-106333333D01*
X130777200Y-106333333D02*
X130824819Y-106428571D01*
X130824819Y-106428571D02*
X130824819Y-106714285D01*
X130824819Y-106714285D02*
X130777200Y-106809523D01*
X130777200Y-106809523D02*
X130729580Y-106857142D01*
X123324819Y-108142857D02*
X122848628Y-108476190D01*
X123324819Y-108714285D02*
X122324819Y-108714285D01*
X122324819Y-108714285D02*
X122324819Y-108333333D01*
X122324819Y-108333333D02*
X122372438Y-108238095D01*
X122372438Y-108238095D02*
X122420057Y-108190476D01*
X122420057Y-108190476D02*
X122515295Y-108142857D01*
X122515295Y-108142857D02*
X122658152Y-108142857D01*
X122658152Y-108142857D02*
X122753390Y-108190476D01*
X122753390Y-108190476D02*
X122801009Y-108238095D01*
X122801009Y-108238095D02*
X122848628Y-108333333D01*
X122848628Y-108333333D02*
X122848628Y-108714285D01*
X123324819Y-107190476D02*
X123324819Y-107761904D01*
X123324819Y-107476190D02*
X122324819Y-107476190D01*
X122324819Y-107476190D02*
X122467676Y-107571428D01*
X122467676Y-107571428D02*
X122562914Y-107666666D01*
X122562914Y-107666666D02*
X122610533Y-107761904D01*
X122420057Y-106809523D02*
X122372438Y-106761904D01*
X122372438Y-106761904D02*
X122324819Y-106666666D01*
X122324819Y-106666666D02*
X122324819Y-106428571D01*
X122324819Y-106428571D02*
X122372438Y-106333333D01*
X122372438Y-106333333D02*
X122420057Y-106285714D01*
X122420057Y-106285714D02*
X122515295Y-106238095D01*
X122515295Y-106238095D02*
X122610533Y-106238095D01*
X122610533Y-106238095D02*
X122753390Y-106285714D01*
X122753390Y-106285714D02*
X123324819Y-106857142D01*
X123324819Y-106857142D02*
X123324819Y-106238095D01*
X115824819Y-108142857D02*
X115348628Y-108476190D01*
X115824819Y-108714285D02*
X114824819Y-108714285D01*
X114824819Y-108714285D02*
X114824819Y-108333333D01*
X114824819Y-108333333D02*
X114872438Y-108238095D01*
X114872438Y-108238095D02*
X114920057Y-108190476D01*
X114920057Y-108190476D02*
X115015295Y-108142857D01*
X115015295Y-108142857D02*
X115158152Y-108142857D01*
X115158152Y-108142857D02*
X115253390Y-108190476D01*
X115253390Y-108190476D02*
X115301009Y-108238095D01*
X115301009Y-108238095D02*
X115348628Y-108333333D01*
X115348628Y-108333333D02*
X115348628Y-108714285D01*
X115824819Y-107190476D02*
X115824819Y-107761904D01*
X115824819Y-107476190D02*
X114824819Y-107476190D01*
X114824819Y-107476190D02*
X114967676Y-107571428D01*
X114967676Y-107571428D02*
X115062914Y-107666666D01*
X115062914Y-107666666D02*
X115110533Y-107761904D01*
X115824819Y-106238095D02*
X115824819Y-106809523D01*
X115824819Y-106523809D02*
X114824819Y-106523809D01*
X114824819Y-106523809D02*
X114967676Y-106619047D01*
X114967676Y-106619047D02*
X115062914Y-106714285D01*
X115062914Y-106714285D02*
X115110533Y-106809523D01*
X108324819Y-108142857D02*
X107848628Y-108476190D01*
X108324819Y-108714285D02*
X107324819Y-108714285D01*
X107324819Y-108714285D02*
X107324819Y-108333333D01*
X107324819Y-108333333D02*
X107372438Y-108238095D01*
X107372438Y-108238095D02*
X107420057Y-108190476D01*
X107420057Y-108190476D02*
X107515295Y-108142857D01*
X107515295Y-108142857D02*
X107658152Y-108142857D01*
X107658152Y-108142857D02*
X107753390Y-108190476D01*
X107753390Y-108190476D02*
X107801009Y-108238095D01*
X107801009Y-108238095D02*
X107848628Y-108333333D01*
X107848628Y-108333333D02*
X107848628Y-108714285D01*
X108324819Y-107190476D02*
X108324819Y-107761904D01*
X108324819Y-107476190D02*
X107324819Y-107476190D01*
X107324819Y-107476190D02*
X107467676Y-107571428D01*
X107467676Y-107571428D02*
X107562914Y-107666666D01*
X107562914Y-107666666D02*
X107610533Y-107761904D01*
X107324819Y-106571428D02*
X107324819Y-106476190D01*
X107324819Y-106476190D02*
X107372438Y-106380952D01*
X107372438Y-106380952D02*
X107420057Y-106333333D01*
X107420057Y-106333333D02*
X107515295Y-106285714D01*
X107515295Y-106285714D02*
X107705771Y-106238095D01*
X107705771Y-106238095D02*
X107943866Y-106238095D01*
X107943866Y-106238095D02*
X108134342Y-106285714D01*
X108134342Y-106285714D02*
X108229580Y-106333333D01*
X108229580Y-106333333D02*
X108277200Y-106380952D01*
X108277200Y-106380952D02*
X108324819Y-106476190D01*
X108324819Y-106476190D02*
X108324819Y-106571428D01*
X108324819Y-106571428D02*
X108277200Y-106666666D01*
X108277200Y-106666666D02*
X108229580Y-106714285D01*
X108229580Y-106714285D02*
X108134342Y-106761904D01*
X108134342Y-106761904D02*
X107943866Y-106809523D01*
X107943866Y-106809523D02*
X107705771Y-106809523D01*
X107705771Y-106809523D02*
X107515295Y-106761904D01*
X107515295Y-106761904D02*
X107420057Y-106714285D01*
X107420057Y-106714285D02*
X107372438Y-106666666D01*
X107372438Y-106666666D02*
X107324819Y-106571428D01*
X101324819Y-107666666D02*
X100848628Y-107999999D01*
X101324819Y-108238094D02*
X100324819Y-108238094D01*
X100324819Y-108238094D02*
X100324819Y-107857142D01*
X100324819Y-107857142D02*
X100372438Y-107761904D01*
X100372438Y-107761904D02*
X100420057Y-107714285D01*
X100420057Y-107714285D02*
X100515295Y-107666666D01*
X100515295Y-107666666D02*
X100658152Y-107666666D01*
X100658152Y-107666666D02*
X100753390Y-107714285D01*
X100753390Y-107714285D02*
X100801009Y-107761904D01*
X100801009Y-107761904D02*
X100848628Y-107857142D01*
X100848628Y-107857142D02*
X100848628Y-108238094D01*
X101324819Y-107190475D02*
X101324819Y-106999999D01*
X101324819Y-106999999D02*
X101277200Y-106904761D01*
X101277200Y-106904761D02*
X101229580Y-106857142D01*
X101229580Y-106857142D02*
X101086723Y-106761904D01*
X101086723Y-106761904D02*
X100896247Y-106714285D01*
X100896247Y-106714285D02*
X100515295Y-106714285D01*
X100515295Y-106714285D02*
X100420057Y-106761904D01*
X100420057Y-106761904D02*
X100372438Y-106809523D01*
X100372438Y-106809523D02*
X100324819Y-106904761D01*
X100324819Y-106904761D02*
X100324819Y-107095237D01*
X100324819Y-107095237D02*
X100372438Y-107190475D01*
X100372438Y-107190475D02*
X100420057Y-107238094D01*
X100420057Y-107238094D02*
X100515295Y-107285713D01*
X100515295Y-107285713D02*
X100753390Y-107285713D01*
X100753390Y-107285713D02*
X100848628Y-107238094D01*
X100848628Y-107238094D02*
X100896247Y-107190475D01*
X100896247Y-107190475D02*
X100943866Y-107095237D01*
X100943866Y-107095237D02*
X100943866Y-106904761D01*
X100943866Y-106904761D02*
X100896247Y-106809523D01*
X100896247Y-106809523D02*
X100848628Y-106761904D01*
X100848628Y-106761904D02*
X100753390Y-106714285D01*
X141409104Y-90834285D02*
X141409104Y-90358095D01*
X141694819Y-90929523D02*
X140694819Y-90596190D01*
X140694819Y-90596190D02*
X141694819Y-90262857D01*
X141694819Y-89405714D02*
X141694819Y-89977142D01*
X141694819Y-89691428D02*
X140694819Y-89691428D01*
X140694819Y-89691428D02*
X140837676Y-89786666D01*
X140837676Y-89786666D02*
X140932914Y-89881904D01*
X140932914Y-89881904D02*
X140980533Y-89977142D01*
X101145180Y-88858095D02*
X100335657Y-88858095D01*
X100335657Y-88858095D02*
X100240419Y-88905714D01*
X100240419Y-88905714D02*
X100192800Y-88953333D01*
X100192800Y-88953333D02*
X100145180Y-89048571D01*
X100145180Y-89048571D02*
X100145180Y-89239047D01*
X100145180Y-89239047D02*
X100192800Y-89334285D01*
X100192800Y-89334285D02*
X100240419Y-89381904D01*
X100240419Y-89381904D02*
X100335657Y-89429523D01*
X100335657Y-89429523D02*
X101145180Y-89429523D01*
X100192800Y-89858095D02*
X100145180Y-90000952D01*
X100145180Y-90000952D02*
X100145180Y-90239047D01*
X100145180Y-90239047D02*
X100192800Y-90334285D01*
X100192800Y-90334285D02*
X100240419Y-90381904D01*
X100240419Y-90381904D02*
X100335657Y-90429523D01*
X100335657Y-90429523D02*
X100430895Y-90429523D01*
X100430895Y-90429523D02*
X100526133Y-90381904D01*
X100526133Y-90381904D02*
X100573752Y-90334285D01*
X100573752Y-90334285D02*
X100621371Y-90239047D01*
X100621371Y-90239047D02*
X100668990Y-90048571D01*
X100668990Y-90048571D02*
X100716609Y-89953333D01*
X100716609Y-89953333D02*
X100764228Y-89905714D01*
X100764228Y-89905714D02*
X100859466Y-89858095D01*
X100859466Y-89858095D02*
X100954704Y-89858095D01*
X100954704Y-89858095D02*
X101049942Y-89905714D01*
X101049942Y-89905714D02*
X101097561Y-89953333D01*
X101097561Y-89953333D02*
X101145180Y-90048571D01*
X101145180Y-90048571D02*
X101145180Y-90286666D01*
X101145180Y-90286666D02*
X101097561Y-90429523D01*
X100668990Y-91191428D02*
X100621371Y-91334285D01*
X100621371Y-91334285D02*
X100573752Y-91381904D01*
X100573752Y-91381904D02*
X100478514Y-91429523D01*
X100478514Y-91429523D02*
X100335657Y-91429523D01*
X100335657Y-91429523D02*
X100240419Y-91381904D01*
X100240419Y-91381904D02*
X100192800Y-91334285D01*
X100192800Y-91334285D02*
X100145180Y-91239047D01*
X100145180Y-91239047D02*
X100145180Y-90858095D01*
X100145180Y-90858095D02*
X101145180Y-90858095D01*
X101145180Y-90858095D02*
X101145180Y-91191428D01*
X101145180Y-91191428D02*
X101097561Y-91286666D01*
X101097561Y-91286666D02*
X101049942Y-91334285D01*
X101049942Y-91334285D02*
X100954704Y-91381904D01*
X100954704Y-91381904D02*
X100859466Y-91381904D01*
X100859466Y-91381904D02*
X100764228Y-91334285D01*
X100764228Y-91334285D02*
X100716609Y-91286666D01*
X100716609Y-91286666D02*
X100668990Y-91191428D01*
X100668990Y-91191428D02*
X100668990Y-90858095D01*
X146928095Y-78964819D02*
X146928095Y-79774342D01*
X146928095Y-79774342D02*
X146975714Y-79869580D01*
X146975714Y-79869580D02*
X147023333Y-79917200D01*
X147023333Y-79917200D02*
X147118571Y-79964819D01*
X147118571Y-79964819D02*
X147309047Y-79964819D01*
X147309047Y-79964819D02*
X147404285Y-79917200D01*
X147404285Y-79917200D02*
X147451904Y-79869580D01*
X147451904Y-79869580D02*
X147499523Y-79774342D01*
X147499523Y-79774342D02*
X147499523Y-78964819D01*
X147928095Y-79060057D02*
X147975714Y-79012438D01*
X147975714Y-79012438D02*
X148070952Y-78964819D01*
X148070952Y-78964819D02*
X148309047Y-78964819D01*
X148309047Y-78964819D02*
X148404285Y-79012438D01*
X148404285Y-79012438D02*
X148451904Y-79060057D01*
X148451904Y-79060057D02*
X148499523Y-79155295D01*
X148499523Y-79155295D02*
X148499523Y-79250533D01*
X148499523Y-79250533D02*
X148451904Y-79393390D01*
X148451904Y-79393390D02*
X147880476Y-79964819D01*
X147880476Y-79964819D02*
X148499523Y-79964819D01*
%TO.C,D15*%
D11*
X145495000Y-116250000D02*
G75*
G02*
X140495000Y-116250000I-2500000J0D01*
G01*
X140495000Y-116250000D02*
G75*
G02*
X145495000Y-116250000I2500000J0D01*
G01*
X145985000Y-116250000D02*
G75*
G02*
X140435000Y-117794830I-2990000J0D01*
G01*
X140435000Y-114705170D02*
G75*
G02*
X145985000Y-116250000I2560000J-1544830D01*
G01*
X140435000Y-114705000D02*
X140435000Y-117795000D01*
%TO.C,D10*%
X107995000Y-116250000D02*
G75*
G02*
X102995000Y-116250000I-2500000J0D01*
G01*
X102995000Y-116250000D02*
G75*
G02*
X107995000Y-116250000I2500000J0D01*
G01*
X108485000Y-116250000D02*
G75*
G02*
X102935000Y-117794830I-2990000J0D01*
G01*
X102935000Y-114705170D02*
G75*
G02*
X108485000Y-116250000I2560000J-1544830D01*
G01*
X102935000Y-114705000D02*
X102935000Y-117795000D01*
%TO.C,D13*%
X130495000Y-116250000D02*
G75*
G02*
X125495000Y-116250000I-2500000J0D01*
G01*
X125495000Y-116250000D02*
G75*
G02*
X130495000Y-116250000I2500000J0D01*
G01*
X130985000Y-116250000D02*
G75*
G02*
X125435000Y-117794830I-2990000J0D01*
G01*
X125435000Y-114705170D02*
G75*
G02*
X130985000Y-116250000I2560000J-1544830D01*
G01*
X125435000Y-114705000D02*
X125435000Y-117795000D01*
%TO.C,D14*%
X137995000Y-116250000D02*
G75*
G02*
X132995000Y-116250000I-2500000J0D01*
G01*
X132995000Y-116250000D02*
G75*
G02*
X137995000Y-116250000I2500000J0D01*
G01*
X138485000Y-116250000D02*
G75*
G02*
X132935000Y-117794830I-2990000J0D01*
G01*
X132935000Y-114705170D02*
G75*
G02*
X138485000Y-116250000I2560000J-1544830D01*
G01*
X132935000Y-114705000D02*
X132935000Y-117795000D01*
%TO.C,D9*%
X100495000Y-116250000D02*
G75*
G02*
X95495000Y-116250000I-2500000J0D01*
G01*
X95495000Y-116250000D02*
G75*
G02*
X100495000Y-116250000I2500000J0D01*
G01*
X100985000Y-116250000D02*
G75*
G02*
X95435000Y-117794830I-2990000J0D01*
G01*
X95435000Y-114705170D02*
G75*
G02*
X100985000Y-116250000I2560000J-1544830D01*
G01*
X95435000Y-114705000D02*
X95435000Y-117795000D01*
%TO.C,D16*%
X152995000Y-116250000D02*
G75*
G02*
X147995000Y-116250000I-2500000J0D01*
G01*
X147995000Y-116250000D02*
G75*
G02*
X152995000Y-116250000I2500000J0D01*
G01*
X153485000Y-116250000D02*
G75*
G02*
X147935000Y-117794830I-2990000J0D01*
G01*
X147935000Y-114705170D02*
G75*
G02*
X153485000Y-116250000I2560000J-1544830D01*
G01*
X147935000Y-114705000D02*
X147935000Y-117795000D01*
%TO.C,D11*%
X115495000Y-116250000D02*
G75*
G02*
X110495000Y-116250000I-2500000J0D01*
G01*
X110495000Y-116250000D02*
G75*
G02*
X115495000Y-116250000I2500000J0D01*
G01*
X115985000Y-116250000D02*
G75*
G02*
X110435000Y-117794830I-2990000J0D01*
G01*
X110435000Y-114705170D02*
G75*
G02*
X115985000Y-116250000I2560000J-1544830D01*
G01*
X110435000Y-114705000D02*
X110435000Y-117795000D01*
%TO.C,D12*%
X122995000Y-116250000D02*
G75*
G02*
X117995000Y-116250000I-2500000J0D01*
G01*
X117995000Y-116250000D02*
G75*
G02*
X122995000Y-116250000I2500000J0D01*
G01*
X123485000Y-116250000D02*
G75*
G02*
X117935000Y-117794830I-2990000J0D01*
G01*
X117935000Y-114705170D02*
G75*
G02*
X123485000Y-116250000I2560000J-1544830D01*
G01*
X117935000Y-114705000D02*
X117935000Y-117795000D01*
%TO.C,R16*%
X152060000Y-104230000D02*
X152060000Y-110770000D01*
X151730000Y-104230000D02*
X152060000Y-104230000D01*
X149650000Y-104230000D02*
X149320000Y-104230000D01*
X149320000Y-104230000D02*
X149320000Y-110770000D01*
X152060000Y-110770000D02*
X151730000Y-110770000D01*
X149320000Y-110770000D02*
X149650000Y-110770000D01*
%TO.C,R15*%
X144560000Y-104230000D02*
X144560000Y-110770000D01*
X144230000Y-104230000D02*
X144560000Y-104230000D01*
X142150000Y-104230000D02*
X141820000Y-104230000D01*
X141820000Y-104230000D02*
X141820000Y-110770000D01*
X144560000Y-110770000D02*
X144230000Y-110770000D01*
X141820000Y-110770000D02*
X142150000Y-110770000D01*
%TO.C,R14*%
X137060000Y-104230000D02*
X137060000Y-110770000D01*
X136730000Y-104230000D02*
X137060000Y-104230000D01*
X134650000Y-104230000D02*
X134320000Y-104230000D01*
X134320000Y-104230000D02*
X134320000Y-110770000D01*
X137060000Y-110770000D02*
X136730000Y-110770000D01*
X134320000Y-110770000D02*
X134650000Y-110770000D01*
%TO.C,R13*%
X129370000Y-104230000D02*
X129370000Y-110770000D01*
X129040000Y-104230000D02*
X129370000Y-104230000D01*
X126960000Y-104230000D02*
X126630000Y-104230000D01*
X126630000Y-104230000D02*
X126630000Y-110770000D01*
X129370000Y-110770000D02*
X129040000Y-110770000D01*
X126630000Y-110770000D02*
X126960000Y-110770000D01*
%TO.C,R12*%
X121870000Y-104230000D02*
X121870000Y-110770000D01*
X121540000Y-104230000D02*
X121870000Y-104230000D01*
X119460000Y-104230000D02*
X119130000Y-104230000D01*
X119130000Y-104230000D02*
X119130000Y-110770000D01*
X121870000Y-110770000D02*
X121540000Y-110770000D01*
X119130000Y-110770000D02*
X119460000Y-110770000D01*
%TO.C,R11*%
X114370000Y-104230000D02*
X114370000Y-110770000D01*
X114040000Y-104230000D02*
X114370000Y-104230000D01*
X111960000Y-104230000D02*
X111630000Y-104230000D01*
X111630000Y-104230000D02*
X111630000Y-110770000D01*
X114370000Y-110770000D02*
X114040000Y-110770000D01*
X111630000Y-110770000D02*
X111960000Y-110770000D01*
%TO.C,R10*%
X106870000Y-104230000D02*
X106870000Y-110770000D01*
X106540000Y-104230000D02*
X106870000Y-104230000D01*
X104460000Y-104230000D02*
X104130000Y-104230000D01*
X104130000Y-104230000D02*
X104130000Y-110770000D01*
X106870000Y-110770000D02*
X106540000Y-110770000D01*
X104130000Y-110770000D02*
X104460000Y-110770000D01*
%TO.C,R9*%
X99870000Y-104230000D02*
X99870000Y-110770000D01*
X99540000Y-104230000D02*
X99870000Y-104230000D01*
X97460000Y-104230000D02*
X97130000Y-104230000D01*
X97130000Y-104230000D02*
X97130000Y-110770000D01*
X99870000Y-110770000D02*
X99540000Y-110770000D01*
X97130000Y-110770000D02*
X97460000Y-110770000D01*
%TO.C,A1*%
X94120000Y-86180000D02*
X104540000Y-86180000D01*
X94120000Y-94060000D02*
X94120000Y-86180000D01*
X96660000Y-81100000D02*
X96660000Y-86180000D01*
X96660000Y-99140000D02*
X96660000Y-94060000D01*
X96660000Y-99140000D02*
X140100000Y-99140000D01*
X99330000Y-83770000D02*
X99330000Y-81100000D01*
X99330000Y-96470000D02*
X99330000Y-99140000D01*
X104540000Y-86180000D02*
X104540000Y-94060000D01*
X104540000Y-94060000D02*
X94120000Y-94060000D01*
X134890000Y-81100000D02*
X96660000Y-81100000D01*
X134890000Y-83770000D02*
X99330000Y-83770000D01*
X134890000Y-83770000D02*
X134890000Y-81100000D01*
X134890000Y-83770000D02*
X137430000Y-83770000D01*
X137430000Y-83770000D02*
X137430000Y-81100000D01*
X137430000Y-96470000D02*
X99330000Y-96470000D01*
X137430000Y-96470000D02*
X137430000Y-99140000D01*
X140100000Y-81100000D02*
X137430000Y-81100000D01*
X140100000Y-99140000D02*
X140100000Y-81100000D01*
%TO.C,U2*%
X145040000Y-80510000D02*
X145040000Y-100950000D01*
X145040000Y-100950000D02*
X150340000Y-100950000D01*
X146690000Y-80510000D02*
X145040000Y-80510000D01*
X150340000Y-80510000D02*
X148690000Y-80510000D01*
X150340000Y-100950000D02*
X150340000Y-80510000D01*
X148690000Y-80510000D02*
G75*
G02*
X146690000Y-80510000I-1000000J0D01*
G01*
%TD*%
M02*
