%TF.GenerationSoftware,KiCad,Pcbnew,10.0.1*%
%TF.CreationDate,2026-04-24T20:01:20-04:00*%
%TF.ProjectId,schematic,73636865-6d61-4746-9963-2e6b69636164,rev?*%
%TF.SameCoordinates,Original*%
%TF.FileFunction,Legend,Top*%
%TF.FilePolarity,Positive*%
%FSLAX46Y46*%
G04 Gerber Fmt 4.6, Leading zero omitted, Abs format (unit mm)*
G04 Created by KiCad (PCBNEW 10.0.1) date 2026-04-24 20:01:20*
%MOMM*%
%LPD*%
G01*
G04 APERTURE LIST*
%ADD10C,0.150000*%
%ADD11C,0.120000*%
G04 APERTURE END LIST*
D10*
X119280714Y-111494819D02*
X119280714Y-110494819D01*
X119280714Y-110494819D02*
X119518809Y-110494819D01*
X119518809Y-110494819D02*
X119661666Y-110542438D01*
X119661666Y-110542438D02*
X119756904Y-110637676D01*
X119756904Y-110637676D02*
X119804523Y-110732914D01*
X119804523Y-110732914D02*
X119852142Y-110923390D01*
X119852142Y-110923390D02*
X119852142Y-111066247D01*
X119852142Y-111066247D02*
X119804523Y-111256723D01*
X119804523Y-111256723D02*
X119756904Y-111351961D01*
X119756904Y-111351961D02*
X119661666Y-111447200D01*
X119661666Y-111447200D02*
X119518809Y-111494819D01*
X119518809Y-111494819D02*
X119280714Y-111494819D01*
X120804523Y-111494819D02*
X120233095Y-111494819D01*
X120518809Y-111494819D02*
X120518809Y-110494819D01*
X120518809Y-110494819D02*
X120423571Y-110637676D01*
X120423571Y-110637676D02*
X120328333Y-110732914D01*
X120328333Y-110732914D02*
X120233095Y-110780533D01*
X121185476Y-110590057D02*
X121233095Y-110542438D01*
X121233095Y-110542438D02*
X121328333Y-110494819D01*
X121328333Y-110494819D02*
X121566428Y-110494819D01*
X121566428Y-110494819D02*
X121661666Y-110542438D01*
X121661666Y-110542438D02*
X121709285Y-110590057D01*
X121709285Y-110590057D02*
X121756904Y-110685295D01*
X121756904Y-110685295D02*
X121756904Y-110780533D01*
X121756904Y-110780533D02*
X121709285Y-110923390D01*
X121709285Y-110923390D02*
X121137857Y-111494819D01*
X121137857Y-111494819D02*
X121756904Y-111494819D01*
X127547142Y-106424819D02*
X127213809Y-105948628D01*
X126975714Y-106424819D02*
X126975714Y-105424819D01*
X126975714Y-105424819D02*
X127356666Y-105424819D01*
X127356666Y-105424819D02*
X127451904Y-105472438D01*
X127451904Y-105472438D02*
X127499523Y-105520057D01*
X127499523Y-105520057D02*
X127547142Y-105615295D01*
X127547142Y-105615295D02*
X127547142Y-105758152D01*
X127547142Y-105758152D02*
X127499523Y-105853390D01*
X127499523Y-105853390D02*
X127451904Y-105901009D01*
X127451904Y-105901009D02*
X127356666Y-105948628D01*
X127356666Y-105948628D02*
X126975714Y-105948628D01*
X128499523Y-106424819D02*
X127928095Y-106424819D01*
X128213809Y-106424819D02*
X128213809Y-105424819D01*
X128213809Y-105424819D02*
X128118571Y-105567676D01*
X128118571Y-105567676D02*
X128023333Y-105662914D01*
X128023333Y-105662914D02*
X127928095Y-105710533D01*
X128832857Y-105424819D02*
X129451904Y-105424819D01*
X129451904Y-105424819D02*
X129118571Y-105805771D01*
X129118571Y-105805771D02*
X129261428Y-105805771D01*
X129261428Y-105805771D02*
X129356666Y-105853390D01*
X129356666Y-105853390D02*
X129404285Y-105901009D01*
X129404285Y-105901009D02*
X129451904Y-105996247D01*
X129451904Y-105996247D02*
X129451904Y-106234342D01*
X129451904Y-106234342D02*
X129404285Y-106329580D01*
X129404285Y-106329580D02*
X129356666Y-106377200D01*
X129356666Y-106377200D02*
X129261428Y-106424819D01*
X129261428Y-106424819D02*
X128975714Y-106424819D01*
X128975714Y-106424819D02*
X128880476Y-106377200D01*
X128880476Y-106377200D02*
X128832857Y-106329580D01*
X150047142Y-106424819D02*
X149713809Y-105948628D01*
X149475714Y-106424819D02*
X149475714Y-105424819D01*
X149475714Y-105424819D02*
X149856666Y-105424819D01*
X149856666Y-105424819D02*
X149951904Y-105472438D01*
X149951904Y-105472438D02*
X149999523Y-105520057D01*
X149999523Y-105520057D02*
X150047142Y-105615295D01*
X150047142Y-105615295D02*
X150047142Y-105758152D01*
X150047142Y-105758152D02*
X149999523Y-105853390D01*
X149999523Y-105853390D02*
X149951904Y-105901009D01*
X149951904Y-105901009D02*
X149856666Y-105948628D01*
X149856666Y-105948628D02*
X149475714Y-105948628D01*
X150999523Y-106424819D02*
X150428095Y-106424819D01*
X150713809Y-106424819D02*
X150713809Y-105424819D01*
X150713809Y-105424819D02*
X150618571Y-105567676D01*
X150618571Y-105567676D02*
X150523333Y-105662914D01*
X150523333Y-105662914D02*
X150428095Y-105710533D01*
X151856666Y-105424819D02*
X151666190Y-105424819D01*
X151666190Y-105424819D02*
X151570952Y-105472438D01*
X151570952Y-105472438D02*
X151523333Y-105520057D01*
X151523333Y-105520057D02*
X151428095Y-105662914D01*
X151428095Y-105662914D02*
X151380476Y-105853390D01*
X151380476Y-105853390D02*
X151380476Y-106234342D01*
X151380476Y-106234342D02*
X151428095Y-106329580D01*
X151428095Y-106329580D02*
X151475714Y-106377200D01*
X151475714Y-106377200D02*
X151570952Y-106424819D01*
X151570952Y-106424819D02*
X151761428Y-106424819D01*
X151761428Y-106424819D02*
X151856666Y-106377200D01*
X151856666Y-106377200D02*
X151904285Y-106329580D01*
X151904285Y-106329580D02*
X151951904Y-106234342D01*
X151951904Y-106234342D02*
X151951904Y-105996247D01*
X151951904Y-105996247D02*
X151904285Y-105901009D01*
X151904285Y-105901009D02*
X151856666Y-105853390D01*
X151856666Y-105853390D02*
X151761428Y-105805771D01*
X151761428Y-105805771D02*
X151570952Y-105805771D01*
X151570952Y-105805771D02*
X151475714Y-105853390D01*
X151475714Y-105853390D02*
X151428095Y-105901009D01*
X151428095Y-105901009D02*
X151380476Y-105996247D01*
X135047142Y-106424819D02*
X134713809Y-105948628D01*
X134475714Y-106424819D02*
X134475714Y-105424819D01*
X134475714Y-105424819D02*
X134856666Y-105424819D01*
X134856666Y-105424819D02*
X134951904Y-105472438D01*
X134951904Y-105472438D02*
X134999523Y-105520057D01*
X134999523Y-105520057D02*
X135047142Y-105615295D01*
X135047142Y-105615295D02*
X135047142Y-105758152D01*
X135047142Y-105758152D02*
X134999523Y-105853390D01*
X134999523Y-105853390D02*
X134951904Y-105901009D01*
X134951904Y-105901009D02*
X134856666Y-105948628D01*
X134856666Y-105948628D02*
X134475714Y-105948628D01*
X135999523Y-106424819D02*
X135428095Y-106424819D01*
X135713809Y-106424819D02*
X135713809Y-105424819D01*
X135713809Y-105424819D02*
X135618571Y-105567676D01*
X135618571Y-105567676D02*
X135523333Y-105662914D01*
X135523333Y-105662914D02*
X135428095Y-105710533D01*
X136856666Y-105758152D02*
X136856666Y-106424819D01*
X136618571Y-105377200D02*
X136380476Y-106091485D01*
X136380476Y-106091485D02*
X136999523Y-106091485D01*
X112547142Y-106424819D02*
X112213809Y-105948628D01*
X111975714Y-106424819D02*
X111975714Y-105424819D01*
X111975714Y-105424819D02*
X112356666Y-105424819D01*
X112356666Y-105424819D02*
X112451904Y-105472438D01*
X112451904Y-105472438D02*
X112499523Y-105520057D01*
X112499523Y-105520057D02*
X112547142Y-105615295D01*
X112547142Y-105615295D02*
X112547142Y-105758152D01*
X112547142Y-105758152D02*
X112499523Y-105853390D01*
X112499523Y-105853390D02*
X112451904Y-105901009D01*
X112451904Y-105901009D02*
X112356666Y-105948628D01*
X112356666Y-105948628D02*
X111975714Y-105948628D01*
X113499523Y-106424819D02*
X112928095Y-106424819D01*
X113213809Y-106424819D02*
X113213809Y-105424819D01*
X113213809Y-105424819D02*
X113118571Y-105567676D01*
X113118571Y-105567676D02*
X113023333Y-105662914D01*
X113023333Y-105662914D02*
X112928095Y-105710533D01*
X114451904Y-106424819D02*
X113880476Y-106424819D01*
X114166190Y-106424819D02*
X114166190Y-105424819D01*
X114166190Y-105424819D02*
X114070952Y-105567676D01*
X114070952Y-105567676D02*
X113975714Y-105662914D01*
X113975714Y-105662914D02*
X113880476Y-105710533D01*
X105047142Y-106424819D02*
X104713809Y-105948628D01*
X104475714Y-106424819D02*
X104475714Y-105424819D01*
X104475714Y-105424819D02*
X104856666Y-105424819D01*
X104856666Y-105424819D02*
X104951904Y-105472438D01*
X104951904Y-105472438D02*
X104999523Y-105520057D01*
X104999523Y-105520057D02*
X105047142Y-105615295D01*
X105047142Y-105615295D02*
X105047142Y-105758152D01*
X105047142Y-105758152D02*
X104999523Y-105853390D01*
X104999523Y-105853390D02*
X104951904Y-105901009D01*
X104951904Y-105901009D02*
X104856666Y-105948628D01*
X104856666Y-105948628D02*
X104475714Y-105948628D01*
X105999523Y-106424819D02*
X105428095Y-106424819D01*
X105713809Y-106424819D02*
X105713809Y-105424819D01*
X105713809Y-105424819D02*
X105618571Y-105567676D01*
X105618571Y-105567676D02*
X105523333Y-105662914D01*
X105523333Y-105662914D02*
X105428095Y-105710533D01*
X106618571Y-105424819D02*
X106713809Y-105424819D01*
X106713809Y-105424819D02*
X106809047Y-105472438D01*
X106809047Y-105472438D02*
X106856666Y-105520057D01*
X106856666Y-105520057D02*
X106904285Y-105615295D01*
X106904285Y-105615295D02*
X106951904Y-105805771D01*
X106951904Y-105805771D02*
X106951904Y-106043866D01*
X106951904Y-106043866D02*
X106904285Y-106234342D01*
X106904285Y-106234342D02*
X106856666Y-106329580D01*
X106856666Y-106329580D02*
X106809047Y-106377200D01*
X106809047Y-106377200D02*
X106713809Y-106424819D01*
X106713809Y-106424819D02*
X106618571Y-106424819D01*
X106618571Y-106424819D02*
X106523333Y-106377200D01*
X106523333Y-106377200D02*
X106475714Y-106329580D01*
X106475714Y-106329580D02*
X106428095Y-106234342D01*
X106428095Y-106234342D02*
X106380476Y-106043866D01*
X106380476Y-106043866D02*
X106380476Y-105805771D01*
X106380476Y-105805771D02*
X106428095Y-105615295D01*
X106428095Y-105615295D02*
X106475714Y-105520057D01*
X106475714Y-105520057D02*
X106523333Y-105472438D01*
X106523333Y-105472438D02*
X106618571Y-105424819D01*
X141409104Y-90834285D02*
X141409104Y-90358095D01*
X141694819Y-90929523D02*
X140694819Y-90596190D01*
X140694819Y-90596190D02*
X141694819Y-90262857D01*
X141694819Y-89405714D02*
X141694819Y-89977142D01*
X141694819Y-89691428D02*
X140694819Y-89691428D01*
X140694819Y-89691428D02*
X140837676Y-89786666D01*
X140837676Y-89786666D02*
X140932914Y-89881904D01*
X140932914Y-89881904D02*
X140980533Y-89977142D01*
X101145180Y-88858095D02*
X100335657Y-88858095D01*
X100335657Y-88858095D02*
X100240419Y-88905714D01*
X100240419Y-88905714D02*
X100192800Y-88953333D01*
X100192800Y-88953333D02*
X100145180Y-89048571D01*
X100145180Y-89048571D02*
X100145180Y-89239047D01*
X100145180Y-89239047D02*
X100192800Y-89334285D01*
X100192800Y-89334285D02*
X100240419Y-89381904D01*
X100240419Y-89381904D02*
X100335657Y-89429523D01*
X100335657Y-89429523D02*
X101145180Y-89429523D01*
X100192800Y-89858095D02*
X100145180Y-90000952D01*
X100145180Y-90000952D02*
X100145180Y-90239047D01*
X100145180Y-90239047D02*
X100192800Y-90334285D01*
X100192800Y-90334285D02*
X100240419Y-90381904D01*
X100240419Y-90381904D02*
X100335657Y-90429523D01*
X100335657Y-90429523D02*
X100430895Y-90429523D01*
X100430895Y-90429523D02*
X100526133Y-90381904D01*
X100526133Y-90381904D02*
X100573752Y-90334285D01*
X100573752Y-90334285D02*
X100621371Y-90239047D01*
X100621371Y-90239047D02*
X100668990Y-90048571D01*
X100668990Y-90048571D02*
X100716609Y-89953333D01*
X100716609Y-89953333D02*
X100764228Y-89905714D01*
X100764228Y-89905714D02*
X100859466Y-89858095D01*
X100859466Y-89858095D02*
X100954704Y-89858095D01*
X100954704Y-89858095D02*
X101049942Y-89905714D01*
X101049942Y-89905714D02*
X101097561Y-89953333D01*
X101097561Y-89953333D02*
X101145180Y-90048571D01*
X101145180Y-90048571D02*
X101145180Y-90286666D01*
X101145180Y-90286666D02*
X101097561Y-90429523D01*
X100668990Y-91191428D02*
X100621371Y-91334285D01*
X100621371Y-91334285D02*
X100573752Y-91381904D01*
X100573752Y-91381904D02*
X100478514Y-91429523D01*
X100478514Y-91429523D02*
X100335657Y-91429523D01*
X100335657Y-91429523D02*
X100240419Y-91381904D01*
X100240419Y-91381904D02*
X100192800Y-91334285D01*
X100192800Y-91334285D02*
X100145180Y-91239047D01*
X100145180Y-91239047D02*
X100145180Y-90858095D01*
X100145180Y-90858095D02*
X101145180Y-90858095D01*
X101145180Y-90858095D02*
X101145180Y-91191428D01*
X101145180Y-91191428D02*
X101097561Y-91286666D01*
X101097561Y-91286666D02*
X101049942Y-91334285D01*
X101049942Y-91334285D02*
X100954704Y-91381904D01*
X100954704Y-91381904D02*
X100859466Y-91381904D01*
X100859466Y-91381904D02*
X100764228Y-91334285D01*
X100764228Y-91334285D02*
X100716609Y-91286666D01*
X100716609Y-91286666D02*
X100668990Y-91191428D01*
X100668990Y-91191428D02*
X100668990Y-90858095D01*
X104280714Y-111494819D02*
X104280714Y-110494819D01*
X104280714Y-110494819D02*
X104518809Y-110494819D01*
X104518809Y-110494819D02*
X104661666Y-110542438D01*
X104661666Y-110542438D02*
X104756904Y-110637676D01*
X104756904Y-110637676D02*
X104804523Y-110732914D01*
X104804523Y-110732914D02*
X104852142Y-110923390D01*
X104852142Y-110923390D02*
X104852142Y-111066247D01*
X104852142Y-111066247D02*
X104804523Y-111256723D01*
X104804523Y-111256723D02*
X104756904Y-111351961D01*
X104756904Y-111351961D02*
X104661666Y-111447200D01*
X104661666Y-111447200D02*
X104518809Y-111494819D01*
X104518809Y-111494819D02*
X104280714Y-111494819D01*
X105804523Y-111494819D02*
X105233095Y-111494819D01*
X105518809Y-111494819D02*
X105518809Y-110494819D01*
X105518809Y-110494819D02*
X105423571Y-110637676D01*
X105423571Y-110637676D02*
X105328333Y-110732914D01*
X105328333Y-110732914D02*
X105233095Y-110780533D01*
X106423571Y-110494819D02*
X106518809Y-110494819D01*
X106518809Y-110494819D02*
X106614047Y-110542438D01*
X106614047Y-110542438D02*
X106661666Y-110590057D01*
X106661666Y-110590057D02*
X106709285Y-110685295D01*
X106709285Y-110685295D02*
X106756904Y-110875771D01*
X106756904Y-110875771D02*
X106756904Y-111113866D01*
X106756904Y-111113866D02*
X106709285Y-111304342D01*
X106709285Y-111304342D02*
X106661666Y-111399580D01*
X106661666Y-111399580D02*
X106614047Y-111447200D01*
X106614047Y-111447200D02*
X106518809Y-111494819D01*
X106518809Y-111494819D02*
X106423571Y-111494819D01*
X106423571Y-111494819D02*
X106328333Y-111447200D01*
X106328333Y-111447200D02*
X106280714Y-111399580D01*
X106280714Y-111399580D02*
X106233095Y-111304342D01*
X106233095Y-111304342D02*
X106185476Y-111113866D01*
X106185476Y-111113866D02*
X106185476Y-110875771D01*
X106185476Y-110875771D02*
X106233095Y-110685295D01*
X106233095Y-110685295D02*
X106280714Y-110590057D01*
X106280714Y-110590057D02*
X106328333Y-110542438D01*
X106328333Y-110542438D02*
X106423571Y-110494819D01*
X142547142Y-106424819D02*
X142213809Y-105948628D01*
X141975714Y-106424819D02*
X141975714Y-105424819D01*
X141975714Y-105424819D02*
X142356666Y-105424819D01*
X142356666Y-105424819D02*
X142451904Y-105472438D01*
X142451904Y-105472438D02*
X142499523Y-105520057D01*
X142499523Y-105520057D02*
X142547142Y-105615295D01*
X142547142Y-105615295D02*
X142547142Y-105758152D01*
X142547142Y-105758152D02*
X142499523Y-105853390D01*
X142499523Y-105853390D02*
X142451904Y-105901009D01*
X142451904Y-105901009D02*
X142356666Y-105948628D01*
X142356666Y-105948628D02*
X141975714Y-105948628D01*
X143499523Y-106424819D02*
X142928095Y-106424819D01*
X143213809Y-106424819D02*
X143213809Y-105424819D01*
X143213809Y-105424819D02*
X143118571Y-105567676D01*
X143118571Y-105567676D02*
X143023333Y-105662914D01*
X143023333Y-105662914D02*
X142928095Y-105710533D01*
X144404285Y-105424819D02*
X143928095Y-105424819D01*
X143928095Y-105424819D02*
X143880476Y-105901009D01*
X143880476Y-105901009D02*
X143928095Y-105853390D01*
X143928095Y-105853390D02*
X144023333Y-105805771D01*
X144023333Y-105805771D02*
X144261428Y-105805771D01*
X144261428Y-105805771D02*
X144356666Y-105853390D01*
X144356666Y-105853390D02*
X144404285Y-105901009D01*
X144404285Y-105901009D02*
X144451904Y-105996247D01*
X144451904Y-105996247D02*
X144451904Y-106234342D01*
X144451904Y-106234342D02*
X144404285Y-106329580D01*
X144404285Y-106329580D02*
X144356666Y-106377200D01*
X144356666Y-106377200D02*
X144261428Y-106424819D01*
X144261428Y-106424819D02*
X144023333Y-106424819D01*
X144023333Y-106424819D02*
X143928095Y-106377200D01*
X143928095Y-106377200D02*
X143880476Y-106329580D01*
X126780714Y-111494819D02*
X126780714Y-110494819D01*
X126780714Y-110494819D02*
X127018809Y-110494819D01*
X127018809Y-110494819D02*
X127161666Y-110542438D01*
X127161666Y-110542438D02*
X127256904Y-110637676D01*
X127256904Y-110637676D02*
X127304523Y-110732914D01*
X127304523Y-110732914D02*
X127352142Y-110923390D01*
X127352142Y-110923390D02*
X127352142Y-111066247D01*
X127352142Y-111066247D02*
X127304523Y-111256723D01*
X127304523Y-111256723D02*
X127256904Y-111351961D01*
X127256904Y-111351961D02*
X127161666Y-111447200D01*
X127161666Y-111447200D02*
X127018809Y-111494819D01*
X127018809Y-111494819D02*
X126780714Y-111494819D01*
X128304523Y-111494819D02*
X127733095Y-111494819D01*
X128018809Y-111494819D02*
X128018809Y-110494819D01*
X128018809Y-110494819D02*
X127923571Y-110637676D01*
X127923571Y-110637676D02*
X127828333Y-110732914D01*
X127828333Y-110732914D02*
X127733095Y-110780533D01*
X128637857Y-110494819D02*
X129256904Y-110494819D01*
X129256904Y-110494819D02*
X128923571Y-110875771D01*
X128923571Y-110875771D02*
X129066428Y-110875771D01*
X129066428Y-110875771D02*
X129161666Y-110923390D01*
X129161666Y-110923390D02*
X129209285Y-110971009D01*
X129209285Y-110971009D02*
X129256904Y-111066247D01*
X129256904Y-111066247D02*
X129256904Y-111304342D01*
X129256904Y-111304342D02*
X129209285Y-111399580D01*
X129209285Y-111399580D02*
X129161666Y-111447200D01*
X129161666Y-111447200D02*
X129066428Y-111494819D01*
X129066428Y-111494819D02*
X128780714Y-111494819D01*
X128780714Y-111494819D02*
X128685476Y-111447200D01*
X128685476Y-111447200D02*
X128637857Y-111399580D01*
X120047142Y-106424819D02*
X119713809Y-105948628D01*
X119475714Y-106424819D02*
X119475714Y-105424819D01*
X119475714Y-105424819D02*
X119856666Y-105424819D01*
X119856666Y-105424819D02*
X119951904Y-105472438D01*
X119951904Y-105472438D02*
X119999523Y-105520057D01*
X119999523Y-105520057D02*
X120047142Y-105615295D01*
X120047142Y-105615295D02*
X120047142Y-105758152D01*
X120047142Y-105758152D02*
X119999523Y-105853390D01*
X119999523Y-105853390D02*
X119951904Y-105901009D01*
X119951904Y-105901009D02*
X119856666Y-105948628D01*
X119856666Y-105948628D02*
X119475714Y-105948628D01*
X120999523Y-106424819D02*
X120428095Y-106424819D01*
X120713809Y-106424819D02*
X120713809Y-105424819D01*
X120713809Y-105424819D02*
X120618571Y-105567676D01*
X120618571Y-105567676D02*
X120523333Y-105662914D01*
X120523333Y-105662914D02*
X120428095Y-105710533D01*
X121380476Y-105520057D02*
X121428095Y-105472438D01*
X121428095Y-105472438D02*
X121523333Y-105424819D01*
X121523333Y-105424819D02*
X121761428Y-105424819D01*
X121761428Y-105424819D02*
X121856666Y-105472438D01*
X121856666Y-105472438D02*
X121904285Y-105520057D01*
X121904285Y-105520057D02*
X121951904Y-105615295D01*
X121951904Y-105615295D02*
X121951904Y-105710533D01*
X121951904Y-105710533D02*
X121904285Y-105853390D01*
X121904285Y-105853390D02*
X121332857Y-106424819D01*
X121332857Y-106424819D02*
X121951904Y-106424819D01*
X141780714Y-111494819D02*
X141780714Y-110494819D01*
X141780714Y-110494819D02*
X142018809Y-110494819D01*
X142018809Y-110494819D02*
X142161666Y-110542438D01*
X142161666Y-110542438D02*
X142256904Y-110637676D01*
X142256904Y-110637676D02*
X142304523Y-110732914D01*
X142304523Y-110732914D02*
X142352142Y-110923390D01*
X142352142Y-110923390D02*
X142352142Y-111066247D01*
X142352142Y-111066247D02*
X142304523Y-111256723D01*
X142304523Y-111256723D02*
X142256904Y-111351961D01*
X142256904Y-111351961D02*
X142161666Y-111447200D01*
X142161666Y-111447200D02*
X142018809Y-111494819D01*
X142018809Y-111494819D02*
X141780714Y-111494819D01*
X143304523Y-111494819D02*
X142733095Y-111494819D01*
X143018809Y-111494819D02*
X143018809Y-110494819D01*
X143018809Y-110494819D02*
X142923571Y-110637676D01*
X142923571Y-110637676D02*
X142828333Y-110732914D01*
X142828333Y-110732914D02*
X142733095Y-110780533D01*
X144209285Y-110494819D02*
X143733095Y-110494819D01*
X143733095Y-110494819D02*
X143685476Y-110971009D01*
X143685476Y-110971009D02*
X143733095Y-110923390D01*
X143733095Y-110923390D02*
X143828333Y-110875771D01*
X143828333Y-110875771D02*
X144066428Y-110875771D01*
X144066428Y-110875771D02*
X144161666Y-110923390D01*
X144161666Y-110923390D02*
X144209285Y-110971009D01*
X144209285Y-110971009D02*
X144256904Y-111066247D01*
X144256904Y-111066247D02*
X144256904Y-111304342D01*
X144256904Y-111304342D02*
X144209285Y-111399580D01*
X144209285Y-111399580D02*
X144161666Y-111447200D01*
X144161666Y-111447200D02*
X144066428Y-111494819D01*
X144066428Y-111494819D02*
X143828333Y-111494819D01*
X143828333Y-111494819D02*
X143733095Y-111447200D01*
X143733095Y-111447200D02*
X143685476Y-111399580D01*
X111780714Y-111494819D02*
X111780714Y-110494819D01*
X111780714Y-110494819D02*
X112018809Y-110494819D01*
X112018809Y-110494819D02*
X112161666Y-110542438D01*
X112161666Y-110542438D02*
X112256904Y-110637676D01*
X112256904Y-110637676D02*
X112304523Y-110732914D01*
X112304523Y-110732914D02*
X112352142Y-110923390D01*
X112352142Y-110923390D02*
X112352142Y-111066247D01*
X112352142Y-111066247D02*
X112304523Y-111256723D01*
X112304523Y-111256723D02*
X112256904Y-111351961D01*
X112256904Y-111351961D02*
X112161666Y-111447200D01*
X112161666Y-111447200D02*
X112018809Y-111494819D01*
X112018809Y-111494819D02*
X111780714Y-111494819D01*
X113304523Y-111494819D02*
X112733095Y-111494819D01*
X113018809Y-111494819D02*
X113018809Y-110494819D01*
X113018809Y-110494819D02*
X112923571Y-110637676D01*
X112923571Y-110637676D02*
X112828333Y-110732914D01*
X112828333Y-110732914D02*
X112733095Y-110780533D01*
X114256904Y-111494819D02*
X113685476Y-111494819D01*
X113971190Y-111494819D02*
X113971190Y-110494819D01*
X113971190Y-110494819D02*
X113875952Y-110637676D01*
X113875952Y-110637676D02*
X113780714Y-110732914D01*
X113780714Y-110732914D02*
X113685476Y-110780533D01*
X149280714Y-111494819D02*
X149280714Y-110494819D01*
X149280714Y-110494819D02*
X149518809Y-110494819D01*
X149518809Y-110494819D02*
X149661666Y-110542438D01*
X149661666Y-110542438D02*
X149756904Y-110637676D01*
X149756904Y-110637676D02*
X149804523Y-110732914D01*
X149804523Y-110732914D02*
X149852142Y-110923390D01*
X149852142Y-110923390D02*
X149852142Y-111066247D01*
X149852142Y-111066247D02*
X149804523Y-111256723D01*
X149804523Y-111256723D02*
X149756904Y-111351961D01*
X149756904Y-111351961D02*
X149661666Y-111447200D01*
X149661666Y-111447200D02*
X149518809Y-111494819D01*
X149518809Y-111494819D02*
X149280714Y-111494819D01*
X150804523Y-111494819D02*
X150233095Y-111494819D01*
X150518809Y-111494819D02*
X150518809Y-110494819D01*
X150518809Y-110494819D02*
X150423571Y-110637676D01*
X150423571Y-110637676D02*
X150328333Y-110732914D01*
X150328333Y-110732914D02*
X150233095Y-110780533D01*
X151661666Y-110494819D02*
X151471190Y-110494819D01*
X151471190Y-110494819D02*
X151375952Y-110542438D01*
X151375952Y-110542438D02*
X151328333Y-110590057D01*
X151328333Y-110590057D02*
X151233095Y-110732914D01*
X151233095Y-110732914D02*
X151185476Y-110923390D01*
X151185476Y-110923390D02*
X151185476Y-111304342D01*
X151185476Y-111304342D02*
X151233095Y-111399580D01*
X151233095Y-111399580D02*
X151280714Y-111447200D01*
X151280714Y-111447200D02*
X151375952Y-111494819D01*
X151375952Y-111494819D02*
X151566428Y-111494819D01*
X151566428Y-111494819D02*
X151661666Y-111447200D01*
X151661666Y-111447200D02*
X151709285Y-111399580D01*
X151709285Y-111399580D02*
X151756904Y-111304342D01*
X151756904Y-111304342D02*
X151756904Y-111066247D01*
X151756904Y-111066247D02*
X151709285Y-110971009D01*
X151709285Y-110971009D02*
X151661666Y-110923390D01*
X151661666Y-110923390D02*
X151566428Y-110875771D01*
X151566428Y-110875771D02*
X151375952Y-110875771D01*
X151375952Y-110875771D02*
X151280714Y-110923390D01*
X151280714Y-110923390D02*
X151233095Y-110971009D01*
X151233095Y-110971009D02*
X151185476Y-111066247D01*
X146928095Y-78964819D02*
X146928095Y-79774342D01*
X146928095Y-79774342D02*
X146975714Y-79869580D01*
X146975714Y-79869580D02*
X147023333Y-79917200D01*
X147023333Y-79917200D02*
X147118571Y-79964819D01*
X147118571Y-79964819D02*
X147309047Y-79964819D01*
X147309047Y-79964819D02*
X147404285Y-79917200D01*
X147404285Y-79917200D02*
X147451904Y-79869580D01*
X147451904Y-79869580D02*
X147499523Y-79774342D01*
X147499523Y-79774342D02*
X147499523Y-78964819D01*
X147928095Y-79060057D02*
X147975714Y-79012438D01*
X147975714Y-79012438D02*
X148070952Y-78964819D01*
X148070952Y-78964819D02*
X148309047Y-78964819D01*
X148309047Y-78964819D02*
X148404285Y-79012438D01*
X148404285Y-79012438D02*
X148451904Y-79060057D01*
X148451904Y-79060057D02*
X148499523Y-79155295D01*
X148499523Y-79155295D02*
X148499523Y-79250533D01*
X148499523Y-79250533D02*
X148451904Y-79393390D01*
X148451904Y-79393390D02*
X147880476Y-79964819D01*
X147880476Y-79964819D02*
X148499523Y-79964819D01*
X98023333Y-106424819D02*
X97690000Y-105948628D01*
X97451905Y-106424819D02*
X97451905Y-105424819D01*
X97451905Y-105424819D02*
X97832857Y-105424819D01*
X97832857Y-105424819D02*
X97928095Y-105472438D01*
X97928095Y-105472438D02*
X97975714Y-105520057D01*
X97975714Y-105520057D02*
X98023333Y-105615295D01*
X98023333Y-105615295D02*
X98023333Y-105758152D01*
X98023333Y-105758152D02*
X97975714Y-105853390D01*
X97975714Y-105853390D02*
X97928095Y-105901009D01*
X97928095Y-105901009D02*
X97832857Y-105948628D01*
X97832857Y-105948628D02*
X97451905Y-105948628D01*
X98499524Y-106424819D02*
X98690000Y-106424819D01*
X98690000Y-106424819D02*
X98785238Y-106377200D01*
X98785238Y-106377200D02*
X98832857Y-106329580D01*
X98832857Y-106329580D02*
X98928095Y-106186723D01*
X98928095Y-106186723D02*
X98975714Y-105996247D01*
X98975714Y-105996247D02*
X98975714Y-105615295D01*
X98975714Y-105615295D02*
X98928095Y-105520057D01*
X98928095Y-105520057D02*
X98880476Y-105472438D01*
X98880476Y-105472438D02*
X98785238Y-105424819D01*
X98785238Y-105424819D02*
X98594762Y-105424819D01*
X98594762Y-105424819D02*
X98499524Y-105472438D01*
X98499524Y-105472438D02*
X98451905Y-105520057D01*
X98451905Y-105520057D02*
X98404286Y-105615295D01*
X98404286Y-105615295D02*
X98404286Y-105853390D01*
X98404286Y-105853390D02*
X98451905Y-105948628D01*
X98451905Y-105948628D02*
X98499524Y-105996247D01*
X98499524Y-105996247D02*
X98594762Y-106043866D01*
X98594762Y-106043866D02*
X98785238Y-106043866D01*
X98785238Y-106043866D02*
X98880476Y-105996247D01*
X98880476Y-105996247D02*
X98928095Y-105948628D01*
X98928095Y-105948628D02*
X98975714Y-105853390D01*
X97256905Y-111494819D02*
X97256905Y-110494819D01*
X97256905Y-110494819D02*
X97495000Y-110494819D01*
X97495000Y-110494819D02*
X97637857Y-110542438D01*
X97637857Y-110542438D02*
X97733095Y-110637676D01*
X97733095Y-110637676D02*
X97780714Y-110732914D01*
X97780714Y-110732914D02*
X97828333Y-110923390D01*
X97828333Y-110923390D02*
X97828333Y-111066247D01*
X97828333Y-111066247D02*
X97780714Y-111256723D01*
X97780714Y-111256723D02*
X97733095Y-111351961D01*
X97733095Y-111351961D02*
X97637857Y-111447200D01*
X97637857Y-111447200D02*
X97495000Y-111494819D01*
X97495000Y-111494819D02*
X97256905Y-111494819D01*
X98304524Y-111494819D02*
X98495000Y-111494819D01*
X98495000Y-111494819D02*
X98590238Y-111447200D01*
X98590238Y-111447200D02*
X98637857Y-111399580D01*
X98637857Y-111399580D02*
X98733095Y-111256723D01*
X98733095Y-111256723D02*
X98780714Y-111066247D01*
X98780714Y-111066247D02*
X98780714Y-110685295D01*
X98780714Y-110685295D02*
X98733095Y-110590057D01*
X98733095Y-110590057D02*
X98685476Y-110542438D01*
X98685476Y-110542438D02*
X98590238Y-110494819D01*
X98590238Y-110494819D02*
X98399762Y-110494819D01*
X98399762Y-110494819D02*
X98304524Y-110542438D01*
X98304524Y-110542438D02*
X98256905Y-110590057D01*
X98256905Y-110590057D02*
X98209286Y-110685295D01*
X98209286Y-110685295D02*
X98209286Y-110923390D01*
X98209286Y-110923390D02*
X98256905Y-111018628D01*
X98256905Y-111018628D02*
X98304524Y-111066247D01*
X98304524Y-111066247D02*
X98399762Y-111113866D01*
X98399762Y-111113866D02*
X98590238Y-111113866D01*
X98590238Y-111113866D02*
X98685476Y-111066247D01*
X98685476Y-111066247D02*
X98733095Y-111018628D01*
X98733095Y-111018628D02*
X98780714Y-110923390D01*
X134280714Y-111494819D02*
X134280714Y-110494819D01*
X134280714Y-110494819D02*
X134518809Y-110494819D01*
X134518809Y-110494819D02*
X134661666Y-110542438D01*
X134661666Y-110542438D02*
X134756904Y-110637676D01*
X134756904Y-110637676D02*
X134804523Y-110732914D01*
X134804523Y-110732914D02*
X134852142Y-110923390D01*
X134852142Y-110923390D02*
X134852142Y-111066247D01*
X134852142Y-111066247D02*
X134804523Y-111256723D01*
X134804523Y-111256723D02*
X134756904Y-111351961D01*
X134756904Y-111351961D02*
X134661666Y-111447200D01*
X134661666Y-111447200D02*
X134518809Y-111494819D01*
X134518809Y-111494819D02*
X134280714Y-111494819D01*
X135804523Y-111494819D02*
X135233095Y-111494819D01*
X135518809Y-111494819D02*
X135518809Y-110494819D01*
X135518809Y-110494819D02*
X135423571Y-110637676D01*
X135423571Y-110637676D02*
X135328333Y-110732914D01*
X135328333Y-110732914D02*
X135233095Y-110780533D01*
X136661666Y-110828152D02*
X136661666Y-111494819D01*
X136423571Y-110447200D02*
X136185476Y-111161485D01*
X136185476Y-111161485D02*
X136804523Y-111161485D01*
%TO.C,D12*%
D11*
X117935000Y-113455000D02*
X117935000Y-116545000D01*
X117935000Y-113455170D02*
G75*
G02*
X123485000Y-115000000I2560000J-1544830D01*
G01*
X123485000Y-115000000D02*
G75*
G02*
X117935000Y-116544830I-2990000J0D01*
G01*
X122995000Y-115000000D02*
G75*
G02*
X117995000Y-115000000I-2500000J0D01*
G01*
X117995000Y-115000000D02*
G75*
G02*
X122995000Y-115000000I2500000J0D01*
G01*
%TO.C,A1*%
X94120000Y-86180000D02*
X104540000Y-86180000D01*
X94120000Y-94060000D02*
X94120000Y-86180000D01*
X96660000Y-81100000D02*
X96660000Y-86180000D01*
X96660000Y-99140000D02*
X96660000Y-94060000D01*
X96660000Y-99140000D02*
X140100000Y-99140000D01*
X99330000Y-83770000D02*
X99330000Y-81100000D01*
X99330000Y-96470000D02*
X99330000Y-99140000D01*
X104540000Y-86180000D02*
X104540000Y-94060000D01*
X104540000Y-94060000D02*
X94120000Y-94060000D01*
X134890000Y-81100000D02*
X96660000Y-81100000D01*
X134890000Y-83770000D02*
X99330000Y-83770000D01*
X134890000Y-83770000D02*
X134890000Y-81100000D01*
X134890000Y-83770000D02*
X137430000Y-83770000D01*
X137430000Y-83770000D02*
X137430000Y-81100000D01*
X137430000Y-96470000D02*
X99330000Y-96470000D01*
X137430000Y-96470000D02*
X137430000Y-99140000D01*
X140100000Y-81100000D02*
X137430000Y-81100000D01*
X140100000Y-99140000D02*
X140100000Y-81100000D01*
%TO.C,D10*%
X102935000Y-113455000D02*
X102935000Y-116545000D01*
X102935000Y-113455170D02*
G75*
G02*
X108485000Y-115000000I2560000J-1544830D01*
G01*
X108485000Y-115000000D02*
G75*
G02*
X102935000Y-116544830I-2990000J0D01*
G01*
X107995000Y-115000000D02*
G75*
G02*
X102995000Y-115000000I-2500000J0D01*
G01*
X102995000Y-115000000D02*
G75*
G02*
X107995000Y-115000000I2500000J0D01*
G01*
%TO.C,D13*%
X125435000Y-113455000D02*
X125435000Y-116545000D01*
X125435000Y-113455170D02*
G75*
G02*
X130985000Y-115000000I2560000J-1544830D01*
G01*
X130985000Y-115000000D02*
G75*
G02*
X125435000Y-116544830I-2990000J0D01*
G01*
X130495000Y-115000000D02*
G75*
G02*
X125495000Y-115000000I-2500000J0D01*
G01*
X125495000Y-115000000D02*
G75*
G02*
X130495000Y-115000000I2500000J0D01*
G01*
%TO.C,D15*%
X140435000Y-113455000D02*
X140435000Y-116545000D01*
X140435000Y-113455170D02*
G75*
G02*
X145985000Y-115000000I2560000J-1544830D01*
G01*
X145985000Y-115000000D02*
G75*
G02*
X140435000Y-116544830I-2990000J0D01*
G01*
X145495000Y-115000000D02*
G75*
G02*
X140495000Y-115000000I-2500000J0D01*
G01*
X140495000Y-115000000D02*
G75*
G02*
X145495000Y-115000000I2500000J0D01*
G01*
%TO.C,D11*%
X110435000Y-113455000D02*
X110435000Y-116545000D01*
X110435000Y-113455170D02*
G75*
G02*
X115985000Y-115000000I2560000J-1544830D01*
G01*
X115985000Y-115000000D02*
G75*
G02*
X110435000Y-116544830I-2990000J0D01*
G01*
X115495000Y-115000000D02*
G75*
G02*
X110495000Y-115000000I-2500000J0D01*
G01*
X110495000Y-115000000D02*
G75*
G02*
X115495000Y-115000000I2500000J0D01*
G01*
%TO.C,D16*%
X147935000Y-113455000D02*
X147935000Y-116545000D01*
X147935000Y-113455170D02*
G75*
G02*
X153485000Y-115000000I2560000J-1544830D01*
G01*
X153485000Y-115000000D02*
G75*
G02*
X147935000Y-116544830I-2990000J0D01*
G01*
X152995000Y-115000000D02*
G75*
G02*
X147995000Y-115000000I-2500000J0D01*
G01*
X147995000Y-115000000D02*
G75*
G02*
X152995000Y-115000000I2500000J0D01*
G01*
%TO.C,U2*%
X145040000Y-80510000D02*
X145040000Y-100950000D01*
X145040000Y-100950000D02*
X150340000Y-100950000D01*
X146690000Y-80510000D02*
X145040000Y-80510000D01*
X150340000Y-80510000D02*
X148690000Y-80510000D01*
X150340000Y-100950000D02*
X150340000Y-80510000D01*
X148690000Y-80510000D02*
G75*
G02*
X146690000Y-80510000I-1000000J0D01*
G01*
%TO.C,D9*%
X95435000Y-113455000D02*
X95435000Y-116545000D01*
X95435000Y-113455170D02*
G75*
G02*
X100985000Y-115000000I2560000J-1544830D01*
G01*
X100985000Y-115000000D02*
G75*
G02*
X95435000Y-116544830I-2990000J0D01*
G01*
X100495000Y-115000000D02*
G75*
G02*
X95495000Y-115000000I-2500000J0D01*
G01*
X95495000Y-115000000D02*
G75*
G02*
X100495000Y-115000000I2500000J0D01*
G01*
%TO.C,D14*%
X132935000Y-113455000D02*
X132935000Y-116545000D01*
X132935000Y-113455170D02*
G75*
G02*
X138485000Y-115000000I2560000J-1544830D01*
G01*
X138485000Y-115000000D02*
G75*
G02*
X132935000Y-116544830I-2990000J0D01*
G01*
X137995000Y-115000000D02*
G75*
G02*
X132995000Y-115000000I-2500000J0D01*
G01*
X132995000Y-115000000D02*
G75*
G02*
X137995000Y-115000000I2500000J0D01*
G01*
%TD*%
M02*
